<svg id="Layer_1" data-name="Layer 1" xmlns="http://www.w3.org/2000/svg" xmlns:xlink="http://www.w3.org/1999/xlink" viewBox="0 0 208.9 76.75"><defs><style>.cls-1{fill:none;}.cls-2{clip-path:url(#clip-path);}.cls-3{fill:#f1f9fe;}.cls-4{fill:#b1dff6;}.cls-5{fill:#d8eefc;}</style><clipPath id="clip-path"><rect class="cls-1" width="208.9" height="76.75"/></clipPath></defs><g class="cls-2"><polygon class="cls-3" points="207.14 49.38 224.66 49.38 224.62 65.52 240 65.52 240 76.75 0 76.75 0 67.98 6.23 67.98 6.19 53.93 25.31 53.93 25.17 39.31 43.64 39.31 43.64 27.35 66.43 27.35 66.43 35.13 73.83 35.13 73.83 21.36 79.43 21.36 79.43 11.68 92.25 11.68 92.25 0 142.67 0 142.67 7.69 160.9 7.69 160.95 24.78 174.67 24.78 174.57 41.78 183.22 41.78 183.22 30.38 206.95 30.38 207.14 49.38"/><polygon class="cls-4" points="25.31 53.93 6.19 53.93 6.23 67.98 0 67.98 0 76.75 240 76.75 240 65.52 224.62 65.52 224.66 49.38 207.14 49.38 207.14 67.23 25.31 67.23 25.31 53.93"/><polygon class="cls-5" points="207.14 57.73 194.99 57.73 194.99 44.82 183.59 44.82 183.59 57.73 159.67 57.73 159.67 43.3 152.07 43.3 152.07 25.45 134.98 25.45 134.98 18.61 111.43 18.61 111.43 40.26 101.18 40.26 101.18 30.38 85.23 30.38 85.23 46.34 64.34 46.34 64.34 35.13 51.04 35.13 51.04 50.13 40.03 50.13 40.03 57.73 25.31 57.73 25.31 67.23 207.14 67.23 207.14 57.73"/></g></svg>