<svg id="Layer_1" data-name="Layer 1" xmlns="http://www.w3.org/2000/svg" xmlns:xlink="http://www.w3.org/1999/xlink" viewBox="0 0 202.33 86.44"><defs><style>.cls-1{fill:none;}.cls-2{clip-path:url(#clip-path);}.cls-3{fill:#f1f9fe;}.cls-4{fill:#b1dff6;}.cls-5{fill:#d8eefc;}</style><clipPath id="clip-path"><rect class="cls-1" width="202.33" height="86.44"/></clipPath></defs><g class="cls-2"><polygon class="cls-3" points="165.33 55.61 185.06 55.61 185.01 73.79 202.33 73.79 202.33 86.44 -67.96 86.44 -67.96 76.56 -60.95 76.56 -60.99 60.74 -39.45 60.74 -39.61 44.27 -18.82 44.27 -18.82 30.8 6.85 30.8 6.85 39.57 15.19 39.57 15.19 24.06 21.5 24.06 21.5 13.15 35.94 13.15 35.94 0 92.72 0 92.72 8.66 113.25 8.66 113.31 27.91 128.76 27.91 128.65 47.05 138.38 47.05 138.38 34.22 165.12 34.22 165.33 55.61"/><polygon class="cls-4" points="-39.45 60.74 -60.99 60.74 -60.95 76.56 -67.96 76.56 -67.96 86.44 202.33 86.44 202.33 73.79 185.01 73.79 185.06 55.61 165.33 55.61 165.33 75.71 -39.45 75.71 -39.45 60.74"/><polygon class="cls-5" points="165.33 65.02 151.64 65.02 151.64 50.48 138.81 50.48 138.81 65.02 111.86 65.02 111.86 48.76 103.31 48.76 103.31 28.66 84.06 28.66 84.06 20.96 57.54 20.96 57.54 45.34 45.99 45.34 45.99 34.22 28.02 34.22 28.02 52.18 4.5 52.18 4.5 39.57 -10.47 39.57 -10.47 56.46 -22.88 56.46 -22.88 65.02 -39.45 65.02 -39.45 75.71 165.33 75.71 165.33 65.02"/></g></svg>