<svg id="Layer_1" data-name="Layer 1" xmlns="http://www.w3.org/2000/svg" xmlns:xlink="http://www.w3.org/1999/xlink" viewBox="0 0 258.01 123.99"><defs><style>.cls-1{fill:none;}.cls-2{clip-path:url(#clip-path);}.cls-3{fill:#f1f9fe;}.cls-4{fill:#b1dff6;}.cls-5{fill:#d8eefc;}</style><clipPath id="clip-path"><rect class="cls-1" width="258.01" height="123.99"/></clipPath></defs><g class="cls-2"><polygon class="cls-3" points="334.64 79.77 362.94 79.77 362.87 105.85 387.72 105.85 387.72 123.99 0 123.99 0 109.83 10.06 109.83 10 87.13 40.89 87.13 40.66 63.51 70.5 63.51 70.5 44.18 107.31 44.18 107.31 56.76 119.28 56.76 119.28 34.51 128.33 34.51 128.33 18.87 149.03 18.87 149.03 0 230.49 0 230.49 12.42 259.94 12.42 260.02 40.04 282.18 40.04 282.03 67.5 295.99 67.5 295.99 49.08 334.34 49.08 334.64 79.77"/><polygon class="cls-4" points="40.89 87.13 10 87.13 10.06 109.83 0 109.83 0 123.99 387.72 123.99 387.72 105.85 362.87 105.85 362.94 79.77 334.64 79.77 334.64 108.6 40.89 108.6 40.89 87.13"/><polygon class="cls-5" points="334.64 93.26 315.01 93.26 315.01 72.41 296.6 72.41 296.6 93.26 257.94 93.26 257.94 69.95 245.67 69.95 245.67 41.11 218.06 41.11 218.06 30.07 180.02 30.07 180.02 65.04 163.46 65.04 163.46 49.08 137.68 49.08 137.68 74.85 103.94 74.85 103.94 56.76 82.46 56.76 82.46 80.99 64.67 80.99 64.67 93.26 40.89 93.26 40.89 108.6 334.64 108.6 334.64 93.26"/></g></svg>