<svg id="Layer_1" data-name="Layer 1" xmlns="http://www.w3.org/2000/svg" xmlns:xlink="http://www.w3.org/1999/xlink" viewBox="0 0 329.83 187.01"><defs><style>.cls-1{fill:none;}.cls-2{clip-path:url(#clip-path);}.cls-3{fill:#f1f9fe;}.cls-4{fill:#b1dff6;}.cls-5{fill:#d8eefc;}</style><clipPath id="clip-path"><rect class="cls-1" width="329.83" height="187.01"/></clipPath></defs><g class="cls-2"><polygon class="cls-3" points="249.78 120.31 292.46 120.31 292.35 159.65 329.83 159.65 329.83 187.01 -254.95 187.01 -254.95 165.65 -239.78 165.65 -239.86 131.41 -193.27 131.41 -193.62 95.78 -148.62 95.78 -148.62 66.64 -93.09 66.64 -93.09 85.61 -75.05 85.61 -75.05 52.05 -61.4 52.05 -61.4 28.46 -30.17 28.46 -30.17 0 92.69 0 92.69 18.74 137.11 18.74 137.22 60.38 170.65 60.38 170.42 101.8 191.48 101.8 191.48 74.03 249.32 74.03 249.78 120.31"/><polygon class="cls-4" points="-193.27 131.41 -239.86 131.41 -239.78 165.65 -254.95 165.65 -254.95 187.01 329.83 187.01 329.83 159.65 292.35 159.65 292.46 120.31 249.78 120.31 249.78 163.8 -193.27 163.8 -193.27 131.41"/><polygon class="cls-5" points="249.78 140.66 220.17 140.66 220.17 109.2 192.4 109.2 192.4 140.66 134.1 140.66 134.1 105.5 115.59 105.5 115.59 62.01 73.94 62.01 73.94 45.35 16.57 45.35 16.57 98.1 -8.41 98.1 -8.41 74.03 -47.28 74.03 -47.28 112.9 -98.18 112.9 -98.18 85.61 -130.57 85.61 -130.57 122.16 -157.41 122.16 -157.41 140.66 -193.27 140.66 -193.27 163.8 249.78 163.8 249.78 140.66"/></g></svg>