<svg id="Layer_1" data-name="Layer 1" xmlns="http://www.w3.org/2000/svg" viewBox="0 0 702.44 227.21"><defs><style>.cls-1{fill:#f1f9fe;}.cls-2{fill:#b1dff6;}.cls-3{fill:#d8eefc;}</style></defs><polygon class="cls-1" points="606.28 147.09 657.55 147.09 657.42 194.34 702.44 194.34 702.44 227.21 0 227.21 0 201.55 18.22 201.55 18.12 160.43 74.09 160.43 73.67 117.64 127.72 117.64 127.72 82.62 194.42 82.62 194.42 105.41 216.1 105.41 216.1 65.11 232.49 65.11 232.49 36.76 270.01 36.76 270.01 2.58 417.58 2.58 417.58 25.09 470.94 25.09 471.08 75.11 511.23 75.11 510.96 124.86 536.25 124.86 536.25 91.5 605.73 91.5 606.28 147.09"/><polygon class="cls-2" points="74.09 160.43 18.12 160.43 18.22 201.55 0 201.55 0 227.21 702.44 227.21 702.44 194.34 657.42 194.34 657.55 147.09 606.28 147.09 606.28 199.34 74.09 199.34 74.09 160.43"/><polygon class="cls-3" points="606.28 171.54 570.71 171.54 570.71 133.75 537.36 133.75 537.36 171.54 467.33 171.54 467.33 129.3 445.09 129.3 445.09 77.06 395.07 77.06 395.07 57.05 326.15 57.05 326.15 120.41 296.14 120.41 296.14 91.5 249.44 91.5 249.44 138.19 188.31 138.19 188.31 105.41 149.4 105.41 149.4 149.31 117.17 149.31 117.17 171.54 74.09 171.54 74.09 199.34 606.28 199.34 606.28 171.54"/></svg>