<svg id="Layer_1" data-name="Layer 1" xmlns="http://www.w3.org/2000/svg" viewBox="0 0 569.29 515.84"><defs><style>.cls-1{fill:#7f4d2e;}.cls-2{fill:#945835;}.cls-3{fill:#a37458;}.cls-4{fill:#1d1d1b;}.cls-5{fill:#a3c254;}.cls-6{fill:#8ba748;}.cls-7{fill:#b57a4a;}.cls-8{fill:#ffce00;}.cls-9{fill:#f6b210;}.cls-10{fill:#9d6b40;}</style></defs><polygon class="cls-1" points="0 417.2 0 450.82 55.45 450.82 55.45 467.28 81.17 467.28 81.17 486.83 106.88 486.83 106.88 512.15 447.41 512.15 447.41 482.72 484.45 482.72 484.45 467.28 508.11 467.28 508.11 449.8 566.2 449.8 566.2 417.2 0 417.2"/><polygon class="cls-2" points="501.96 427.06 501.96 443.94 469.25 443.94 469.25 417.2 457.65 417.2 457.65 439.72 442.88 439.72 442.88 448.17 423.89 448.17 423.89 439.72 395.4 439.72 395.4 452.38 367.97 452.38 367.97 417.2 362.69 417.2 362.69 437.61 329.99 437.61 329.99 459.77 289.89 459.77 289.89 442.89 263.51 442.89 263.51 433.39 255.07 433.39 255.07 466.1 225.53 466.1 225.53 445 210.76 445 210.76 460.82 184.38 460.82 184.38 442.89 160.11 442.89 160.11 428.12 150.62 428.12 150.62 439.72 142.18 439.72 142.18 456.6 124.24 456.6 124.24 439.72 101.03 439.72 101.03 460.82 83.09 460.82 83.09 433.39 49.33 433.39 49.33 445 20.84 445 20.84 450.82 55.45 450.82 55.45 467.28 81.17 467.28 81.17 479.81 106.3 479.81 106.3 486.83 106.88 486.83 106.88 496.7 122.13 496.7 122.13 480.87 152.73 480.87 152.73 499.86 175.94 499.86 175.94 486.14 195.99 486.14 195.99 490.37 225.53 490.37 225.53 479.81 277.23 479.81 277.23 473.49 341.59 473.49 341.59 496.7 351.08 496.7 351.08 484.04 402.78 484.04 402.78 512.15 422.83 512.15 422.83 466.1 443.93 466.1 443.93 488.26 447.41 488.26 447.41 482.72 459.76 482.72 459.76 472.43 484.45 472.43 484.45 467.28 508.11 467.28 508.11 449.8 531.51 449.8 531.51 427.06 501.96 427.06"/><path class="cls-3" d="M522.83,435.13h5.22v-.24Q525.44,435,522.83,435.13Z"/><rect class="cls-1" x="474.53" y="404.54" width="16.88" height="13.72"/><rect class="cls-1" x="306.77" y="404.54" width="16.88" height="13.72"/><rect class="cls-1" x="218.14" y="404.54" width="16.89" height="13.72"/><rect class="cls-1" x="150.09" y="457.82" width="13.98" height="13.72"/><rect class="cls-1" x="181.48" y="468.55" width="13.98" height="13.71"/><rect class="cls-1" x="266.77" y="449.55" width="13.98" height="13.71"/><rect class="cls-1" x="252.96" y="469.78" width="13.98" height="13.71"/><rect class="cls-1" x="305.19" y="453.95" width="13.98" height="13.71"/><rect class="cls-1" x="347.39" y="457.82" width="13.98" height="13.72"/><rect class="cls-1" x="371.13" y="464.68" width="13.98" height="13.71"/><rect class="cls-1" x="404.1" y="447.09" width="13.98" height="13.71"/><rect class="cls-1" x="440.37" y="451.84" width="13.98" height="13.71"/><polygon class="cls-1" points="508.11 449.8 510.62 449.8 510.62 447.09 496.64 447.09 496.64 460.81 508.11 460.81 508.11 449.8"/><polygon class="cls-1" points="484.45 467.28 488.51 467.28 488.51 464.68 474.53 464.68 474.53 478.39 484.45 478.39 484.45 467.28"/><rect class="cls-1" x="414.02" y="487.01" width="13.98" height="13.71"/><rect class="cls-1" x="122.13" y="471.53" width="13.98" height="13.71"/><rect class="cls-1" x="81.16" y="472.52" width="6.41" height="13.72"/><polygon class="cls-1" points="48.98 444.1 48.98 450.82 55.45 450.82 55.45 457.82 62.96 457.82 62.96 444.1 48.98 444.1"/><rect class="cls-1" x="145.34" y="404.54" width="16.88" height="13.72"/><rect class="cls-1" x="357.41" y="410.71" width="16.88" height="13.71"/><rect class="cls-1" x="412.57" y="410.34" width="16.88" height="13.71"/><rect class="cls-1" x="64.1" y="410.34" width="16.88" height="13.71"/><path class="cls-4" d="M450.5,515.24H103.8V489.92H78.08V470.37H52.36V453.91H-3.09v-39.8H569.29v38.77h-58.1v17.49H487.53V485.8h-37ZM110,509.06H444.33V479.63h37V464.2H505V446.71h58.09V420.28H3.08v27.46H58.53V464.2H84.25v19.54H110Z"/><rect class="cls-5" y="334.9" width="566.2" height="82.29"/><polygon class="cls-6" points="566.2 356.37 527.28 356.37 527.28 369.03 516.74 369.03 516.74 381.69 492.47 381.69 492.47 392.24 469.25 392.24 469.25 374.31 458.7 374.31 458.7 369.03 437.61 369.03 437.61 362.7 418.61 362.7 418.61 378.53 409.11 378.53 409.11 401.74 398.56 401.74 398.56 378.53 381.68 378.53 381.68 357.43 370.08 357.43 370.08 386.97 332.09 386.97 332.09 358.48 297.27 358.48 297.27 379.58 278.29 379.58 278.29 390.13 254.02 390.13 254.02 376.42 245.58 376.42 245.58 382.75 221.31 382.75 221.31 348.99 199.15 348.99 199.15 365.87 166.44 365.87 166.44 377.47 118.97 377.47 118.97 407.02 97.86 407.02 97.86 365.87 70.43 365.87 70.43 380.64 34.56 380.64 34.56 401.74 0 401.74 0 417.2 27.17 417.2 27.17 424.06 44.05 424.06 44.05 417.2 93.11 417.2 93.11 428.01 110 428.01 110 417.2 128.46 417.2 128.46 425.11 145.34 425.11 145.34 417.2 178.58 417.2 178.58 424.42 195.46 424.42 195.46 417.2 244.52 417.2 244.52 428.01 261.4 428.01 261.4 417.2 278.81 417.2 278.81 424.42 295.69 424.42 295.69 417.2 340.53 417.2 340.53 428.01 357.42 428.01 357.42 417.2 387.22 417.2 387.22 428.01 404.11 428.01 404.11 417.2 438.92 417.2 438.92 428.01 455.8 428.01 455.8 417.2 501.17 417.2 501.17 419.83 518.06 419.83 518.06 417.2 566.2 417.2 566.2 356.37"/><path class="cls-4" d="M458.89,431.1H435.84V420.28H407.19V431.1H384.14V420.28H360.5V431.1H337.45V420.28H298.78v7.23H275.72v-7.23H264.49V431.1H241.43V420.28H198.54v7.23h-23v-7.23H148.43v7.92H125.38v-7.92h-12.3V431.1H90V420.28H47.14v6.86h-23v-6.86H-3.09V331.82H569.29v88.46H521.14v2.64H498.08v-2.64H458.89ZM442,424.93h10.71V414.11h51.54v2.64H515v-2.64h48.15V338H3.08v76.12H30.26V421H41v-6.86H96.2v10.82h10.71V414.11h24.64V422h10.71v-7.92h39.41v7.23h10.7v-7.23h55.24v10.82h10.71V414.11H281.9v7.23h10.7v-7.23h51v10.82h10.71V414.11h36v10.82H401V414.11h41Z"/><rect class="cls-7" x="137" y="1.7" width="292.19" height="299.51"/><rect class="cls-8" x="168.37" y="33.87" width="229.44" height="235.18"/><rect class="cls-9" x="176.49" y="245.71" width="22.73" height="23.54"/><polygon class="cls-9" points="376.97 33.87 376.97 57.41 354.24 57.41 354.24 80.95 331.52 80.95 331.52 104.49 308.79 104.49 308.79 128.03 286.07 128.03 286.07 151.55 263.34 151.55 263.34 175.09 240.61 175.09 240.61 198.63 217.89 198.63 217.89 222.17 195.16 222.17 195.16 245.71 195.16 269.25 217.89 269.25 240.61 269.25 263.34 269.25 286.07 269.25 308.79 269.25 331.52 269.25 354.24 269.25 376.97 269.25 399.7 269.25 399.7 245.71 399.7 222.17 399.7 198.63 399.7 175.09 399.7 151.55 399.7 128.03 399.7 104.49 399.7 80.95 399.7 57.41 399.7 33.87 376.97 33.87"/><rect class="cls-7" x="156.28" y="38.66" width="21.81" height="21.81"/><rect class="cls-7" x="156.28" y="22.41" width="21.81" height="38.06"/><rect class="cls-7" x="176.57" y="19.63" width="21.81" height="21.81"/><rect class="cls-7" x="387.6" y="21.03" width="21.81" height="38.04"/><rect class="cls-7" x="367.3" y="18.23" width="21.82" height="21.81"/><rect class="cls-7" x="156.53" y="241.02" width="21.81" height="38.04"/><rect class="cls-7" x="176.82" y="260.05" width="21.82" height="21.81"/><rect class="cls-7" x="387.85" y="242.42" width="21.81" height="38.04"/><rect class="cls-7" x="367.56" y="261.44" width="21.82" height="21.82"/><path class="cls-10" d="M217.85,118.27V96.55h21.73v21.72Zm43.48,87V161.8H283.1V140h21.72V96.55H239.58V74.78h87V96.55h21.76V140H326.59V161.8H304.82v43.49Zm0,43.49V227.06h43.49v21.72Z"/></svg>