<svg id="Layer_1" data-name="Layer 1" xmlns="http://www.w3.org/2000/svg" viewBox="0 0 280.11 449.63"><defs><style>.cls-1{fill:#9d5728;}.cls-2{fill:#aa5e2b;}.cls-3{fill:#864c25;}.cls-4{fill:none;stroke:#512f17;stroke-miterlimit:10;stroke-width:9.9px;}.cls-5{fill:#f2a317;}.cls-6{fill:#faf1ce;}.cls-7{fill:#1d1d1b;}.cls-8{fill:#fff;}.cls-9{fill:#fdcd00;}</style></defs><rect class="cls-1" x="6.48" y="247.02" width="268.31" height="199.43"/><polygon class="cls-2" points="274.8 329.59 250.86 329.59 250.86 267.13 151.58 267.13 151.58 293.56 67.79 293.56 67.79 336.79 6.48 336.79 6.48 380.04 80.2 380.04 80.2 446.45 120.53 446.45 120.53 358.41 179.48 358.41 179.48 401.66 222.94 401.66 222.94 372.83 274.8 372.83 274.8 329.59"/><rect class="cls-3" x="222.94" y="356.23" width="41.11" height="31.22"/><rect class="cls-3" x="150.53" y="291.52" width="41.11" height="31.23"/><rect class="cls-3" x="42.95" y="335.95" width="41.13" height="31.23"/><line class="cls-4" x1="6.48" y1="313.14" x2="274.79" y2="313.14"/><line class="cls-4" x1="6.48" y1="392.17" x2="274.79" y2="392.17"/><line class="cls-4" x1="145.18" y1="247.02" x2="145.18" y2="313.14"/><line class="cls-4" x1="145.18" y1="388.94" x2="145.18" y2="446.45"/><line class="cls-4" x1="58.97" y1="314.21" x2="58.97" y2="388.94"/><line class="cls-4" x1="225.63" y1="314.21" x2="225.63" y2="388.94"/><rect class="cls-4" x="6.48" y="247.02" width="268.31" height="199.43"/><rect class="cls-5" x="210.61" y="188.92" width="7.69" height="7.19"/><rect class="cls-5" x="218.3" y="167.37" width="7.69" height="7.17"/><rect class="cls-6" x="64.44" y="95.54" width="7.69" height="7.19"/><polygon class="cls-5" points="249.07 74 241.38 74 233.69 74 225.99 74 225.99 81.17 225.99 88.36 225.99 95.54 225.99 102.73 225.99 109.9 225.99 117.09 225.99 124.28 225.99 131.45 225.99 138.64 225.99 145.82 225.99 153 218.3 153 218.3 160.18 218.3 167.37 225.99 167.37 225.99 174.54 218.3 174.54 218.3 167.37 210.61 167.37 210.61 174.54 202.91 174.54 202.91 181.73 195.22 181.73 195.22 188.92 195.22 196.11 187.53 196.11 179.84 196.11 179.84 203.28 172.14 203.28 172.14 210.47 164.44 210.47 156.75 210.47 156.75 217.65 164.44 217.65 172.14 217.65 179.84 217.65 187.53 217.65 187.53 210.47 195.22 210.47 202.91 210.47 202.91 203.28 210.61 203.28 210.61 196.11 210.61 188.92 218.3 188.92 218.3 196.11 225.99 196.11 225.99 188.92 225.99 181.73 233.69 181.73 233.69 174.54 241.38 174.54 241.38 167.37 241.38 160.18 249.07 160.18 249.07 153 249.07 145.82 256.76 145.82 256.76 138.64 256.76 131.45 256.76 124.28 256.76 117.09 256.76 109.9 256.76 102.73 256.76 95.54 256.76 88.36 256.76 81.17 256.76 74 249.07 74"/><polygon class="cls-7" points="172.14 210.29 172.14 210.47 156.75 210.47 156.75 217.65 187.53 217.65 187.53 210.47 202.91 210.47 202.91 210.29 172.14 210.29"/><rect class="cls-8" x="210.61" y="52.45" width="7.69" height="7.17"/><path class="cls-9" d="M210.61,74V52.45h-7.7V45.26h-7.69V38.09h-7.69V30.9h-7.7V23.71h-7.69V16.53H156.75V9.34H95.21v7.19H79.82v7.18H72.13V30.9H64.44v7.19h-7.7v7.17H49.05V59.62H41.36V74H33.67v71.82h7.69v14.36h7.69v14.36h7.69v7.19h7.7v7.19h7.69v7.19h7.69v7.17H95.21v7.19h61.54v-7.19h15.39v-7.17h7.69v-7.19h7.7v-7.19h7.69v-7.19h7.69v-7.17h7.7V153h7.69V74ZM64.44,81.17V66.81h7.69V59.62h7.69V52.45h7.7V45.26h7.69V38.09h61.54v7.17h7.7v7.19h7.69v7.17h7.69v7.19h7.7V81.17h7.69v57.47h-7.69V153h-7.7v7.18h-7.69v7.19h-7.69v7.17h-7.7v7.19H95.21v-7.19H87.52v-7.17h-7.7v-7.19H72.13V153H64.44V138.64h-7.7V81.17Z"/><polygon class="cls-9" points="79.82 74 72.13 74 72.13 81.17 72.13 88.36 72.13 95.54 72.13 102.73 72.13 109.9 72.13 117.09 72.13 124.28 72.13 131.45 79.82 131.45 79.82 138.64 79.82 145.82 87.52 145.82 87.52 153 95.21 153 95.21 160.18 102.9 160.18 110.59 160.18 110.59 167.37 118.28 167.37 125.98 167.37 133.67 167.37 141.36 167.37 149.06 167.37 149.06 160.18 156.75 160.18 164.44 160.18 164.44 153 172.14 153 172.14 145.82 179.84 145.82 179.84 138.64 179.84 131.45 187.53 131.45 187.53 124.28 187.53 117.09 187.53 109.9 187.53 102.73 187.53 95.54 187.53 88.36 179.84 88.36 179.84 81.17 179.84 74 179.84 66.81 172.14 66.81 172.14 59.62 164.44 59.62 164.44 52.45 156.75 52.45 149.06 52.45 149.06 45.26 141.36 45.26 133.67 45.26 125.98 45.26 118.28 45.26 110.59 45.26 102.9 45.26 102.9 52.45 95.21 52.45 87.52 52.45 87.52 59.62 79.82 59.62 79.82 66.81 79.82 74"/><polygon class="cls-5" points="241.38 52.45 241.38 45.26 241.38 38.09 233.69 38.09 233.69 45.26 225.99 45.26 218.3 45.26 218.3 52.45 218.3 59.62 218.3 66.81 225.99 66.81 225.99 59.62 233.69 59.62 241.38 59.62 241.38 66.81 241.38 74 249.07 74 249.07 66.81 249.07 59.62 249.07 52.45 241.38 52.45"/><polygon class="cls-5" points="225.99 30.9 225.99 23.71 218.3 23.71 210.61 23.71 210.61 16.53 202.91 16.53 202.91 9.34 195.22 9.34 187.53 9.34 187.53 2.17 179.84 2.17 172.14 2.17 164.44 2.17 156.75 2.17 156.75 9.34 164.44 9.34 172.14 9.34 172.14 16.53 179.84 16.53 179.84 23.71 187.53 23.71 187.53 30.9 195.22 30.9 195.22 38.09 202.91 38.09 210.61 38.09 218.3 38.09 225.99 38.09 233.69 38.09 233.69 30.9 225.99 30.9"/><polygon class="cls-5" points="241.38 52.45 241.38 45.26 241.38 38.09 233.69 38.09 233.69 45.26 225.99 45.26 218.3 45.26 218.3 52.45 218.3 59.62 218.3 66.81 225.99 66.81 225.99 59.62 233.69 59.62 241.38 59.62 241.38 66.81 241.38 74 249.07 74 249.07 66.81 249.07 59.62 249.07 52.45 241.38 52.45"/><polygon class="cls-7" points="241.38 52.45 241.38 45.26 241.38 38.09 233.69 38.09 233.69 38.09 233.69 38.09 233.69 45.26 233.69 52.45 241.38 52.45 241.38 59.62 241.38 59.62 241.38 66.81 241.38 74 249.07 74 249.07 66.81 249.07 59.62 249.07 52.45 241.38 52.45"/><rect class="cls-7" x="202.91" y="16.53" width="7.7" height="7.19"/><polygon class="cls-7" points="210.61 30.9 218.3 30.9 225.99 30.9 225.99 23.71 218.3 23.71 210.61 23.71 210.61 30.9"/><polygon class="cls-7" points="195.22 16.53 202.91 16.53 202.91 9.34 195.22 9.34 187.53 9.34 187.53 16.53 195.22 16.53"/><rect class="cls-7" x="225.99" y="30.9" width="7.7" height="7.19"/><polygon class="cls-7" points="164.44 9.34 164.44 9.34 172.14 9.34 172.14 9.34 179.84 9.34 187.53 9.34 187.53 2.17 179.84 2.17 172.14 2.17 164.44 2.17 156.75 2.17 156.75 9.34 156.75 9.34 164.44 9.34"/><polygon class="cls-7" points="218.3 167.37 210.61 167.37 210.61 174.54 210.61 174.54 210.61 174.54 218.3 174.54 218.3 167.37"/><polygon class="cls-7" points="249.07 74 241.38 74 241.38 74 241.38 74 249.07 74 249.07 81.17 249.07 88.36 249.07 95.54 249.07 102.73 249.07 109.9 249.07 117.09 249.07 124.28 249.07 131.45 249.07 138.64 249.07 145.82 256.76 145.82 256.76 138.64 256.76 131.45 256.76 124.28 256.76 117.09 256.76 109.9 256.76 102.73 256.76 95.54 256.76 88.36 256.76 81.17 256.76 74 249.07 74"/><polygon class="cls-7" points="218.3 181.73 218.3 188.92 218.3 188.92 218.3 196.11 225.99 196.11 225.99 188.92 225.99 181.73 218.3 181.73"/><rect class="cls-7" x="225.99" y="174.54" width="7.7" height="7.19"/><polygon class="cls-7" points="241.38 145.82 241.38 153 241.38 160.18 233.69 160.18 233.69 167.37 233.69 174.54 241.38 174.54 241.38 167.37 241.38 160.18 249.07 160.18 249.07 153 249.07 145.82 241.38 145.82"/><polygon class="cls-7" points="187.53 210.47 179.84 210.47 179.84 217.65 187.53 217.65 187.53 210.47 187.53 210.47"/><polygon class="cls-7" points="210.61 196.11 210.61 188.92 202.91 188.92 202.91 196.11 202.91 203.28 210.61 203.28 210.61 196.11 210.61 196.11"/><rect class="cls-7" x="195.22" y="203.28" width="7.69" height="7.19"/><polygon class="cls-7" points="156.75 203.28 156.75 210.47 149.06 210.47 141.36 210.47 133.67 210.47 125.98 210.47 118.28 210.47 110.59 210.47 102.9 210.47 95.21 210.47 95.21 217.65 102.9 217.65 110.59 217.65 118.28 217.65 125.98 217.65 133.67 217.65 141.36 217.65 149.06 217.65 156.75 217.65 156.75 210.47 164.44 210.47 172.14 210.47 172.14 203.28 164.44 203.28 156.75 203.28"/><rect class="cls-7" x="172.14" y="196.11" width="7.69" height="7.17"/><polygon class="cls-7" points="187.53 188.92 179.84 188.92 179.84 196.11 187.53 196.11 195.22 196.11 195.22 188.92 195.22 181.73 187.53 181.73 187.53 188.92"/><rect class="cls-7" x="195.22" y="174.54" width="7.69" height="7.19"/><rect class="cls-7" x="202.91" y="167.37" width="7.7" height="7.17"/><polygon class="cls-7" points="210.61 160.18 210.61 167.37 218.3 167.37 218.3 160.18 218.3 153 210.61 153 210.61 160.18"/><polygon class="cls-7" points="218.3 81.17 218.3 88.36 218.3 95.54 218.3 102.73 218.3 109.9 218.3 117.09 218.3 124.28 218.3 131.45 218.3 138.64 218.3 145.82 218.3 153 225.99 153 225.99 145.82 225.99 138.64 225.99 131.45 225.99 124.28 225.99 117.09 225.99 109.9 225.99 102.73 225.99 95.54 225.99 88.36 225.99 81.17 218.3 81.17"/><polygon class="cls-7" points="210.61 66.81 210.61 74 218.3 74 218.3 66.81 218.3 59.62 210.61 59.62 210.61 66.81"/><rect class="cls-7" x="202.91" y="45.26" width="7.7" height="7.19"/><rect class="cls-7" x="164.45" y="160.18" width="7.7" height="7.19"/><polygon class="cls-7" points="179.84 81.17 179.84 88.36 187.53 88.36 187.53 88.36 187.53 95.54 187.53 102.73 187.53 109.9 187.53 117.09 187.53 124.28 187.53 131.45 187.53 131.45 179.84 131.45 179.84 138.64 179.84 145.82 172.14 145.82 172.14 153 172.14 160.18 179.84 160.18 179.84 153 187.53 153 187.53 145.82 187.53 138.64 195.22 138.64 195.22 131.45 195.22 124.28 195.22 117.09 195.22 109.9 195.22 102.73 195.22 95.54 195.22 88.36 195.22 81.17 187.53 81.17 187.53 81.17 187.53 74 187.53 66.81 179.84 66.81 179.84 74 179.84 81.17"/><rect class="cls-7" x="172.14" y="59.62" width="7.69" height="7.19"/><rect class="cls-7" x="164.45" y="52.45" width="7.7" height="7.17"/><rect class="cls-7" x="195.22" y="38.09" width="7.69" height="7.17"/><rect class="cls-7" x="187.53" y="30.9" width="7.69" height="7.19"/><rect class="cls-7" x="179.83" y="23.71" width="7.69" height="7.19"/><rect class="cls-7" x="172.14" y="16.53" width="7.69" height="7.19"/><polygon class="cls-7" points="156.75 16.53 164.44 16.53 172.14 16.53 172.14 9.34 164.44 9.34 156.75 9.34 156.75 16.53"/><polygon class="cls-7" points="87.52 203.28 79.82 203.28 79.82 210.47 87.52 210.47 95.21 210.47 95.21 203.28 87.52 203.28"/><rect class="cls-7" x="72.13" y="196.11" width="7.69" height="7.17"/><polygon class="cls-7" points="64.44 188.92 64.44 181.73 56.74 181.73 56.74 188.92 56.74 196.11 64.44 196.11 72.13 196.11 72.13 188.92 64.44 188.92"/><rect class="cls-7" x="49.05" y="174.54" width="7.69" height="7.19"/><polygon class="cls-7" points="102.9 181.73 110.59 181.73 118.28 181.73 125.98 181.73 133.67 181.73 141.36 181.73 149.06 181.73 156.75 181.73 156.75 174.54 164.44 174.54 164.44 167.37 156.75 167.37 149.06 167.37 149.06 174.54 141.36 174.54 133.67 174.54 125.98 174.54 118.28 174.54 110.59 174.54 102.9 174.54 102.9 167.37 95.21 167.37 87.52 167.37 87.52 174.54 95.21 174.54 95.21 181.73 102.9 181.73"/><rect class="cls-7" x="79.82" y="160.18" width="7.7" height="7.19"/><polygon class="cls-7" points="49.05 160.18 41.36 160.18 41.36 167.37 41.36 174.54 49.05 174.54 49.05 167.37 49.05 160.18"/><polygon class="cls-7" points="41.36 145.82 33.67 145.82 33.67 153 33.67 160.18 41.36 160.18 41.36 153 41.36 145.82"/><polygon class="cls-7" points="33.67 131.45 33.67 124.28 33.67 117.09 33.67 109.9 33.67 102.73 33.67 95.54 33.67 88.36 33.67 81.17 25.98 81.17 25.98 88.36 25.98 95.54 25.98 102.73 25.98 109.9 25.98 117.09 25.98 124.28 25.98 131.45 25.98 138.64 33.67 138.64 33.67 131.45"/><polygon class="cls-7" points="79.82 145.82 72.13 145.82 72.13 138.64 72.13 131.45 64.44 131.45 64.44 124.28 64.44 117.09 64.44 109.9 64.44 102.73 64.44 95.54 64.44 88.36 72.13 88.36 72.13 81.17 72.13 74 79.82 74 79.82 66.81 79.82 59.62 72.13 59.62 72.13 66.81 64.44 66.81 64.44 74 64.44 81.17 56.74 81.17 56.74 88.36 56.74 95.54 56.74 102.73 56.74 109.9 56.74 117.09 56.74 124.28 56.74 131.45 56.74 138.64 64.44 138.64 64.44 145.82 64.44 153 72.13 153 72.13 160.18 79.82 160.18 79.82 153 79.82 145.82"/><polygon class="cls-7" points="41.36 66.81 41.36 59.62 33.67 59.62 33.67 66.81 33.67 74 41.36 74 41.36 66.81"/><rect class="cls-7" x="79.82" y="52.45" width="7.7" height="7.17"/><polygon class="cls-7" points="49.05 52.45 49.05 45.26 41.36 45.26 41.36 52.45 41.36 59.62 49.05 59.62 49.05 52.45"/><polygon class="cls-7" points="102.9 52.45 102.9 45.26 110.59 45.26 118.28 45.26 125.98 45.26 133.67 45.26 141.36 45.26 149.06 45.26 149.06 52.45 156.75 52.45 164.44 52.45 164.44 45.26 156.75 45.26 156.75 38.09 149.06 38.09 141.36 38.09 133.67 38.09 125.98 38.09 118.28 38.09 110.59 38.09 102.9 38.09 95.21 38.09 95.21 45.26 87.52 45.26 87.52 52.45 95.21 52.45 102.9 52.45"/><rect class="cls-7" x="49.05" y="38.09" width="7.69" height="7.17"/><rect class="cls-7" x="56.74" y="30.9" width="7.7" height="7.19"/><rect class="cls-7" x="64.44" y="23.71" width="7.69" height="7.19"/><rect class="cls-7" x="72.13" y="16.53" width="7.69" height="7.19"/><polygon class="cls-7" points="95.21 16.53 95.21 9.34 87.52 9.34 79.82 9.34 79.82 16.53 87.52 16.53 95.21 16.53"/><polygon class="cls-7" points="110.59 9.34 118.28 9.34 125.98 9.34 133.67 9.34 141.36 9.34 149.06 9.34 156.75 9.34 156.75 2.17 149.06 2.17 141.36 2.17 133.67 2.17 125.98 2.17 118.28 2.17 110.59 2.17 102.9 2.17 95.21 2.17 95.21 9.34 102.9 9.34 110.59 9.34"/><polygon class="cls-8" points="233.69 59.62 225.99 59.62 225.99 66.81 218.3 66.81 218.3 74 218.3 81.17 225.99 81.17 225.99 74 233.69 74 241.38 74 241.38 66.81 241.38 59.62 233.69 59.62"/><polygon class="cls-8" points="225.99 38.09 218.3 38.09 210.61 38.09 202.91 38.09 202.91 45.26 210.61 45.26 210.61 52.45 218.3 52.45 218.3 45.26 225.99 45.26 233.69 45.26 233.69 38.09 225.99 38.09"/><polygon class="cls-8" points="133.67 167.37 125.98 167.37 118.28 167.37 110.59 167.37 110.59 160.18 102.9 160.18 95.21 160.18 95.21 153 87.52 153 87.52 145.82 79.82 145.82 79.82 153 79.82 160.18 87.52 160.18 87.52 167.37 95.21 167.37 102.9 167.37 102.9 174.54 110.59 174.54 118.28 174.54 125.98 174.54 133.67 174.54 141.36 174.54 149.06 174.54 149.06 167.37 141.36 167.37 133.67 167.37"/><polygon class="cls-8" points="149.06 160.18 149.06 167.37 156.75 167.37 164.44 167.37 164.44 160.18 156.75 160.18 149.06 160.18"/><rect class="cls-8" x="164.45" y="153" width="7.7" height="7.19"/><polygon class="cls-8" points="79.82 131.45 72.13 131.45 72.13 138.64 72.13 145.82 79.82 145.82 79.82 138.64 79.82 131.45"/><polygon class="cls-8" points="72.13 117.09 72.13 109.9 72.13 102.73 64.44 102.73 64.44 109.9 64.44 117.09 64.44 124.28 64.44 131.45 72.13 131.45 72.13 124.28 72.13 117.09"/><rect class="cls-8" x="64.44" y="88.36" width="7.69" height="7.19"/></svg>