<svg width="500" height="500" viewBox="0 0 500 500" fill="none" xmlns="http://www.w3.org/2000/svg">
<g clip-path="url(#clip0_2_1244)">
<path d="M3.30005 285.9L96.7 8H214.2L123.7 285.3L3.30005 285.9Z" fill="#121212"/>
<path d="M189.5 285.9L282.9 8H400.4L310 285.3L189.5 285.9Z" fill="#121212"/>
<path d="M218.3 18L160.7 191.3L186.6 270.6L247 97.9L218.3 18Z" fill="#121212"/>
<path d="M346.4 193.1L404.6 18L497.4 286.5L378.1 285.3L346.4 193.1Z" fill="#121212"/>
<path d="M77.9 492.5C63.7 492.5 49.8 490.1 36.2 485.2C22.6 480.3 10.2 472.9 -1 462.8L23.2 433.9C31.7 440.8 40.4 446.3 49.4 450.4C58.3 454.5 68.1 456.5 78.7 456.5C87.2 456.5 93.8 455 98.5 451.9C103.2 448.8 105.5 444.5 105.5 439V438.5C105.5 435.8 105 433.5 104 431.5C103 429.5 101.2 427.6 98.4 425.8C95.6 424 91.8 422.3 87 420.5C82.1 418.7 75.8 416.9 68 414.9C58.6 412.6 50.1 410 42.4 407.2C34.8 404.4 28.3 400.9 23 396.7C17.7 392.5 13.5 387.4 10.6 381.2C7.7 375 6.2 367.3 6.2 358.1V357.6C6.2 349.1 7.8 341.4 10.9 334.6C14.1 327.8 18.5 321.9 24.2 316.9C29.9 311.9 36.7 308.1 44.7 305.5C52.6 302.8 61.4 301.5 70.9 301.5C84.5 301.5 97.1 303.5 108.5 307.6C119.9 311.7 130.4 317.5 140 325.1L118.8 355.9C110.5 350.2 102.3 345.8 94.4 342.5C86.4 339.2 78.5 337.6 70.5 337.6C62.5 337.6 56.6 339.2 52.6 342.2C48.6 345.3 46.6 349.1 46.6 353.8V354.3C46.6 357.3 47.2 359.9 48.3 362.1C49.5 364.3 51.5 366.3 54.6 368.1C57.6 369.9 61.7 371.6 67 373.1C72.2 374.7 78.8 376.6 86.8 378.7C96.2 381.2 104.6 384 112 387.1C119.4 390.2 125.6 393.9 130.6 398.3C135.7 402.6 139.5 407.7 142 413.6C144.6 419.4 145.9 426.4 145.9 434.6V435.1C145.9 444.3 144.2 452.5 140.9 459.7C137.6 466.9 132.9 472.9 126.9 477.8C120.9 482.7 113.8 486.4 105.5 489C97.1 491.2 88 492.5 77.9 492.5Z" fill="#121212"/>
<path d="M247.3 493C233.7 493 221 490.5 209.3 485.6C197.6 480.6 187.5 473.9 179 465.3C170.5 456.7 163.9 446.6 159.1 434.9C154.3 423.2 151.9 410.7 151.9 397.5V397C151.9 383.7 154.3 371.3 159.1 359.7C163.9 348.1 170.5 337.9 179 329.2C187.5 320.4 197.7 313.5 209.5 308.5C221.4 303.5 234.5 300.9 248.8 300.9C257.5 300.9 265.4 301.6 272.6 303C279.8 304.4 286.3 306.4 292.1 308.8C297.9 311.3 303.3 314.3 308.3 317.8C313.3 321.3 317.9 325.2 322.1 329.5L296.1 359.5C288.8 353 281.4 347.8 273.9 344.1C266.4 340.4 257.9 338.5 248.5 338.5C240.7 338.5 233.5 340 226.9 343C220.3 346 214.6 350.2 209.8 355.5C205 360.8 201.3 367 198.6 374C195.9 381 194.6 388.5 194.6 396.4V396.9C194.6 404.9 195.9 412.4 198.6 419.5C201.3 426.6 204.9 432.8 209.6 438.1C214.3 443.4 220 447.6 226.6 450.7C233.2 453.8 240.5 455.3 248.5 455.3C259.1 455.3 268.1 453.4 275.5 449.5C282.8 445.6 290.1 440.3 297.4 433.6L323.4 459.9C318.6 465 313.7 469.6 308.5 473.7C303.4 477.8 297.7 481.3 291.6 484.2C285.5 487.1 278.8 489.3 271.6 490.8C264.5 492.2 256.3 493 247.3 493Z" fill="#121212"/>
<path d="M422 493C408.4 493 395.7 490.5 384 485.6C372.3 480.6 362.2 473.9 353.7 465.3C345.2 456.7 338.6 446.6 333.8 434.9C329 423.2 326.6 410.7 326.6 397.5V397C326.6 383.7 329 371.3 333.8 359.7C338.6 348.1 345.2 337.9 353.7 329.2C362.2 320.4 372.4 313.5 384.2 308.5C396.1 303.5 409.2 300.9 423.5 300.9C432.2 300.9 440.1 301.6 447.3 303C454.5 304.4 461 306.4 466.8 308.8C472.6 311.3 478 314.3 483 317.8C488 321.3 492.6 325.2 496.8 329.5L470.8 359.5C463.5 353 456.1 347.8 448.6 344.1C441.1 340.4 432.6 338.5 423.2 338.5C415.4 338.5 408.2 340 401.6 343C395 346 389.3 350.2 384.5 355.5C379.7 360.8 376 367 373.3 374C370.6 381 369.3 388.5 369.3 396.4V396.9C369.3 404.9 370.6 412.4 373.3 419.5C376 426.6 379.6 432.8 384.3 438.1C389 443.4 394.7 447.6 401.3 450.7C407.9 453.8 415.2 455.3 423.2 455.3C433.8 455.3 442.8 453.4 450.2 449.5C457.5 445.6 464.8 440.3 472.1 433.6L498.1 459.9C493.3 465 488.4 469.6 483.2 473.7C478.1 477.8 472.4 481.3 466.3 484.2C460.2 487.1 453.5 489.3 446.3 490.8C439.2 492.2 431 493 422 493Z" fill="#121212"/>
</g>
<defs>
<clipPath id="clip0_2_1244">
<rect width="500" height="500" fill="white"/>
</clipPath>
</defs>
</svg>
