<svg id="Layer_1" data-name="Layer 1" xmlns="http://www.w3.org/2000/svg" viewBox="0 0 572.37 522.97"><defs><style>.cls-1{fill:#7f4d2e;}.cls-2{fill:#945835;}.cls-3{fill:#a37458;}.cls-4{fill:#1d1d1b;}.cls-5{fill:#a3c254;}.cls-6{fill:#8ba748;}.cls-7{fill:#d1d3d9;}.cls-8{fill:#ecd0c6;}.cls-9{fill:#c29a8b;}.cls-10{fill:#b58675;}.cls-11{fill:#b3735e;}.cls-12{fill:#f2a289;}.cls-13{fill:#b73c6b;}.cls-14{fill:#d73b5d;}.cls-15{fill:#fdfcfb;}</style></defs><polygon class="cls-1" points="3.09 424.93 3.09 458.56 58.53 458.56 58.53 475.02 84.25 475.02 84.25 494.56 109.97 494.56 109.97 519.88 450.5 519.88 450.5 490.45 487.53 490.45 487.53 475.02 511.2 475.02 511.2 457.53 569.28 457.53 569.28 424.93 3.09 424.93"/><polygon class="cls-2" points="505.05 434.8 505.05 451.68 472.34 451.68 472.34 424.93 460.74 424.93 460.74 447.45 445.96 447.45 445.96 455.9 426.97 455.9 426.97 447.45 398.49 447.45 398.49 460.12 371.06 460.12 371.06 424.93 365.78 424.93 365.78 445.34 333.07 445.34 333.07 467.5 292.98 467.5 292.98 450.62 266.6 450.62 266.6 441.13 258.16 441.13 258.16 473.83 228.62 473.83 228.62 452.73 213.85 452.73 213.85 468.56 187.47 468.56 187.47 450.62 163.2 450.62 163.2 435.85 153.71 435.85 153.71 447.45 145.27 447.45 145.27 464.33 127.33 464.33 127.33 447.45 104.12 447.45 104.12 468.56 86.18 468.56 86.18 441.13 52.42 441.13 52.42 452.73 23.93 452.73 23.93 458.56 58.53 458.56 58.53 475.02 84.25 475.02 84.25 487.55 109.39 487.55 109.39 494.56 109.97 494.56 109.97 504.43 125.22 504.43 125.22 488.6 155.82 488.6 155.82 507.59 179.03 507.59 179.03 493.88 199.07 493.88 199.07 498.1 228.62 498.1 228.62 487.55 280.32 487.55 280.32 481.22 344.68 481.22 344.68 504.43 354.17 504.43 354.17 491.77 405.87 491.77 405.87 519.88 425.92 519.88 425.92 473.83 447.02 473.83 447.02 495.99 450.5 495.99 450.5 490.45 462.85 490.45 462.85 480.16 487.53 480.16 487.53 475.02 511.2 475.02 511.2 457.53 534.6 457.53 534.6 434.8 505.05 434.8"/><path class="cls-3" d="M525.92,442.86h5.22v-.24C529.39,442.68,527.66,442.75,525.92,442.86Z"/><rect class="cls-1" x="477.62" y="412.27" width="16.88" height="13.72"/><rect class="cls-1" x="309.86" y="412.27" width="16.88" height="13.72"/><rect class="cls-1" x="221.23" y="412.27" width="16.89" height="13.72"/><rect class="cls-1" x="153.18" y="465.55" width="13.98" height="13.72"/><rect class="cls-1" x="184.57" y="476.28" width="13.98" height="13.71"/><rect class="cls-1" x="269.85" y="457.28" width="13.98" height="13.71"/><rect class="cls-1" x="256.05" y="477.51" width="13.98" height="13.71"/><rect class="cls-1" x="308.28" y="461.68" width="13.98" height="13.71"/><rect class="cls-1" x="350.48" y="465.55" width="13.98" height="13.72"/><rect class="cls-1" x="374.22" y="472.41" width="13.98" height="13.71"/><rect class="cls-1" x="407.19" y="454.82" width="13.98" height="13.71"/><rect class="cls-1" x="443.46" y="459.57" width="13.98" height="13.71"/><polygon class="cls-1" points="511.2 457.53 513.71 457.53 513.71 454.82 499.73 454.82 499.73 468.54 511.2 468.54 511.2 457.53"/><polygon class="cls-1" points="487.53 475.02 491.6 475.02 491.6 472.41 477.62 472.41 477.62 486.12 487.53 486.12 487.53 475.02"/><rect class="cls-1" x="417.11" y="494.74" width="13.98" height="13.71"/><rect class="cls-1" x="125.22" y="479.27" width="13.98" height="13.71"/><rect class="cls-1" x="84.25" y="480.25" width="6.41" height="13.72"/><polygon class="cls-1" points="52.06 451.84 52.06 458.56 58.53 458.56 58.53 465.55 66.05 465.55 66.05 451.84 52.06 451.84"/><rect class="cls-1" x="148.43" y="412.27" width="16.88" height="13.72"/><rect class="cls-1" x="360.5" y="418.44" width="16.88" height="13.71"/><rect class="cls-1" x="415.66" y="418.07" width="16.88" height="13.71"/><rect class="cls-1" x="67.19" y="418.07" width="16.88" height="13.71"/><path class="cls-4" d="M453.59,523H106.88V497.65H81.16V478.1H55.45V461.64H0v-39.8H572.37v38.77H514.28V478.1H490.62v15.43h-37ZM113.06,516.8H447.41V487.36h37V471.93h23.66V454.44H566.2V428H6.17v27.45H61.62v16.46H87.34v19.55h25.72Z"/><rect class="cls-5" x="3.09" y="342.64" width="566.2" height="82.29"/><polygon class="cls-6" points="569.28 364.1 530.37 364.1 530.37 376.76 519.82 376.76 519.82 389.43 495.55 389.43 495.55 399.98 472.34 399.98 472.34 382.04 461.79 382.04 461.79 376.76 440.69 376.76 440.69 370.43 421.7 370.43 421.7 386.26 412.2 386.26 412.2 409.47 401.65 409.47 401.65 386.26 384.77 386.26 384.77 365.16 373.17 365.16 373.17 394.7 335.18 394.7 335.18 366.21 300.36 366.21 300.36 387.31 281.37 387.31 281.37 397.86 257.11 397.86 257.11 384.15 248.66 384.15 248.66 390.48 224.4 390.48 224.4 356.72 202.24 356.72 202.24 373.6 169.53 373.6 169.53 385.2 122.05 385.2 122.05 414.75 100.95 414.75 100.95 373.6 73.52 373.6 73.52 388.37 37.65 388.37 37.65 409.47 3.09 409.47 3.09 424.93 30.26 424.93 30.26 431.79 47.14 431.79 47.14 424.93 96.2 424.93 96.2 435.75 113.09 435.75 113.09 424.93 131.55 424.93 131.55 432.85 148.43 432.85 148.43 424.93 181.67 424.93 181.67 432.15 198.55 432.15 198.55 424.93 247.61 424.93 247.61 435.75 264.49 435.75 264.49 424.93 281.9 424.93 281.9 432.15 298.78 432.15 298.78 424.93 343.62 424.93 343.62 435.75 360.5 435.75 360.5 424.93 390.31 424.93 390.31 435.75 407.19 435.75 407.19 424.93 442.01 424.93 442.01 435.75 458.89 435.75 458.89 424.93 504.26 424.93 504.26 427.57 521.14 427.57 521.14 424.93 569.28 424.93 569.28 364.1"/><path class="cls-4" d="M462,438.83H438.92V428H410.28v10.81H387.22V428H363.59v10.81H340.53V428H301.87v7.22H278.81V428H267.58v10.81H244.52V428H201.63v7.22h-23V428H151.52v7.91H128.46V428H116.17v10.81H93.11V428H50.23v6.86H27.17V428H0V339.55H572.37V428H524.23v2.63H501.17V428H462Zm-16.89-6.17H455.8V421.84h51.55v2.64h10.7v-2.64H566.2V345.72H6.17v76.12H33.35v6.86h10.7v-6.86H99.29v10.82H110V421.84h24.63v7.92h10.71v-7.92h39.42v7.23h10.7v-7.23H250.7v10.82h10.7V421.84H285v7.23h10.7v-7.23h51v10.82h10.7V421.84h36v10.82h10.7V421.84h41Z"/><polygon class="cls-7" points="330.73 175.2 319.3 175.2 307.88 175.2 296.44 175.2 285.02 175.2 273.58 175.2 262.16 175.2 250.73 175.2 239.3 175.2 227.87 175.2 227.87 186.87 227.87 198.56 227.87 210.24 227.87 221.92 227.87 233.6 227.87 245.28 227.87 256.95 227.87 268.63 227.87 280.32 227.87 292 227.87 303.68 227.87 315.36 227.87 327.03 227.87 338.71 239.3 338.71 250.73 338.71 262.16 338.71 273.58 338.71 285.02 338.71 296.44 338.71 296.44 327.03 285.02 327.03 273.58 327.03 273.58 315.36 262.16 315.36 262.16 303.68 262.16 292 250.73 292 250.73 280.32 250.73 268.63 250.73 256.95 262.16 256.95 262.16 245.28 262.16 233.6 273.58 233.6 273.58 221.92 285.02 221.92 296.44 221.92 296.44 210.24 307.88 210.24 319.3 210.24 319.3 198.56 330.73 198.56 342.17 198.56 342.17 186.87 342.17 175.2 330.73 175.2"/><polygon class="cls-4" points="319.3 338.71 307.88 338.71 296.44 338.71 285.02 338.71 273.58 338.71 262.16 338.71 250.73 338.71 239.3 338.71 227.87 338.71 227.87 350.39 239.3 350.39 250.73 350.39 262.16 350.39 273.58 350.39 285.02 350.39 296.44 350.39 307.88 350.39 319.3 350.39 330.73 350.39 342.17 350.39 342.17 338.71 330.73 338.71 319.3 338.71"/><polygon class="cls-4" points="227.87 315.36 227.87 303.68 227.87 292 227.87 280.32 227.87 268.63 227.87 256.95 227.87 245.28 227.87 233.6 227.87 221.92 227.87 210.24 227.87 198.56 227.87 186.87 227.87 175.2 216.44 175.2 216.44 186.87 216.44 198.56 216.44 210.24 216.44 221.92 216.44 233.6 216.44 245.28 216.44 256.95 216.44 268.63 216.44 280.32 216.44 292 216.44 303.68 216.44 315.36 216.44 327.03 216.44 338.71 227.87 338.71 227.87 327.03 227.87 315.36"/><polygon class="cls-4" points="342.17 163.52 342.17 175.2 342.17 186.87 342.17 198.56 342.17 210.24 342.17 221.92 342.17 233.6 342.17 245.28 342.17 256.95 342.17 268.63 342.17 280.32 342.17 292 342.17 303.68 342.17 315.36 342.17 327.03 342.17 338.71 353.59 338.71 353.59 327.03 353.59 315.36 353.59 303.68 353.59 292 353.59 280.32 353.59 268.63 353.59 256.95 353.59 245.28 353.59 233.6 353.59 221.92 353.59 210.24 353.59 198.56 353.59 186.87 353.59 175.2 353.59 163.52 342.17 163.52"/><rect class="cls-8" x="159.3" y="151.84" width="11.42" height="11.68"/><rect class="cls-9" x="147.86" y="151.84" width="11.43" height="11.68"/><rect class="cls-10" x="307.88" y="140.16" width="11.42" height="11.68"/><rect class="cls-10" x="296.44" y="140.16" width="11.43" height="11.68"/><rect class="cls-11" x="285.02" y="140.16" width="11.42" height="11.68"/><rect class="cls-12" x="273.58" y="128.48" width="11.44" height="11.68"/><polygon class="cls-13" points="433.6 140.16 433.6 128.48 422.17 128.48 410.74 128.48 399.3 128.48 387.88 128.48 387.88 140.16 376.45 140.16 365.02 140.16 353.59 140.16 342.17 140.16 330.73 140.16 319.3 140.16 319.3 151.84 307.88 151.84 296.44 151.84 285.02 151.84 285.02 140.16 273.58 140.16 262.16 140.16 262.16 128.48 250.73 128.48 239.3 128.48 227.87 128.48 227.87 116.79 216.44 116.79 216.44 105.11 205.01 105.11 193.58 105.11 193.58 93.44 193.58 81.76 182.16 81.76 182.16 70.08 182.16 58.4 170.72 58.4 159.3 58.4 159.3 70.08 147.86 70.08 147.86 81.76 136.43 81.76 136.43 93.44 136.43 105.11 125.01 105.11 125.01 116.79 136.43 116.79 147.86 116.79 159.3 116.79 159.3 128.48 170.72 128.48 170.72 140.16 170.72 151.84 170.72 163.52 182.16 163.52 193.58 163.52 205.01 163.52 216.44 163.52 227.87 163.52 239.3 163.52 250.73 163.52 262.16 163.52 273.58 163.52 285.02 163.52 296.44 163.52 307.88 163.52 319.3 163.52 330.73 163.52 342.17 163.52 353.59 163.52 365.02 163.52 376.45 163.52 387.88 163.52 399.3 163.52 410.74 163.52 422.17 163.52 422.17 151.84 433.6 151.84 445.03 151.84 445.03 140.16 433.6 140.16"/><polygon class="cls-14" points="422.17 81.76 422.17 70.08 410.74 70.08 410.74 58.4 399.3 58.4 399.3 46.72 387.88 46.72 376.45 46.72 376.45 58.4 365.02 58.4 353.59 58.4 353.59 46.72 342.17 46.72 342.17 35.03 342.17 23.36 342.17 11.68 330.73 11.68 319.3 11.68 307.88 11.68 296.44 11.68 285.02 11.68 273.58 11.68 262.16 11.68 250.73 11.68 239.3 11.68 239.3 23.36 239.3 35.03 239.3 46.72 227.87 46.72 227.87 58.4 216.44 58.4 205.01 58.4 193.58 58.4 193.58 46.72 182.16 46.72 170.72 46.72 170.72 58.4 182.16 58.4 182.16 70.08 182.16 81.76 193.58 81.76 193.58 93.44 193.58 105.11 205.01 105.11 216.44 105.11 216.44 116.79 227.87 116.79 227.87 128.48 239.3 128.48 250.73 128.48 262.16 128.48 262.16 140.16 273.58 140.16 273.58 128.48 273.58 116.79 285.02 116.79 285.02 105.11 296.44 105.11 296.44 93.44 307.88 93.44 319.3 93.44 319.3 105.11 330.73 105.11 330.73 116.79 330.73 128.48 330.73 140.16 342.17 140.16 353.59 140.16 365.02 140.16 376.45 140.16 387.88 140.16 387.88 128.48 399.3 128.48 410.74 128.48 422.17 128.48 422.17 116.79 422.17 105.11 422.17 93.44 433.6 93.44 433.6 81.76 422.17 81.76"/><polygon class="cls-15" points="319.3 198.56 319.3 210.24 307.88 210.24 296.44 210.24 296.44 221.92 285.02 221.92 273.58 221.92 273.58 233.6 262.16 233.6 262.16 245.28 262.16 256.95 250.73 256.95 250.73 268.63 250.73 280.32 250.73 292 262.16 292 262.16 303.68 262.16 315.36 273.58 315.36 273.58 327.03 285.02 327.03 296.44 327.03 296.44 338.71 307.88 338.71 319.3 338.71 330.73 338.71 342.17 338.71 342.17 327.03 342.17 315.36 342.17 303.68 342.17 292 342.17 280.32 342.17 268.63 342.17 256.95 342.17 245.28 342.17 233.6 342.17 221.92 342.17 210.24 342.17 198.56 330.73 198.56 319.3 198.56"/><polygon class="cls-15" points="285.02 140.16 296.44 140.16 307.88 140.16 319.3 140.16 330.73 140.16 330.73 128.48 330.73 116.79 330.73 105.11 319.3 105.11 319.3 93.44 307.88 93.44 296.44 93.44 296.44 105.11 285.02 105.11 285.02 116.79 273.58 116.79 273.58 128.48 285.02 128.48 285.02 140.16"/><polygon class="cls-15" points="159.3 116.79 147.86 116.79 136.43 116.79 125.01 116.79 125.01 128.48 125.01 140.16 125.01 151.84 136.43 151.84 147.86 151.84 159.3 151.84 170.72 151.84 170.72 140.16 170.72 128.48 159.3 128.48 159.3 116.79"/><polygon class="cls-15" points="433.6 93.44 422.17 93.44 422.17 105.11 422.17 116.79 422.17 128.48 433.6 128.48 433.6 140.16 445.03 140.16 445.03 128.48 445.03 116.79 445.03 105.11 445.03 93.44 433.6 93.44"/><polygon class="cls-15" points="365.02 35.03 365.02 23.36 353.59 23.36 353.59 11.68 342.17 11.68 342.17 23.36 342.17 35.03 342.17 46.72 353.59 46.72 353.59 58.4 365.02 58.4 376.45 58.4 376.45 46.72 387.88 46.72 387.88 35.03 376.45 35.03 365.02 35.03"/><polygon class="cls-15" points="216.44 11.68 216.44 23.36 205.01 23.36 193.58 23.36 193.58 35.03 182.16 35.03 182.16 46.72 193.58 46.72 193.58 58.4 205.01 58.4 216.44 58.4 227.87 58.4 227.87 46.72 239.3 46.72 239.3 35.03 239.3 23.36 239.3 11.68 227.87 11.68 216.44 11.68"/><polygon class="cls-4" points="113.57 116.79 113.57 128.48 113.57 140.16 113.57 151.84 113.57 163.52 125.01 163.52 125.01 175.2 136.43 175.2 147.86 175.2 159.3 175.2 170.72 175.2 182.16 175.2 193.58 175.2 205.01 175.2 216.44 175.2 227.87 175.2 239.3 175.2 250.73 175.2 262.16 175.2 273.58 175.2 285.02 175.2 296.44 175.2 307.88 175.2 319.3 175.2 330.73 175.2 342.17 175.2 342.17 163.52 330.73 163.52 319.3 163.52 307.88 163.52 296.44 163.52 285.02 163.52 273.58 163.52 262.16 163.52 250.73 163.52 239.3 163.52 227.87 163.52 227.87 163.52 216.44 163.52 205.01 163.52 193.58 163.52 182.16 163.52 170.72 163.52 159.3 163.52 147.86 163.52 147.86 151.84 136.43 151.84 125.01 151.84 125.01 140.16 125.01 128.48 125.01 116.79 125.01 105.11 113.57 105.11 113.57 116.79"/><polygon class="cls-4" points="445.03 93.44 445.03 105.11 445.03 116.79 445.03 128.48 445.03 140.16 445.03 151.84 433.6 151.84 422.17 151.84 422.17 163.52 410.74 163.52 399.3 163.52 387.88 163.52 376.45 163.52 365.02 163.52 353.59 163.52 353.59 175.2 365.02 175.2 376.45 175.2 387.88 175.2 399.3 175.2 410.74 175.2 422.17 175.2 433.6 175.2 445.03 175.2 445.03 163.52 456.45 163.52 456.45 151.84 456.45 140.16 456.45 128.48 456.45 116.79 456.45 105.11 456.45 93.44 445.03 93.44"/><rect class="cls-4" x="433.59" y="81.76" width="11.43" height="11.68"/><polygon class="cls-4" points="125.01 93.44 125.01 105.11 136.43 105.11 136.43 93.44 136.43 81.76 125.01 81.76 125.01 93.44"/><rect class="cls-4" x="422.17" y="70.08" width="11.42" height="11.68"/><rect class="cls-4" x="136.43" y="70.08" width="11.44" height="11.68"/><rect class="cls-4" x="410.74" y="58.4" width="11.43" height="11.68"/><rect class="cls-4" x="147.86" y="58.4" width="11.43" height="11.68"/><rect class="cls-4" x="399.3" y="46.71" width="11.44" height="11.68"/><rect class="cls-4" x="159.3" y="46.71" width="11.42" height="11.68"/><rect class="cls-4" x="387.88" y="35.03" width="11.42" height="11.68"/><rect class="cls-4" x="170.72" y="35.03" width="11.43" height="11.68"/><polygon class="cls-4" points="376.45 23.36 365.02 23.36 365.02 35.03 376.45 35.03 387.88 35.03 387.88 23.36 376.45 23.36"/><rect class="cls-4" x="182.16" y="23.36" width="11.42" height="11.67"/><rect class="cls-4" x="353.59" y="11.68" width="11.43" height="11.68"/><polygon class="cls-4" points="193.58 11.68 193.58 23.36 205.01 23.36 216.44 23.36 216.44 11.68 205.01 11.68 193.58 11.68"/><polygon class="cls-4" points="342.17 0 330.73 0 319.3 0 307.88 0 296.44 0 285.02 0 273.58 0 262.16 0 250.73 0 239.3 0 227.87 0 216.44 0 216.44 11.68 227.87 11.68 239.3 11.68 250.73 11.68 262.16 11.68 273.58 11.68 285.02 11.68 296.44 11.68 307.88 11.68 319.3 11.68 330.73 11.68 342.17 11.68 353.59 11.68 353.59 0 342.17 0"/></svg>