<svg id="Layer_1" data-name="Layer 1" xmlns="http://www.w3.org/2000/svg" viewBox="0 0 572.37 806.94"><defs><style>.cls-1{fill:#7f4d2e;}.cls-2{fill:#945835;}.cls-3{fill:#a37458;}.cls-4{fill:#1d1d1b;}.cls-5{fill:#a3c254;}.cls-6{fill:#8ba748;}.cls-7{fill:#f7c804;}.cls-8{fill:#fff;}.cls-9{fill:#eaa71e;}.cls-10{fill:#e68f21;}.cls-11{fill:#75b240;}.cls-12{fill:#36953e;}.cls-13{fill:#76b240;}.cls-14{fill:#73b040;}.cls-15{fill:#a1c14c;}.cls-16{fill:#62a83a;}.cls-17{fill:#68ab3d;}.cls-18{fill:#a6c34e;}.cls-19{fill:#6faf3f;}.cls-20{fill:#489c3d;}.cls-21{fill:#9abf47;}.cls-22{fill:#65a93b;}.cls-23{fill:#24883c;}.cls-24{fill:#87b941;}.cls-25{fill:#b7cc5b;}</style></defs><polygon class="cls-1" points="3.09 710.65 3.09 744.28 58.53 744.28 58.53 760.74 84.25 760.74 84.25 780.29 109.97 780.29 109.97 805.61 450.5 805.61 450.5 776.17 487.53 776.17 487.53 760.74 511.2 760.74 511.2 743.25 569.28 743.25 569.28 710.65 3.09 710.65"/><polygon class="cls-2" points="505.05 720.52 505.05 737.4 472.34 737.4 472.34 710.65 460.74 710.65 460.74 733.18 445.96 733.18 445.96 741.62 426.97 741.62 426.97 733.18 398.49 733.18 398.49 745.84 371.06 745.84 371.06 710.65 365.78 710.65 365.78 731.07 333.07 731.07 333.07 753.22 292.98 753.22 292.98 736.34 266.6 736.34 266.6 726.85 258.16 726.85 258.16 759.55 228.62 759.55 228.62 738.46 213.85 738.46 213.85 754.28 187.47 754.28 187.47 736.34 163.2 736.34 163.2 721.57 153.71 721.57 153.71 733.18 145.27 733.18 145.27 750.06 127.33 750.06 127.33 733.18 104.12 733.18 104.12 754.28 86.18 754.28 86.18 726.85 52.42 726.85 52.42 738.46 23.93 738.46 23.93 744.28 58.53 744.28 58.53 760.74 84.25 760.74 84.25 773.27 109.39 773.27 109.39 780.29 109.97 780.29 109.97 790.15 125.22 790.15 125.22 774.33 155.82 774.33 155.82 793.32 179.03 793.32 179.03 779.6 199.07 779.6 199.07 783.82 228.62 783.82 228.62 773.27 280.32 773.27 280.32 766.94 344.68 766.94 344.68 790.15 354.17 790.15 354.17 777.49 405.87 777.49 405.87 805.61 425.92 805.61 425.92 759.55 447.02 759.55 447.02 781.71 450.5 781.71 450.5 776.17 462.85 776.17 462.85 765.88 487.53 765.88 487.53 760.74 511.2 760.74 511.2 743.25 534.6 743.25 534.6 720.52 505.05 720.52"/><path class="cls-3" d="M525.92,728.59h5.22v-.25C529.39,728.4,527.66,728.48,525.92,728.59Z"/><rect class="cls-1" x="477.62" y="697.99" width="16.88" height="13.72"/><rect class="cls-1" x="309.86" y="697.99" width="16.88" height="13.72"/><rect class="cls-1" x="221.23" y="697.99" width="16.89" height="13.72"/><rect class="cls-1" x="153.18" y="751.27" width="13.98" height="13.72"/><rect class="cls-1" x="184.57" y="762" width="13.98" height="13.71"/><rect class="cls-1" x="269.85" y="743.01" width="13.98" height="13.71"/><rect class="cls-1" x="256.05" y="763.23" width="13.98" height="13.71"/><rect class="cls-1" x="308.28" y="747.4" width="13.98" height="13.71"/><rect class="cls-1" x="350.48" y="751.27" width="13.98" height="13.72"/><rect class="cls-1" x="374.22" y="758.13" width="13.98" height="13.71"/><rect class="cls-1" x="407.19" y="740.55" width="13.98" height="13.71"/><rect class="cls-1" x="443.46" y="745.29" width="13.98" height="13.71"/><polygon class="cls-1" points="511.2 743.25 513.71 743.25 513.71 740.55 499.73 740.55 499.73 754.26 511.2 754.26 511.2 743.25"/><polygon class="cls-1" points="487.53 760.74 491.6 760.74 491.6 758.13 477.62 758.13 477.62 771.85 487.53 771.85 487.53 760.74"/><rect class="cls-1" x="417.11" y="780.46" width="13.98" height="13.71"/><rect class="cls-1" x="125.22" y="764.99" width="13.98" height="13.71"/><rect class="cls-1" x="84.25" y="765.98" width="6.41" height="13.72"/><polygon class="cls-1" points="52.06 737.56 52.06 744.28 58.53 744.28 58.53 751.27 66.05 751.27 66.05 737.56 52.06 737.56"/><rect class="cls-1" x="148.43" y="697.99" width="16.88" height="13.72"/><rect class="cls-1" x="360.5" y="704.16" width="16.88" height="13.71"/><rect class="cls-1" x="415.66" y="703.8" width="16.88" height="13.71"/><rect class="cls-1" x="67.19" y="703.8" width="16.88" height="13.71"/><path class="cls-4" d="M453.59,808.7H106.88V783.37H81.16V763.83H55.45V747.37H0v-39.8H572.37v38.77H514.28v17.49H490.62v15.43h-37Zm-340.53-6.18H447.41V773.09h37V757.66h23.66V740.17H566.2V713.74H6.17v27.45H61.62v16.47H87.34V777.2h25.72Z"/><rect class="cls-5" x="3.09" y="628.36" width="566.2" height="82.29"/><polygon class="cls-6" points="569.28 649.82 530.37 649.82 530.37 662.49 519.82 662.49 519.82 675.15 495.55 675.15 495.55 685.7 472.34 685.7 472.34 667.76 461.79 667.76 461.79 662.49 440.69 662.49 440.69 656.16 421.7 656.16 421.7 671.98 412.2 671.98 412.2 695.2 401.65 695.2 401.65 671.98 384.77 671.98 384.77 650.88 373.17 650.88 373.17 680.42 335.18 680.42 335.18 651.94 300.36 651.94 300.36 673.04 281.37 673.04 281.37 683.59 257.11 683.59 257.11 669.87 248.66 669.87 248.66 676.2 224.4 676.2 224.4 642.44 202.24 642.44 202.24 659.32 169.53 659.32 169.53 670.93 122.05 670.93 122.05 700.47 100.95 700.47 100.95 659.32 73.52 659.32 73.52 674.09 37.65 674.09 37.65 695.2 3.09 695.2 3.09 710.65 30.26 710.65 30.26 717.51 47.14 717.51 47.14 710.65 96.2 710.65 96.2 721.47 113.09 721.47 113.09 710.65 131.55 710.65 131.55 718.57 148.43 718.57 148.43 710.65 181.67 710.65 181.67 717.88 198.55 717.88 198.55 710.65 247.61 710.65 247.61 721.47 264.49 721.47 264.49 710.65 281.9 710.65 281.9 717.88 298.78 717.88 298.78 710.65 343.62 710.65 343.62 721.47 360.5 721.47 360.5 710.65 390.31 710.65 390.31 721.47 407.19 721.47 407.19 710.65 442.01 710.65 442.01 721.47 458.89 721.47 458.89 710.65 504.26 710.65 504.26 713.29 521.14 713.29 521.14 710.65 569.28 710.65 569.28 649.82"/><path class="cls-4" d="M462,724.55H438.92V713.74H410.28v10.81H387.22V713.74H363.59v10.81H340.53V713.74H301.87V721H278.81v-7.23H267.58v10.81H244.52V713.74H201.63V721h-23v-7.23H151.52v7.91H128.46v-7.91H116.17v10.81H93.11V713.74H50.23v6.86H27.17v-6.86H0V625.28H572.37v88.46H524.23v2.64H501.17v-2.64H462Zm-16.89-6.17H455.8V707.57h51.55v2.64h10.7v-2.64H566.2V631.45H6.17v76.12H33.35v6.85h10.7v-6.85H99.29v10.81H110V707.57h24.63v7.91h10.71v-7.91h39.42v7.22h10.7v-7.22H250.7v10.81h10.7V707.57H285v7.22h10.7v-7.22h51v10.81h10.7V707.57h36v10.81h10.7V707.57h41Z"/><rect class="cls-7" x="345.22" y="69.78" width="7.34" height="6.97"/><polygon class="cls-7" points="301.18 69.74 308.52 69.74 315.86 69.74 323.2 69.74 330.54 69.74 337.88 69.74 345.22 69.74 345.22 62.76 337.88 62.76 330.54 62.76 323.2 62.76 315.86 62.76 308.52 62.76 308.52 55.79 301.18 55.79 301.18 62.76 301.18 69.74"/><rect class="cls-4" x="323.39" y="62.76" width="21.83" height="6.97"/><polygon class="cls-7" points="301.18 41.84 293.84 41.84 293.84 48.81 293.84 55.79 301.18 55.79 301.18 48.81 301.18 41.84"/><polygon class="cls-7" points="293.84 27.89 286.51 27.89 286.51 20.92 286.51 13.95 279.16 13.95 279.16 20.92 279.16 27.89 279.16 34.87 271.83 34.87 271.83 41.84 271.83 48.81 271.83 55.79 264.49 55.79 264.49 62.76 264.49 69.74 257.15 69.74 249.81 69.74 242.47 69.74 235.13 69.74 227.79 69.74 227.79 76.71 227.79 83.68 235.13 83.68 235.13 90.66 242.47 90.66 242.47 97.63 249.81 97.63 249.81 104.6 249.81 111.58 249.81 118.55 249.81 125.53 249.81 132.5 249.81 139.47 257.15 139.47 264.49 139.47 264.49 132.5 271.83 132.5 279.16 132.5 279.16 125.53 286.51 125.53 293.84 125.53 293.84 132.5 301.18 132.5 301.18 139.47 308.52 139.47 308.52 146.45 315.86 146.45 315.86 153.42 323.2 153.42 323.2 160.39 330.54 160.39 330.54 153.42 330.54 146.45 330.54 139.47 323.2 139.47 323.2 132.5 323.2 125.53 323.2 118.55 323.2 111.58 315.86 111.58 315.86 104.6 315.86 97.63 323.2 97.63 330.54 97.63 330.54 90.66 337.88 90.66 337.88 83.68 345.22 83.68 345.22 76.71 337.88 76.71 330.54 76.71 323.2 76.71 315.86 76.71 315.86 83.68 308.52 83.68 301.18 83.68 293.84 83.68 293.84 76.71 293.84 69.74 293.84 62.76 286.51 62.76 286.51 55.79 286.51 48.81 286.51 41.84 293.84 41.84 293.84 34.87 293.84 27.89"/><polygon class="cls-4" points="235.13 160.39 235.13 153.42 235.13 146.45 235.13 139.47 227.79 139.47 227.79 146.45 227.79 153.42 227.79 160.39 227.79 167.37 227.79 174.34 235.13 174.34 235.13 167.37 242.47 167.37 249.81 167.37 249.81 160.39 242.47 160.39 235.13 160.39"/><rect class="cls-4" x="308.52" y="153.42" width="7.34" height="6.97"/><rect class="cls-4" x="249.81" y="153.42" width="7.34" height="6.97"/><polygon class="cls-4" points="330.54 153.42 330.54 160.39 323.2 160.39 315.86 160.39 315.86 167.37 323.2 167.37 330.54 167.37 330.54 174.34 337.88 174.34 337.88 167.37 337.88 160.39 337.88 153.42 337.88 146.45 330.54 146.45 330.54 153.42"/><polygon class="cls-4" points="301.18 146.45 293.84 146.45 293.84 153.42 301.18 153.42 308.52 153.42 308.52 146.45 301.18 146.45"/><polygon class="cls-4" points="257.15 146.45 257.15 153.42 264.49 153.42 271.83 153.42 271.83 146.45 264.49 146.45 257.15 146.45"/><polygon class="cls-4" points="286.51 139.47 279.16 139.47 271.83 139.47 271.83 146.45 279.16 146.45 286.51 146.45 293.84 146.45 293.84 139.47 286.51 139.47"/><polygon class="cls-4" points="242.47 132.5 242.47 125.53 242.47 118.55 242.47 111.58 242.47 104.6 235.13 104.6 235.13 111.58 235.13 118.55 235.13 125.53 235.13 132.5 235.13 139.47 242.47 139.47 242.47 132.5"/><polygon class="cls-4" points="323.2 111.58 323.2 118.55 323.2 125.53 330.54 125.53 330.54 118.55 330.54 111.58 330.54 104.6 323.2 104.6 323.2 111.58"/><rect class="cls-4" x="330.54" y="97.63" width="7.34" height="6.97"/><rect class="cls-4" x="227.79" y="97.63" width="7.34" height="6.97"/><rect class="cls-4" x="337.88" y="90.66" width="7.34" height="6.97"/><rect class="cls-4" x="220.46" y="90.66" width="7.34" height="6.97"/><rect class="cls-4" x="345.22" y="83.68" width="7.34" height="6.97"/><rect class="cls-4" x="213.11" y="83.68" width="7.34" height="6.97"/><rect class="cls-4" x="352.56" y="76.71" width="7.34" height="6.97"/><rect class="cls-4" x="205.77" y="76.71" width="7.34" height="6.97"/><polygon class="cls-4" points="367.24 62.76 359.89 62.76 352.56 62.76 345.22 62.76 345.22 69.74 352.56 69.74 359.89 69.74 359.89 76.71 367.24 76.71 367.24 69.74 374.57 69.74 374.57 62.76 367.24 62.76"/><polygon class="cls-4" points="213.11 69.74 220.46 69.74 227.79 69.74 235.13 69.74 242.47 69.74 242.47 62.76 235.13 62.76 227.79 62.76 220.46 62.76 213.11 62.76 205.77 62.76 198.44 62.76 191.09 62.76 191.09 69.74 198.44 69.74 198.44 76.71 205.77 76.71 205.77 69.74 213.11 69.74"/><polygon class="cls-4" points="315.86 62.76 323.2 62.76 323.2 55.79 315.86 55.79 308.52 55.79 308.52 62.76 315.86 62.76"/><polygon class="cls-4" points="257.15 62.76 257.15 55.79 249.81 55.79 242.47 55.79 242.47 62.76 249.81 62.76 257.15 62.76"/><polygon class="cls-4" points="264.49 48.81 264.49 41.84 257.15 41.84 257.15 48.81 257.15 55.79 264.49 55.79 264.49 48.81"/><polygon class="cls-4" points="308.52 41.84 301.18 41.84 301.18 48.81 301.18 55.79 308.52 55.79 308.52 48.81 308.52 41.84"/><polygon class="cls-4" points="271.83 34.87 271.83 27.89 264.49 27.89 264.49 34.87 264.49 41.84 271.83 41.84 271.83 34.87"/><rect class="cls-4" x="293.84" y="27.89" width="7.34" height="6.97"/><polygon class="cls-4" points="293.84 13.95 286.51 13.95 286.51 20.92 286.51 27.89 293.84 27.89 293.84 20.92 293.84 13.95"/><rect class="cls-4" x="271.83" y="13.95" width="7.34" height="6.97"/><rect class="cls-4" x="279.16" width="7.34" height="6.97"/><polygon class="cls-8" points="345.22 69.74 337.88 69.74 330.54 69.74 323.2 69.74 315.86 69.74 308.52 69.74 301.18 69.74 301.18 62.76 301.18 55.79 293.84 55.79 293.84 48.81 293.84 41.84 286.51 41.84 286.51 48.81 286.51 55.79 286.51 62.76 293.84 62.76 293.84 69.74 293.84 76.71 293.84 83.68 301.18 83.68 308.52 83.68 308.52 83.68 315.86 83.68 315.86 76.71 315.86 76.71 323.2 76.71 330.54 76.71 337.88 76.71 345.22 76.71 352.56 76.71 352.56 69.74 345.22 69.74"/><rect class="cls-9" x="315.86" y="153.42" width="7.34" height="6.97"/><rect class="cls-9" x="308.52" y="146.45" width="7.34" height="6.97"/><rect class="cls-4" x="330.54" y="139.47" width="7.34" height="6.97"/><polygon class="cls-10" points="301.18 139.47 301.18 132.5 293.84 132.5 293.84 125.53 286.51 125.53 279.16 125.53 279.16 132.5 271.83 132.5 264.49 132.5 264.49 139.47 257.15 139.47 249.81 139.47 249.81 132.5 249.81 125.53 249.81 118.55 249.81 111.58 249.81 104.6 249.81 97.63 242.47 97.63 242.47 90.66 235.13 90.66 235.13 83.68 227.79 83.68 227.79 76.71 227.79 69.74 220.46 69.74 213.11 69.74 205.77 69.74 205.77 76.71 213.11 76.71 213.11 83.68 220.46 83.68 220.46 90.66 227.79 90.66 227.79 97.63 235.13 97.63 235.13 104.6 242.47 104.6 242.47 111.58 242.47 118.55 242.47 125.53 242.47 132.5 242.47 139.47 235.13 139.47 235.13 146.45 235.13 153.42 235.13 160.39 242.47 160.39 249.81 160.39 249.81 153.42 257.15 153.42 257.15 146.45 264.49 146.45 271.83 146.45 271.83 139.47 279.16 139.47 286.51 139.47 293.84 139.47 293.84 146.45 301.18 146.45 308.52 146.45 308.52 139.47 301.18 139.47"/><polygon class="cls-4" points="330.54 125.53 323.2 125.53 323.2 132.5 323.2 139.47 330.54 139.47 330.54 132.5 330.54 125.53"/><polygon class="cls-9" points="315.86 97.63 315.86 104.6 315.86 111.58 323.2 111.58 323.2 104.6 330.54 104.6 330.54 97.63 323.2 97.63 315.86 97.63"/><rect class="cls-9" x="330.54" y="90.66" width="7.34" height="6.97"/><rect class="cls-9" x="337.88" y="83.68" width="7.34" height="6.97"/><polygon class="cls-9" points="352.56 69.74 345.22 69.74 345.22 76.71 345.22 83.68 352.56 83.68 352.56 76.71 359.89 76.71 359.89 69.74 352.56 69.74"/><polygon class="cls-9" points="257.15 69.74 264.49 69.74 264.49 62.76 264.49 55.79 257.15 55.79 257.15 62.76 249.81 62.76 242.47 62.76 242.47 69.74 249.81 69.74 257.15 69.74"/><polygon class="cls-9" points="271.83 48.81 271.83 41.84 264.49 41.84 264.49 48.81 264.49 55.79 271.83 55.79 271.83 48.81"/><rect class="cls-4" x="293.84" y="34.87" width="7.34" height="6.97"/><polygon class="cls-4" points="279.16 27.89 279.16 20.92 271.83 20.92 271.83 27.89 271.83 34.87 279.16 34.87 279.16 27.89"/><rect class="cls-4" x="279.16" y="6.97" width="7.34" height="6.97"/><rect class="cls-11" x="298.69" y="222.26" width="5.29" height="13.7"/><rect class="cls-12" x="261.7" y="235.96" width="5.29" height="13.7"/><rect class="cls-13" x="182.44" y="290.75" width="5.28" height="13.7"/><rect class="cls-14" x="161.3" y="318.15" width="5.28" height="13.7"/><rect class="cls-15" x="356.81" y="359.24" width="5.29" height="13.7"/><rect class="cls-16" x="303.97" y="386.64" width="5.28" height="13.7"/><rect class="cls-17" x="288.12" y="414.03" width="5.29" height="13.7"/><rect class="cls-18" x="346.25" y="441.43" width="5.29" height="13.7"/><rect class="cls-19" x="261.7" y="468.83" width="5.29" height="13.7"/><rect class="cls-20" x="256.42" y="482.52" width="5.28" height="13.7"/><rect class="cls-21" x="330.39" y="578.41" width="5.28" height="13.7"/><rect class="cls-22" x="224.71" y="592.11" width="5.29" height="13.7"/><polygon class="cls-23" points="166.58 318.14 171.87 318.14 171.87 304.45 177.15 304.45 182.44 304.45 182.44 290.75 187.72 290.75 193 290.75 198.29 290.75 198.29 277.05 203.57 277.05 208.86 277.05 214.14 277.05 219.42 277.05 219.42 263.35 224.71 263.35 230 263.35 235.28 263.35 240.56 263.35 240.56 249.65 245.85 249.65 251.13 249.65 256.42 249.65 261.7 249.65 261.7 235.96 266.98 235.96 272.27 235.96 277.55 235.96 282.83 235.96 288.12 235.96 293.4 235.96 298.69 235.96 298.69 222.26 293.4 222.26 288.12 222.26 282.83 222.26 277.55 222.26 272.27 222.26 266.98 222.26 261.7 222.26 256.42 222.26 251.13 222.26 245.85 222.26 240.56 222.26 235.28 222.26 230 222.26 224.71 222.26 219.42 222.26 214.14 222.26 208.86 222.26 203.57 222.26 198.29 222.26 193 222.26 187.72 222.26 182.44 222.26 177.15 222.26 171.87 222.26 166.58 222.26 161.3 222.26 161.3 235.96 161.3 249.65 161.3 263.35 161.3 277.05 161.3 290.75 161.3 304.45 161.3 318.14 166.58 318.14"/><polygon class="cls-23" points="219.42 624.86 219.42 619.5 224.71 619.5 224.71 592.11 230 592.11 230 578.41 235.28 578.41 235.28 564.71 240.56 564.71 240.56 537.32 245.85 537.32 245.85 523.62 251.13 523.62 251.13 509.92 256.41 509.92 256.41 482.52 261.7 482.52 261.7 468.82 272.27 468.82 272.27 455.13 277.55 455.13 277.55 441.43 282.83 441.43 282.83 427.73 288.12 427.73 288.12 414.03 298.69 414.03 298.69 400.33 303.97 400.33 303.97 386.64 314.54 386.64 314.54 372.94 325.11 372.94 325.11 359.24 198.29 359.24 198.29 624.86 219.42 624.86"/><polygon class="cls-24" points="166.58 345.54 171.87 345.54 177.15 345.54 182.44 345.54 187.72 345.54 193 345.54 198.29 345.54 203.57 345.54 208.86 345.54 214.14 345.54 219.42 345.54 224.71 345.54 230 345.54 235.28 345.54 235.28 331.84 240.56 331.84 240.56 318.14 245.85 318.14 251.13 318.14 256.42 318.14 261.7 318.14 266.98 318.14 272.27 318.14 277.55 318.14 282.83 318.14 288.12 318.14 293.4 318.14 298.69 318.14 303.97 318.14 309.25 318.14 314.54 318.14 319.82 318.14 325.11 318.14 330.39 318.14 335.68 318.14 340.96 318.14 346.25 318.14 351.53 318.14 356.81 318.14 362.1 318.14 367.38 318.14 372.67 318.14 377.95 318.14 383.23 318.14 383.23 304.45 383.23 290.75 383.23 277.05 383.23 263.35 383.23 249.65 383.23 235.96 383.23 222.26 377.95 222.26 372.67 222.26 367.38 222.26 362.1 222.26 356.81 222.26 351.53 222.26 346.25 222.26 340.96 222.26 335.68 222.26 330.39 222.26 325.11 222.26 319.82 222.26 314.54 222.26 309.25 222.26 303.97 222.26 303.97 235.96 298.69 235.96 293.4 235.96 288.12 235.96 282.83 235.96 277.55 235.96 272.27 235.96 266.98 235.96 266.98 249.65 261.7 249.65 256.42 249.65 251.13 249.65 245.85 249.65 240.56 249.65 240.56 263.35 235.28 263.35 230 263.35 224.71 263.35 219.42 263.35 219.42 277.05 214.14 277.05 208.86 277.05 203.57 277.05 198.29 277.05 198.29 290.75 193 290.75 187.72 290.75 187.72 304.45 182.44 304.45 177.15 304.45 171.87 304.45 171.87 318.14 166.58 318.14 166.58 331.84 161.3 331.84 161.3 345.54 166.58 345.54"/><polygon class="cls-24" points="330.39 624.86 330.39 578.41 335.68 578.41 335.68 551.01 340.96 551.01 340.96 496.22 346.25 496.22 346.25 441.43 351.53 441.43 351.53 414.03 356.81 414.03 356.81 359.24 325.11 359.24 325.11 372.94 314.54 372.94 314.54 386.64 309.25 386.64 309.25 400.33 298.69 400.33 298.69 414.03 293.4 414.03 293.4 427.73 282.83 427.73 282.83 441.43 277.55 441.43 277.55 455.13 272.27 455.13 272.27 468.82 266.98 468.82 266.98 482.52 261.7 482.52 261.7 496.22 256.41 496.22 256.41 509.92 251.13 509.92 251.13 523.62 245.85 523.62 245.85 537.32 240.56 537.32 240.56 564.71 235.28 564.71 235.28 578.41 230 578.41 230 605.81 224.71 605.81 224.71 619.5 219.42 619.5 219.42 624.86 330.39 624.86"/><polygon class="cls-25" points="240.56 345.54 245.85 345.54 251.13 345.54 256.42 345.54 261.7 345.54 266.98 345.54 272.27 345.54 277.55 345.54 282.83 345.54 288.12 345.54 293.4 345.54 298.69 345.54 303.97 345.54 309.25 345.54 314.54 345.54 319.82 345.54 325.11 345.54 330.39 345.54 335.68 345.54 340.96 345.54 346.25 345.54 351.53 345.54 356.81 345.54 362.1 345.54 367.38 345.54 372.67 345.54 377.95 345.54 383.23 345.54 388.52 345.54 393.8 345.54 399.09 345.54 404.37 345.54 404.37 331.84 404.37 318.14 404.37 304.45 404.37 290.75 404.37 277.05 404.37 263.35 404.37 249.65 404.37 235.96 404.37 222.26 399.09 222.26 393.8 222.26 388.52 222.26 383.23 222.26 383.23 235.96 383.23 249.65 383.23 263.35 383.23 277.05 383.23 290.75 383.23 304.45 383.23 318.14 377.95 318.14 372.67 318.14 367.38 318.14 362.1 318.14 356.81 318.14 351.53 318.14 346.25 318.14 340.96 318.14 335.68 318.14 330.39 318.14 325.11 318.14 319.82 318.14 314.54 318.14 309.25 318.14 303.97 318.14 298.69 318.14 293.4 318.14 288.12 318.14 282.83 318.14 277.55 318.14 272.27 318.14 266.98 318.14 261.7 318.14 256.42 318.14 251.13 318.14 245.85 318.14 240.56 318.14 240.56 331.84 235.28 331.84 235.28 345.54 240.56 345.54"/><polygon class="cls-25" points="362.1 624.86 362.1 372.94 356.81 372.94 356.81 414.03 351.53 414.03 351.53 455.13 346.25 455.13 346.25 496.22 340.96 496.22 340.96 551.01 335.68 551.01 335.68 592.11 330.39 592.11 330.39 624.86 362.1 624.86"/><path class="cls-4" d="M187.72,359.24V624.86h10.57V359.24H362.1V624.86h10.56V359.24h42.28V208.56H150.73V359.24Zm-26.42-137H404.37V345.54H161.3Z"/></svg>