<?xml version="1.0" encoding="utf-8"?>
<!-- Generator: Adobe Illustrator 16.0.0, SVG Export Plug-In . SVG Version: 6.00 Build 0)  -->
<!DOCTYPE svg PUBLIC "-//W3C//DTD SVG 1.1//EN" "http://www.w3.org/Graphics/SVG/1.1/DTD/svg11.dtd">
<svg version="1.1" id="Layer_2" xmlns="http://www.w3.org/2000/svg" xmlns:xlink="http://www.w3.org/1999/xlink" x="0px" y="0px"
	 width="432px" height="144px" viewBox="0 0 432 144" enable-background="new 0 0 432 144" xml:space="preserve">
<g>
	<path fill="#4468C0" d="M122.383,65.643c2.097-1.158,4.461-1.744,6.856-1.701c2.012-0.014,3.999,0.442,5.806,1.328
		c1.802,0.877,3.331,2.226,4.423,3.906l3.548-2.404c-1.344-2.235-3.304-4.035-5.646-5.182c-2.54-1.216-5.33-1.82-8.144-1.766
		c-3.243-0.053-6.446,0.73-9.3,2.271c-2.706,1.467-4.943,3.67-6.457,6.35c-1.581,2.813-2.388,5.995-2.339,9.222
		c-0.048,3.238,0.758,6.43,2.339,9.26c1.508,2.695,3.746,4.908,6.457,6.389c2.862,1.548,6.074,2.329,9.327,2.271
		c2.793,0.04,5.559-0.569,8.077-1.779c2.364-1.13,4.342-2.931,5.686-5.182l-3.548-2.457c-1.085,1.675-2.611,3.016-4.411,3.88
		c-1.81,0.875-3.793,1.33-5.805,1.328c-2.396,0.037-4.761-0.553-6.855-1.715c-2.011-1.113-3.658-2.783-4.743-4.81
		c-1.177-2.209-1.768-4.685-1.714-7.186c-0.056-2.5,0.53-4.969,1.7-7.176C118.72,68.451,120.367,66.766,122.383,65.643z"/>
	<rect x="152.313" y="45.646" fill="#4468C0" width="4.758" height="49.593"/>
	<path fill="#4468C0" d="M194.215,62.094c-5.726-3.027-12.58-3.027-18.308,0c-2.689,1.48-4.916,3.68-6.43,6.352
		c-1.581,2.812-2.387,5.994-2.338,9.221c-0.051,3.228,0.756,6.413,2.338,9.231c1.525,2.671,3.748,4.874,6.43,6.378v0.064
		c5.713,3.081,12.594,3.081,18.308,0c2.677-1.497,4.889-3.703,6.39-6.378c1.568-2.843,2.361-6.051,2.299-9.297
		c0.049-3.224-0.742-6.397-2.299-9.222C199.112,65.77,196.899,63.57,194.215,62.094z M196.487,84.826
		c-1.05,2.021-2.66,3.702-4.638,4.834c-4.19,2.287-9.253,2.287-13.444,0c-1.982-1.139-3.604-2.815-4.676-4.834
		c-1.164-2.207-1.749-4.671-1.701-7.16c-0.051-2.489,0.535-4.951,1.701-7.148c1.072-2.023,2.693-3.705,4.676-4.85
		c4.194-2.268,9.25-2.268,13.444,0c1.978,1.141,3.586,2.822,4.638,4.85c1.144,2.207,1.719,4.662,1.674,7.148
		C198.206,80.154,197.629,82.613,196.487,84.826z"/>
	<path fill="#4468C0" d="M239.995,78.541c0.204,3.43-0.945,6.801-3.202,9.393c-2.308,2.314-5.49,3.541-8.755,3.375
		c-2.918,0.215-5.791-0.831-7.892-2.869c-1.834-1.912-2.735-4.716-2.735-8.424V60.089h-4.758v20.38c0,4.954,1.33,8.7,3.986,11.266
		c2.959,2.682,6.866,4.069,10.855,3.852c2.606,0.049,5.185-0.563,7.49-1.779c2.149-1.145,3.93-2.871,5.142-4.981v6.416h4.559V60.09
		h-4.689L239.995,78.541L239.995,78.541z"/>
	<path fill="#4468C0" d="M285.761,66.771c-1.39-2.195-3.339-3.983-5.646-5.183c-2.406-1.216-5.074-1.825-7.771-1.778
		c-3.132-0.043-6.222,0.725-8.968,2.23c-2.649,1.475-4.828,3.665-6.283,6.322c-1.55,2.852-2.334,6.056-2.272,9.302
		c-0.058,3.242,0.727,6.446,2.272,9.297c1.462,2.662,3.638,4.86,6.283,6.351c2.737,1.53,5.832,2.315,8.968,2.271
		c2.771,0.054,5.511-0.59,7.971-1.873c2.347-1.251,4.298-3.129,5.646-5.419v6.946h4.518V45.646h-4.718V66.771L285.761,66.771z
		 M284.102,84.826c-1.073,2.022-2.698,3.698-4.688,4.834h0.024c-2.027,1.158-4.332,1.75-6.669,1.715
		c-2.353,0.033-4.673-0.559-6.721-1.715c-1.986-1.137-3.609-2.813-4.677-4.834c-1.163-2.207-1.749-4.671-1.7-7.16
		c-0.054-2.489,0.535-4.951,1.7-7.148c1.066-2.027,2.688-3.709,4.677-4.85c2.048-1.154,4.368-1.743,6.721-1.699
		c2.325-0.035,4.62,0.551,6.645,1.699c1.989,1.141,3.614,2.82,4.688,4.85c1.158,2.2,1.743,4.66,1.702,7.148
		C285.844,80.155,285.259,82.618,284.102,84.826z"/>
	<path fill="#4468C0" d="M305.251,88.24c-0.943-0.019-1.854,0.356-2.511,1.036c-0.686,0.68-1.062,1.611-1.034,2.576
		c-0.039,0.99,0.337,1.952,1.034,2.657c0.646,0.696,1.56,1.088,2.511,1.074c0.958,0.005,1.878-0.382,2.537-1.074
		c0.711-0.699,1.098-1.662,1.063-2.657c0.021-0.969-0.363-1.903-1.063-2.576C307.116,88.604,306.202,88.232,305.251,88.24z"/>
	<path fill="#4468C0" d="M363.708,59.823c-2.899-0.054-5.766,0.62-8.333,1.966c-2.348,1.238-4.284,3.127-5.579,5.445
		c-0.963-2.328-2.667-4.274-4.848-5.539c-2.344-1.286-4.983-1.922-7.653-1.846c-2.663-0.059-5.301,0.539-7.68,1.739
		c-2.188,1.099-4.009,2.804-5.244,4.916v-6.417h-4.546v35.151h4.741V76.761c-0.19-3.396,0.948-6.731,3.177-9.301
		c2.25-2.299,5.381-3.526,8.596-3.372c2.805-0.177,5.547,0.868,7.521,2.869c1.767,1.912,2.656,4.704,2.656,8.355v19.927h4.741
		V76.761c-0.189-3.389,0.933-6.72,3.136-9.301c2.257-2.312,5.397-3.541,8.624-3.372c2.781-0.171,5.502,0.876,7.45,2.869
		c1.771,1.922,2.658,4.708,2.658,8.355v19.927h4.741V74.862c0-4.942-1.248-8.69-3.771-11.227
		C371.309,60.982,367.547,59.602,363.708,59.823z"/>
	<path fill="#4468C0" d="M417.244,60.088v18.453c0.198,3.432-0.953,6.805-3.217,9.393c-2.325,2.345-5.547,3.577-8.846,3.389
		c-2.898,0.187-5.742-0.859-7.826-2.883c-1.824-1.912-2.735-4.723-2.735-8.424V60.089h-4.743v20.38c0,4.954,1.331,8.7,3.986,11.266
		c2.964,2.681,6.876,4.068,10.868,3.852c2.633,0.064,5.24-0.55,7.57-1.779c2.155-1.14,3.941-2.866,5.155-4.981v6.416H422V60.09
		h-4.756V60.088z"/>
	<circle fill="#4468C0" cx="54.695" cy="71.469" r="46.107"/>
	<path fill="#FEFEFE" d="M16.861,82.883c0.182,0.083,0.361,0.174,0.546,0.248c0.997,0.41,2.024,0.669,3.096,0.777
		c1.782,0.18,3.494-0.092,5.145-0.771c1.067-0.438,2.038-1.045,2.929-1.779c0.627-0.521,1.198-1.093,1.728-1.711
		c0.186-0.222,0.174-0.386,0.047-0.617c-0.454-0.834-0.89-1.681-1.333-2.521c-0.019-0.038-0.031-0.077-0.044-0.111
		c0.065-0.07,0.117-0.021,0.168,0.002c1.896,0.836,3.872,1.395,5.921,1.702c0.92,0.142,1.843,0.22,2.775,0.255
		c2.622,0.1,5.178-0.269,7.668-1.083c2.533-0.828,4.805-2.141,6.89-3.79c0.88-0.697,1.693-1.467,2.475-2.271
		c0.08-0.083,0.145-0.195,0.28-0.212c0.368-0.761,0.707-1.541,1.141-2.272c0.05-0.086,0.106-0.172,0.162-0.257
		c0.647-1.149,1.432-2.196,2.294-3.192c0.095-0.107,0.18-0.226,0.27-0.338c0.027-0.27,0.166-0.502,0.258-0.748
		c0.539-1.428,0.935-2.895,1.164-4.402c0.119-0.793,0.209-1.59,0.228-2.395c0.009-0.365,0.053-0.732,0.046-1.102
		c-0.05-2.374-0.374-4.71-1.024-6.997c-0.128-0.448-0.281-0.892-0.427-1.333c-0.084-0.254-0.158-0.512-0.245-0.766
		c-0.044-0.027-0.084-0.061-0.129-0.082c-2.482-1.225-5.099-1.963-7.86-2.194c-2.578-0.218-5.115,0.021-7.609,0.688
		c-3.43,0.916-6.483,2.55-9.128,4.927c-3.021,2.717-5.133,6.028-6.391,9.887c-0.706,2.158-1.109,4.374-1.177,6.647
		c-0.005,0.183-0.062,0.225-0.238,0.223c-0.531-0.01-1.061,0.021-1.587,0.098c-3.104,0.465-5.604,1.953-7.438,4.492
		c-1.971,2.73-2.514,5.773-1.771,9.05c0.136,0.6,0.304,1.192,0.607,1.732c0.195,0.053,0.379,0.132,0.561,0.216
		C16.86,82.883,16.861,82.883,16.861,82.883z"/>
	<path fill="#FED500" d="M53.583,78.918c-0.003,0-0.006,0-0.009,0c-0.002,0.078,0.003,0.155,0.002,0.234
		c-0.014,1.502,0.157,2.983,0.48,4.453c0.429,1.958,1.13,3.813,2.106,5.563c0.034,0.062,0.057,0.124,0.084,0.185
		c0.016,0.008,0.033,0.016,0.049,0.021c0.102-0.003,0.205-0.011,0.307-0.011c11.893,0,23.785,0,35.677,0
		c0.102,0,0.207,0.004,0.309,0.008c0.026-0.032,0.056-0.063,0.077-0.098c0.785-1.409,1.413-2.884,1.86-4.431
		c0.553-1.913,0.827-3.864,0.823-5.854c0-0.022,0.002-0.046,0.002-0.068c-0.095,0-0.189-0.004-0.283-0.004
		C81.239,78.918,67.412,78.918,53.583,78.918z"/>
	<path fill="#131A6D" d="M56.765,68.475c-0.053,0-0.105,0-0.157,0c-0.052,0-0.104-0.002-0.154-0.004
		c-0.056,0.084-0.111,0.17-0.162,0.256c-0.434,0.732-0.772,1.513-1.141,2.272c-0.246,0.71-0.528,1.404-0.738,2.126
		c-0.154,0.527-0.282,1.059-0.396,1.594c-0.168,0.789-0.293,1.585-0.368,2.392c-0.008,0.08-0.016,0.158-0.022,0.238
		c-0.017,0.208-0.021,0.421-0.031,0.631c-0.011,0.229-0.03,0.454-0.033,0.684c-0.001,0.086,0.006,0.17,0.01,0.256
		c0.003,0,0.006,0,0.009,0c13.829,0,27.656,0,41.485,0c0.094,0,0.188,0.004,0.283,0.004c-0.003-0.287-0.017-0.574-0.029-0.86
		c-0.022-0.531-0.056-1.064-0.122-1.595c-0.258-2.045-0.79-4.02-1.634-5.905c-0.32-0.719-0.653-1.43-1.09-2.088
		c-0.066,0-0.132,0-0.199,0C80.439,68.475,68.601,68.475,56.765,68.475z"/>
	<path fill="#E3E3E3" d="M54.056,83.605c-0.323-1.47-0.494-2.951-0.48-4.453c0-0.079-0.004-0.156-0.002-0.234
		c-0.004-0.086-0.011-0.17-0.01-0.256c0.003-0.229,0.022-0.455,0.033-0.685c0.01-0.21,0.014-0.422,0.031-0.63
		c0.006-0.08,0.015-0.158,0.022-0.238c0.075-0.807,0.2-1.603,0.368-2.392c0.114-0.535,0.242-1.065,0.396-1.594
		c0.21-0.722,0.493-1.416,0.738-2.126c-0.135,0.016-0.2,0.129-0.28,0.212c-0.782,0.806-1.595,1.574-2.475,2.271
		c-2.085,1.649-4.356,2.962-6.89,3.79c-2.491,0.814-5.046,1.183-7.668,1.082c-0.932-0.034-1.855-0.112-2.775-0.254
		c-2.049-0.309-4.025-0.866-5.921-1.702c-0.051-0.022-0.103-0.072-0.168-0.003c0.013,0.035,0.025,0.074,0.044,0.112
		c0.442,0.841,0.878,1.688,1.333,2.521c0.127,0.231,0.139,0.396-0.047,0.616c-0.529,0.619-1.1,1.191-1.728,1.712
		c-0.891,0.734-1.861,1.341-2.929,1.779c-1.65,0.68-3.362,0.95-5.145,0.771c-1.071-0.108-2.099-0.367-3.096-0.777
		c-0.185-0.074-0.364-0.165-0.546-0.248H16.86c-0.182-0.084-0.366-0.163-0.561-0.216c-0.016,0.095,0.042,0.165,0.076,0.24
		c0.293,0.642,0.641,1.248,1.051,1.821c0.345,0.48,0.722,0.922,1.122,1.332c0.001,0.001,0.002,0.001,0.004,0.003
		c1.078,1.106,2.351,1.965,3.828,2.554c1.346,0.537,2.755,0.754,4.208,0.752c9.794-0.009,19.585-0.005,29.377-0.005
		c0.04,0,0.079-0.003,0.119-0.004h0.001l0,0c0.053-0.003,0.107-0.004,0.161-0.007c-0.027-0.061-0.05-0.124-0.084-0.185
		C55.186,87.418,54.485,85.563,54.056,83.605z"/>
	<path fill="#01A550" d="M56.602,89.365c-0.102,0-0.205,0.008-0.307,0.011c0.003,0.049,0.021,0.092,0.042,0.133
		c0.001,0,0.001,0.001,0.001,0.001c0.025,0.049,0.057,0.097,0.084,0.143c1.252,2.104,2.811,3.943,4.703,5.499
		c2.989,2.454,6.391,3.979,10.216,4.553c2.144,0.322,4.286,0.313,6.421-0.029c3.029-0.483,5.823-1.59,8.365-3.31
		c2.166-1.462,3.998-3.271,5.488-5.422c0.325-0.47,0.648-0.94,0.905-1.452c0-0.001,0.001-0.001,0.001-0.001
		c0.02-0.04,0.046-0.076,0.065-0.116c-0.102-0.004-0.207-0.008-0.309-0.008C80.388,89.365,68.495,89.365,56.602,89.365z"/>
	<path fill="#EA2436" d="M75.428,58.136c-1.858-0.086-3.693,0.065-5.509,0.468c-0.146,0.072-0.301,0.113-0.457,0.151
		c-0.197,0.048-0.397,0.088-0.592,0.144c-3.774,1.082-7.02,3.031-9.701,5.906c-0.044,0.049-0.101,0.088-0.151,0.133
		c-0.09,0.113-0.175,0.23-0.27,0.34c-0.862,0.996-1.647,2.043-2.294,3.191c0.05,0.002,0.102,0.006,0.154,0.006
		c0.052,0,0.104,0,0.157,0c11.836,0,23.674,0,35.512-0.002c0.066,0,0.133,0,0.199,0c-0.033-0.068-0.061-0.141-0.101-0.207
		c-0.578-0.951-1.218-1.861-1.94-2.712c-2.419-2.846-5.374-4.928-8.889-6.202C79.569,58.636,77.531,58.232,75.428,58.136z"/>
	<path fill="#E3E3E3" d="M59.689,49.297c0.65,2.287,0.974,4.623,1.024,6.997c0.007,0.369-0.037,0.735-0.046,1.103
		c-0.019,0.803-0.109,1.601-0.228,2.394c-0.229,1.508-0.625,2.974-1.164,4.403c-0.093,0.246-0.231,0.478-0.258,0.746
		c0.05-0.045,0.107-0.084,0.151-0.133c2.681-2.875,5.927-4.824,9.701-5.906c0.195-0.055,0.395-0.096,0.592-0.144
		c0.156-0.038,0.311-0.079,0.457-0.151c-0.214-0.457-0.414-0.922-0.643-1.371c-1.869-3.662-4.593-6.549-8.026-8.783
		c-0.715-0.467-1.445-0.913-2.233-1.251c0.087,0.254,0.161,0.512,0.245,0.766C59.41,48.406,59.562,48.848,59.689,49.297z"/>
</g>
</svg>
