<svg version="1.2" xmlns="http://www.w3.org/2000/svg" viewBox="0 0 321 166" width="321" height="166">
	<title>cloud-mu new-svg</title>
	<style>
		.s0 { fill: #4468c0 } 
		.s1 { fill: #fefefe } 
		.s2 { fill: #fed500 } 
		.s3 { fill: #131a6d } 
		.s4 { fill: #e3e3e3 } 
		.s5 { fill: #01a550 } 
		.s6 { fill: #ea2436 } 
	</style>
	<g id="Layer">
		<path id="Layer" class="s0" d="m16.4 130.6c2.1-1.1 4.4-1.7 6.8-1.7 2.1 0 4 0.5 5.8 1.4 1.8 0.8 3.4 2.2 4.5 3.9l3.5-2.4c-1.3-2.3-3.3-4.1-5.6-5.2-2.6-1.2-5.4-1.8-8.2-1.8-3.2 0-6.4 0.8-9.3 2.3-2.7 1.5-4.9 3.7-6.4 6.3-1.6 2.9-2.4 6-2.4 9.3 0 3.2 0.8 6.4 2.4 9.2 1.5 2.7 3.7 4.9 6.4 6.4 2.9 1.6 6.1 2.3 9.4 2.3 2.7 0 5.5-0.6 8-1.8 2.4-1.1 4.4-2.9 5.7-5.2l-3.5-2.4c-1.1 1.6-2.6 3-4.4 3.8-1.9 0.9-3.8 1.4-5.8 1.4-2.4 0-4.8-0.6-6.9-1.7-2-1.2-3.7-2.8-4.7-4.8-1.2-2.3-1.8-4.7-1.8-7.2 0-2.5 0.6-5 1.7-7.2 1.1-2 2.8-3.7 4.8-4.9z"/>
		<path id="Layer" class="s0" d="m46.3 110.6h4.8v49.6h-4.8z"/>
		<path id="Layer" fill-rule="evenodd" class="s0" d="m94.6 133.4c1.6 2.9 2.4 6 2.3 9.3 0.1 3.2-0.7 6.4-2.3 9.3-1.5 2.6-3.7 4.8-6.4 6.3-5.7 3.1-12.6 3.1-18.3 0-2.7-1.5-4.9-3.7-6.4-6.4-1.6-2.8-2.4-6-2.4-9.2 0-3.3 0.8-6.4 2.4-9.3 1.5-2.6 3.7-4.8 6.4-6.3 5.7-3 12.6-3 18.3 0 2.7 1.5 4.9 3.7 6.4 6.3zm-2.4 9.3c0-2.5-0.6-5-1.7-7.2-1.1-2-2.7-3.7-4.7-4.8-4.1-2.3-9.2-2.3-13.4 0-2 1.1-3.6 2.8-4.7 4.8-1.1 2.2-1.7 4.7-1.7 7.2 0 2.5 0.6 4.9 1.7 7.1 1.1 2 2.7 3.7 4.7 4.9 4.2 2.2 9.3 2.2 13.4 0 2-1.2 3.6-2.9 4.7-4.9 1.1-2.2 1.7-4.6 1.7-7.1z"/>
		<path id="Layer" class="s0" d="m134 143.5c0.2 3.5-0.9 6.8-3.2 9.4-2.3 2.3-5.5 3.6-8.8 3.4-2.9 0.2-5.8-0.8-7.9-2.9q-2.7-2.8-2.7-8.4v-19.9h-4.7v20.4q0 7.4 3.9 11.2c3 2.7 6.9 4.1 10.9 3.9 2.6 0 5.2-0.6 7.5-1.8 2.1-1.1 3.9-2.9 5.1-5v6.4h4.6v-35.1h-4.7z"/>
		<path id="Layer" fill-rule="evenodd" class="s0" d="m179.8 131.8v-21.2h4.7v49.6h-4.5v-6.9c-1.4 2.3-3.3 4.2-5.7 5.4-2.4 1.3-5.2 1.9-8 1.9-3.1 0-6.2-0.8-8.9-2.3-2.7-1.5-4.8-3.7-6.3-6.3-1.6-2.9-2.3-6.1-2.3-9.3 0-3.3 0.7-6.5 2.3-9.3 1.4-2.7 3.6-4.9 6.3-6.4 2.7-1.5 5.8-2.2 8.9-2.2 2.7 0 5.4 0.6 7.8 1.8 2.3 1.2 4.3 3 5.7 5.2zm0 10.9c0-2.5-0.5-5-1.7-7.2-1.1-2-2.7-3.7-4.7-4.8-2-1.2-4.3-1.8-6.6-1.7-2.4-0.1-4.7 0.5-6.8 1.7-1.9 1.1-3.6 2.8-4.6 4.8-1.2 2.2-1.8 4.7-1.7 7.2-0.1 2.5 0.5 4.9 1.7 7.1 1 2 2.7 3.7 4.6 4.9 2.1 1.1 4.4 1.7 6.8 1.7 2.3 0 4.6-0.6 6.6-1.7 2-1.2 3.6-2.9 4.7-4.9 1.2-2.2 1.7-4.6 1.7-7.1z"/>
		<path id="Layer" class="s0" d="m199.3 153.2c-1 0-1.9 0.4-2.6 1.1-0.6 0.7-1 1.6-1 2.6 0 0.9 0.3 1.9 1 2.6 0.7 0.7 1.6 1.1 2.6 1.1 0.9 0 1.8-0.4 2.5-1.1 0.7-0.7 1.1-1.7 1.1-2.6 0-1-0.4-2-1.1-2.6-0.7-0.7-1.6-1.1-2.5-1.1z"/>
		<path id="Layer" class="s0" d="m257.7 124.8c-2.9 0-5.8 0.6-8.3 2-2.4 1.2-4.3 3.1-5.6 5.4-1-2.3-2.7-4.2-4.9-5.5-2.3-1.3-4.9-1.9-7.6-1.9-2.7 0-5.3 0.6-7.7 1.8-2.2 1.1-4 2.8-5.2 4.9v-6.4h-4.6v35.1h4.8v-18.4c-0.2-3.4 0.9-6.8 3.1-9.3 2.3-2.3 5.4-3.6 8.6-3.4 2.8-0.2 5.6 0.9 7.6 2.9q2.6 2.8 2.6 8.3v19.9h4.8v-18.4c-0.2-3.4 0.9-6.8 3.1-9.3 2.3-2.4 5.4-3.6 8.6-3.4 2.8-0.2 5.5 0.9 7.5 2.9q2.6 2.8 2.6 8.3v19.9h4.8v-20.3q0-7.5-3.8-11.3c-2.8-2.6-6.6-4-10.4-3.8z"/>
		<path id="Layer" class="s0" d="m311.2 125.1v18.4c0.2 3.5-0.9 6.8-3.2 9.4-2.3 2.4-5.5 3.6-8.8 3.4-2.9 0.2-5.8-0.8-7.8-2.9q-2.8-2.8-2.8-8.4v-19.9h-4.7v20.4q0 7.4 4 11.2c2.9 2.7 6.8 4.1 10.8 3.9 2.7 0.1 5.3-0.6 7.6-1.8 2.2-1.1 3.9-2.9 5.2-5v6.4h4.5v-35.1h-4.8z"/>
		<path id="Layer" class="s0" d="m159.7 97.6c-25.5 0-46.1-20.6-46.1-46.1 0-25.5 20.6-46.1 46.1-46.1 25.5 0 46.1 20.6 46.1 46.1 0 25.5-20.6 46.1-46.1 46.1z"/>
		<path id="Layer" class="s1" d="m121.9 62.9q0.2 0.1 0.5 0.2 1.5 0.6 3.1 0.8 2.7 0.3 5.1-0.8 1.6-0.6 3-1.7 0.9-0.8 1.7-1.8c0.2-0.2 0.2-0.3 0.1-0.6q-0.7-1.2-1.4-2.5 0 0 0-0.1c0-0.1 0.1 0 0.1 0q2.9 1.2 6 1.7 1.3 0.2 2.7 0.3 4 0.1 7.7-1.1c2.5-0.9 4.8-2.2 6.9-3.8q1.3-1.1 2.5-2.3c0.1-0.1 0.1-0.2 0.3-0.2 0.3-0.8 0.7-1.5 1.1-2.3q0.1-0.1 0.2-0.2c0.6-1.2 1.4-2.2 2.2-3.2q0.2-0.2 0.3-0.4c0-0.2 0.2-0.5 0.3-0.7q0.8-2.1 1.1-4.4 0.2-1.2 0.3-2.4c0-0.4 0-0.7 0-1.1q0-3.6-1-7-0.2-0.7-0.4-1.3-0.2-0.4-0.3-0.8 0 0-0.1-0.1-3.7-1.8-7.9-2.2-3.8-0.3-7.6 0.7-5.1 1.4-9.1 4.9c-3 2.8-5.1 6.1-6.4 9.9q-1.1 3.3-1.2 6.7c0 0.2 0 0.2-0.2 0.2q-0.8 0-1.6 0.1c-3.1 0.5-5.6 1.9-7.4 4.5-2 2.7-2.6 5.8-1.8 9 0.1 0.6 0.3 1.2 0.6 1.8q0.3 0.1 0.6 0.2 0 0 0 0z"/>
		<path id="Layer" class="s2" d="m158.6 58.9q0 0 0 0 0 0.1 0 0.3 0 2.2 0.5 4.4 0.6 2.9 2.1 5.6 0 0.1 0 0.2 0.1 0 0.1 0 0.1 0 0.3 0 17.8 0 35.7 0 0.1 0 0.3 0 0-0.1 0.1-0.1 1.1-2.1 1.8-4.5 0.9-2.8 0.8-5.8 0 0 0-0.1-0.1 0-0.2 0-20.8 0-41.5 0z"/>
		<path id="Layer" class="s3" d="m161.8 48.5q-0.1 0-0.2 0-0.1 0-0.1 0-0.1 0.1-0.2 0.2c-0.4 0.8-0.8 1.5-1.1 2.3-0.3 0.7-0.6 1.4-0.8 2.1q-0.2 0.8-0.4 1.6-0.2 1.2-0.4 2.4 0 0.1 0 0.2 0 0.4 0 0.7 0 0.3 0 0.7 0 0.1 0 0.2 0 0 0 0 20.7 0 41.5 0 0.1 0 0.3 0-0.1-0.4-0.1-0.8 0-0.8-0.1-1.6-0.4-3.1-1.6-5.9c-0.4-0.8-0.7-1.5-1.1-2.1q-0.1 0-0.2 0-17.8 0-35.5 0z"/>
		<path id="Layer" class="s4" d="m159.1 63.6q-0.5-2.2-0.5-4.4 0-0.2 0-0.3 0-0.1 0-0.2 0-0.4 0-0.7 0-0.3 0-0.7 0-0.1 0-0.2 0.2-1.2 0.4-2.4 0.2-0.8 0.4-1.6c0.2-0.7 0.5-1.4 0.8-2.1-0.2 0-0.2 0.1-0.3 0.2q-1.2 1.2-2.5 2.3c-2.1 1.6-4.4 2.9-6.9 3.8q-3.7 1.2-7.7 1.1-1.4-0.1-2.7-0.3-3.1-0.5-6-1.7c0 0-0.1-0.1-0.1 0q0 0 0 0.1 0.7 1.3 1.4 2.5c0.1 0.3 0.1 0.4-0.1 0.6q-0.8 1-1.7 1.8-1.4 1.1-3 1.7-2.4 1.1-5.1 0.8-1.6-0.2-3.1-0.8-0.3-0.1-0.5-0.2-0.3-0.2-0.6-0.2c0 0.1 0 0.1 0.1 0.2q0.4 1 1 1.8 0.5 0.7 1.1 1.4 0 0 0.1 0 1.6 1.6 3.8 2.5c1.3 0.6 2.7 0.8 4.2 0.8q14.7 0 29.4 0 0 0 0.1 0 0.1 0 0.1-0.1 0 0 0-0.1-1.5-2.7-2.1-5.6z"/>
		<path id="Layer" class="s5" d="m161.6 69.4q-0.2 0-0.3 0 0 0 0 0.1 0 0 0 0 0.1 0.1 0.1 0.2 1.9 3.1 4.7 5.5 4.5 3.6 10.2 4.5 3.3 0.5 6.5 0 4.5-0.8 8.3-3.3 3.3-2.2 5.5-5.5c0.3-0.4 0.7-0.9 0.9-1.4q0 0 0 0 0.1-0.1 0.1-0.1-0.2 0-0.3 0-17.9 0-35.7 0z"/>
		<path id="Layer" class="s6" d="m180.4 38.1q-2.8-0.1-5.5 0.5-0.2 0.1-0.4 0.2-0.3 0-0.6 0.1c-3.8 1.1-7 3-9.7 5.9q-0.1 0.1-0.2 0.1-0.1 0.2-0.3 0.4c-0.8 1-1.6 2-2.2 3.2q0 0 0.1 0 0.1 0 0.2 0 17.7 0 35.5 0 0.1 0 0.2 0-0.1-0.1-0.1-0.2-0.9-1.5-2-2.7-3.6-4.3-8.9-6.2-2.9-1.1-6.1-1.3z"/>
		<path id="Layer" class="s4" d="m164.7 29.3q1 3.4 1 7c0 0.4 0 0.7 0 1.1q-0.1 1.2-0.3 2.4-0.3 2.3-1.1 4.4c-0.1 0.2-0.3 0.5-0.3 0.7q0.1 0 0.2-0.1c2.6-2.9 5.9-4.8 9.7-5.9q0.3-0.1 0.6-0.1 0.2-0.1 0.4-0.2-0.3-0.7-0.6-1.4c-1.9-3.6-4.6-6.5-8.1-8.7-0.7-0.5-1.4-1-2.2-1.3q0.1 0.4 0.3 0.8 0.2 0.6 0.4 1.3z"/>
	</g>
</svg>