<svg xmlns="http://www.w3.org/2000/svg" xmlns:xlink="http://www.w3.org/1999/xlink" width="1359" height="637" viewBox="0 0 1359 637">
  <defs>
    <clipPath id="clip-path">
      <rect id="Rectangle_2" data-name="Rectangle 2" width="1359" height="637" transform="translate(112 105)" fill="none" stroke="#707070" stroke-width="1"/>
    </clipPath>
  </defs>
  <g id="Mask_Group_1" data-name="Mask Group 1" transform="translate(-112 -105)" clip-path="url(#clip-path)">
    <g id="cyberroom" transform="translate(-168.425 -555)">
      <path id="Path_1" data-name="Path 1" d="M617.2,1194.7l85,37.9,8.3-17.7c19.4-41.3,56.8-116.3,98.1-191.9l3.3-6,68,48.8,10.1,63.7,16,1c4.1.2,8.2.4,12.3.4,56.2,0,105.2-23.8,141.6-68.8,4.5-5.6,8.9-11.5,13-17.7l8.6-13,2.4,15.4c2.1,13.5,6.7,25.3,13.7,35.2,12.8,17.9,32.9,28.9,59.8,32.6a129.1,129.1,0,0,0,17.9,1.2c19.6,0,50.9-4.2,89.2-24l7.7-4,5.8-20.8,97.5,39.7,7.9-17.7c2.8-6.3,5.6-12.4,8.3-18.3l.2-.4c3.5-7.6,6.8-14.8,10.1-22.2l.4-1,.8-.8c10.4-10.6,19.7-19.9,28.5-28.6l2.6-2.6,90.9,29.8,6.8-17.8A755.389,755.389,0,0,1,1601.9,889l9.6-14.9-66.4-55.2-12.7,10c-11,8.7-22.1,17.6-32.9,26.7L1480,872l9.7-22.3-92.3-34.4-7,18.6c-6.5,17.2-13.3,34.3-20.5,52l-9,21.8-2.6-23.5c-.4-4-1-7.9-1.7-11.8l-1.8-10.4-85.4-38.7-5.6.7a198.408,198.408,0,0,0-121.4,61.6c-4.2,4.5-8.4,9.3-12.3,14.3l-11.8,15,1.1-19.1c.4-6,.5-11.7.5-17.3V866.9l-10.1-5.7c-7.7-4.4-15.5-9-23-13.4-7.7-4.5-15.6-9.2-23.6-13.8l-11.3-6.4-10.5,7.7c-7.5,5.5-14.9,11-22.1,16.4L998.9,867l11.4-22.8c16.7-33.5,32-65.7,46.1-95.5l8.6-18.1-89.4-41.9-8.3,18.6C951.4,743,922,807,891.9,869.6l-2.7,5.7-76.4-40.9L802.3,847A775.972,775.972,0,0,1,707,944.5l-20.6,17.8,11.2-24.8c11.6-25.7,22.9-51.7,33.4-77.3l8.1-19.7-93.5-31.9-6.8,18.2c-16.4,43.5-35.6,86.9-59.5,138.7l-2.7,5.9-74.9-42.6-9.8,17.7a247.585,247.585,0,0,1-52.2,64.8,180.657,180.657,0,0,1-26.7,19.5l-8.7,5.1-.3-10.1a311.641,311.641,0,0,1,3.1-53.2c6.2-44.4,22.4-84,46.8-114.5a180.866,180.866,0,0,1,61-49.4l13.5-6.7-5.2,14.1c-4.9,13.3-10.4,26.4-16.4,38.9l-9.3,19.2,89.4,36.2,8.4-16.2c23.6-45.7,38.8-92,45.2-137.8a303.267,303.267,0,0,0,3.1-33.2l.4-17.8-96-13.5-2.3,20.5c-.2,1.6-.3,3.1-.5,4.5l-1.1,9.9-18.5-12.5-7.8,1.3c-57.7,9.3-108,38.8-145.5,85.3a287.3,287.3,0,0,0-41.9,71.5,332.034,332.034,0,0,0-21.6,80.2c-5.5,39-4.9,75.4,1.9,111.5l1.9,10,99,47.3,6.3-1.1c28.9-5.2,58.4-19.5,85.4-41.6a251.517,251.517,0,0,0,19.6-17.9l3.7-3.8,20.5,15.5c4.9,3.7,9.7,7.5,14.8,11.5,9.2,7.3,18.7,14.8,29.6,22.4l10.8,7.5,11.2-6.9c14.8-9.1,32.3-20,49.7-31.5l19.9-13.2-11.3,21c-20.3,37.9-35.5,68.4-46.5,93.2Z" fill="#fff"/>
      <g id="Group_2" data-name="Group 2">
        <g id="Group_1" data-name="Group 1">
          <path id="Path_2" data-name="Path 2" d="M1138.6,533c7.7,0,7.7-12,0-12s-7.7,12,0,12Z" fill="#fff"/>
        </g>
      </g>
      <g id="Group_7" data-name="Group 7">
        <g id="Group_3" data-name="Group 3">
          <path id="Path_3" data-name="Path 3" d="M708,1248.3l-106.6-47.5,13-29.2c9.1-20.4,20.9-44.6,36.1-73.5-10.8,6.9-21.2,13.3-30.6,19.1l-17.9,11-17.2-12c-11.2-7.8-20.8-15.5-30.1-22.8-5.1-4-9.8-7.8-14.6-11.4l-12.1-9.2c-5.5,5.3-11.1,10.4-16.8,15.1-28.6,23.4-60,38.6-90.9,44.1l-10.1,1.8-108-51.6-3-16c-7-37.3-7.6-75.1-2-115.3a346.86,346.86,0,0,1,22.4-83.1,297.72,297.72,0,0,1,43.6-74.4c39.4-48.9,92.3-79.8,153-89.6l12.5-2,6,4,3-27.3,118.8,16.7-.6,28.4a326.218,326.218,0,0,1-3.2,34.6c-1.8,12.5-4.2,25.1-7.2,37.7l109.8,37.5-13,31.5q-10.65,25.95-22.2,52.1a763.322,763.322,0,0,0,73-77.5l16.7-20.3,74.1,39.7c29.1-60.7,57.2-121.8,72.5-156.3l13.3-29.8L1081.1,725l-13.7,29c-10.9,23.2-22.6,47.8-35.1,73.3.7-.5,1.4-1.1,2.2-1.6l16.7-12.3,18,10.3c8.1,4.6,16.1,9.3,23.8,13.9,7.5,4.4,15.2,9,22.8,13.3l16.1,9.2.1,18.5v.8c.6-.6,1.2-1.3,1.8-1.9a210.633,210.633,0,0,1,128.7-65.3l8.9-1.1,94.2,42.7,1.3,7.5c4.2-10.6,8.3-21.1,12.3-31.7l11.3-29.7,108.7,40.5c8.5-7.1,17.2-14.1,25.9-20.9l20.3-16,82.1,68.2-15.4,23.8a740.988,740.988,0,0,0-68.8,135.9l-10.9,28.5-94.8-31.1c-7.7,7.7-16,16-25,25.1-3.2,7.1-6.3,14.1-9.7,21.4l-.2.4c-2.7,5.9-5.5,12-8.3,18.2l-12.6,28.3-95.8-39-3.6,12.9-12.3,6.4c-40.4,21-73.8,25.4-94.7,25.4a136.842,136.842,0,0,1-19.5-1.3c-30.2-4.2-53.1-16.9-67.9-37.5a89.177,89.177,0,0,1-12.8-26.7c-1.9,2.5-3.8,5-5.7,7.4-38.8,48-91,73.3-151,73.3-4.3,0-8.6-.1-13-.4l-25.7-1.5L868.9,1073,816,1035c-39.9,73.3-75.7,145.2-94.5,185.3Zm-90.8-53.6,85,37.9,8.3-17.7c19.4-41.3,56.8-116.3,98.1-191.9l3.3-6,68,48.8,10.1,63.7,16,1c4.1.2,8.2.4,12.3.4,56.2,0,105.2-23.8,141.6-68.8,4.5-5.6,8.9-11.5,13-17.7l8.6-13,2.4,15.4c2.1,13.5,6.7,25.3,13.7,35.2,12.8,17.9,32.9,28.9,59.8,32.6a129.1,129.1,0,0,0,17.9,1.2c19.6,0,50.9-4.2,89.2-24l7.7-4,5.8-20.8,97.5,39.7,7.9-17.7c2.8-6.3,5.6-12.4,8.3-18.3l.2-.4c3.5-7.6,6.8-14.8,10.1-22.2l.4-1,.8-.8c10.4-10.6,19.7-19.9,28.5-28.6l2.6-2.6,90.9,29.8,6.8-17.8A755.389,755.389,0,0,1,1601.9,889l9.6-14.9-66.4-55.2-12.7,10c-11,8.7-22.1,17.6-32.9,26.7L1480,872l9.7-22.3-92.3-34.4-7,18.6c-6.5,17.2-13.3,34.3-20.5,52l-9,21.8-2.6-23.5c-.4-4-1-7.9-1.7-11.8l-1.8-10.4-85.4-38.7-5.6.7a198.408,198.408,0,0,0-121.4,61.6c-4.2,4.5-8.4,9.3-12.3,14.3l-11.8,15,1.1-19.1c.4-6,.5-11.7.5-17.3V866.9l-10.1-5.7c-7.7-4.4-15.5-9-23-13.4-7.7-4.5-15.6-9.2-23.6-13.8l-11.3-6.4-10.5,7.7c-7.5,5.5-14.9,11-22.1,16.4L998.9,867l11.4-22.8c16.7-33.5,32-65.7,46.1-95.5l8.6-18.1-89.4-41.9-8.3,18.6C951.4,743,922,807,891.9,869.6l-2.7,5.7-76.4-40.9L802.3,847A775.972,775.972,0,0,1,707,944.5l-20.6,17.8,11.2-24.8c11.6-25.7,22.9-51.7,33.4-77.3l8.1-19.7-93.5-31.9-6.8,18.2c-16.4,43.5-35.6,86.9-59.5,138.7l-2.7,5.9-74.9-42.6-9.8,17.7a247.585,247.585,0,0,1-52.2,64.8,180.657,180.657,0,0,1-26.7,19.5l-8.7,5.1-.3-10.1a311.641,311.641,0,0,1,3.1-53.2c6.2-44.4,22.4-84,46.8-114.5a180.866,180.866,0,0,1,61-49.4l13.5-6.7-5.2,14.1c-4.9,13.3-10.4,26.4-16.4,38.9l-9.3,19.2,89.4,36.2,8.4-16.2c23.6-45.7,38.8-92,45.2-137.8a303.267,303.267,0,0,0,3.1-33.2l.4-17.8-96-13.5-2.3,20.5c-.2,1.6-.3,3.1-.5,4.5l-1.1,9.9-18.5-12.5-7.8,1.3c-57.7,9.3-108,38.8-145.5,85.3a287.3,287.3,0,0,0-41.9,71.5,332.034,332.034,0,0,0-21.6,80.2c-5.5,39-4.9,75.4,1.9,111.5l1.9,10,99,47.3,6.3-1.1c28.9-5.2,58.4-19.5,85.4-41.6a251.517,251.517,0,0,0,19.6-17.9l3.7-3.8,20.5,15.5c4.9,3.7,9.7,7.5,14.8,11.5,9.2,7.3,18.7,14.8,29.6,22.4l10.8,7.5,11.2-6.9c14.8-9.1,32.3-20,49.7-31.5l19.9-13.2-11.3,21c-20.3,37.9-35.5,68.4-46.5,93.2ZM506,827.4a168.462,168.462,0,0,0-42.7,38.2C440.2,894.4,424.9,932,419,974.3a313.369,313.369,0,0,0-3.1,40.5,174.439,174.439,0,0,0,16-12.5,234.2,234.2,0,0,0,49.6-61.6l15.7-28.3,74,42.1c5-10.9,9.8-21.4,14.4-31.7L481.2,880.5,496,849.7C499.6,842.5,502.9,835,506,827.4Zm785.2,236.5-11.3-4,15.5-55.4,2.5-1.2a107.393,107.393,0,0,0,11.1-6l16.8-10.2-8.3,18.1c-7.4,16.3-14.4,31.8-21.1,47Z" fill="#7a7a7a"/>
        </g>
        <g id="Group_4" data-name="Group 4">
          <path id="Path_4" data-name="Path 4" d="M904.3,1043.7l17.2-14.7c23.7-20.2,49.5-41.8,72.5-60.7l22.3-18.4L1004,976.1a157.408,157.408,0,0,1-13.9,24c-16.7,23.3-37.5,36.5-63.5,40.3Z" fill="#7a7a7a"/>
        </g>
        <g id="Group_5" data-name="Group 5">
          <path id="Path_5" data-name="Path 5" d="M1199,957l36.9-30.1c3.5-2.6,7.3-5.2,11.1-7.5l41-24.4-33,34.4a38.829,38.829,0,0,1-12.7,8.7Z" fill="#7a7a7a"/>
        </g>
        <g id="Group_6" data-name="Group 6">
          <path id="Path_6" data-name="Path 6" d="M1176.3,1035.9l1.4-8.2c.8-4.5,1.7-9.3,3-14.7l1.5-6.4,6.4,1.6c9,2.2,17.5,3.9,25.9,5.1,4.1.6,8.2,1,12.2,1.3l38.1,2.9-36.9,9.9a250.421,250.421,0,0,1-43.2,8Z" fill="#7a7a7a"/>
        </g>
      </g>
      <g id="Group_8" data-name="Group 8">
        <path id="Path_7" data-name="Path 7" d="M627.4,722.6l-58-8.2c-1.8,16.6-1.8,19.5-2.8,26.5-.9,6.6-1.9,13.2-3.3,20.2L524.8,735C411.7,753.2,346.9,851.8,332.4,955c-5.2,36.8-4.6,71,1.7,105l84.1,40.2c49.7-8.9,107.1-51.3,139.8-118.8L513.1,956c-29.9,54-80.2,97.8-122.1,106.3-4.6-29.5-4.6-60.7-.1-92.8,12.9-91.4,66.7-174.2,169.7-196.7a447.163,447.163,0,0,1-32.1,90.6l52.8,21.4c22-42.6,37-87.1,43.2-131.4A302.56,302.56,0,0,0,627.4,722.6Z" fill="#3fb296"/>
        <path id="Path_8" data-name="Path 8" d="M870.2,885.6l-48.7-26.1C761.8,932.3,698.3,984,636.6,1026.2c30.9-61,57.6-120.2,79.7-173.8l-55.1-18.8c-27.1,72.1-62.5,144.5-98.2,222.6,14,10.6,27.4,22.1,43.8,33.5,48.3-29.7,96.3-60.5,148.1-108.5-41.9,73.9-83.5,148.8-107.6,203.1l48.8,21.8C730.7,1132.7,814.3,969,870.2,885.6Z" fill="#3fb296"/>
        <path id="Path_9" data-name="Path 9" d="M1103.5,878.3c-15.7-8.9-30.9-18.3-46.6-27.2-35.1,25.8-86.7,65.2-122.5,99.1,42.2-72.4,80-151.7,107.6-210.3l-52.8-24.7c-34,76.4-115.7,250.5-144.6,297.8l37.4,26.9c33.2-29,115.7-98.6,166.3-137.6-11.1,78.7-47.3,158.3-134.1,158.3-3.6,0-7.4-.1-11.2-.4l8,50.1c3.8.2,7.4.3,11.1.3,110.9,0,166.1-101.8,178-186.2C1102.5,906.6,1103.6,891.8,1103.5,878.3Z" fill="#3fb296"/>
        <path id="Path_10" data-name="Path 10" d="M1341.7,919.1a138.707,138.707,0,0,0-1.2-43.4l-70.6-32c-90.8,11.3-147.1,84.1-160.8,157.6-11.1,58,10.6,87,54.8,93.2a113.52,113.52,0,0,0,15.1,1c20.4,0,47.9-5.1,80-21.8l10.7-38.4c-46.2,16-74.6,19.5-93.8,19.5-6.2,0-11.4-.4-16-.8-.3-11.6,0-24.5,6.8-51.9a111.682,111.682,0,0,1,6.2-20.3c18.6,6,33.6,9.5,47.8,11.5a165.13,165.13,0,0,0,22.8,1.6C1298.5,995,1335.3,964.4,1341.7,919.1Zm-52.8-10.8c-4.5,32.2-30.1,52.5-62.1,52.5a85.307,85.307,0,0,1-11.1-.8,130,130,0,0,1-27.6-7.2c19.8-30.4,53.3-58.3,100.2-71.5A87.937,87.937,0,0,1,1288.9,908.3Z" fill="#3fb296"/>
        <path id="Path_11" data-name="Path 11" d="M1517,1019.7a772.218,772.218,0,0,1,71.8-141.8l-40.4-33.5c-43.6,34.2-87.9,73.7-125.4,112.6,17.1-32.2,30-65,43.6-96.2l-53.9-20.1c-33.9,89.4-67.3,158.3-94.3,219.3l50.4,20.5c7.1-15.8,13.9-30.2,20.4-45.2,34.5-35,75.6-75.9,113.2-108.6-13.4,26-24.9,53.2-34.1,76.9Z" fill="#3fb296"/>
      </g>
      <g id="Group_13" data-name="Group 13">
        <g id="Group_9" data-name="Group 9">
          <path id="Path_12" data-name="Path 12" d="M1148.1,1199c-14.2-8.3-23.7-23.6-23.3-40.5a50.314,50.314,0,0,1,1.9-11.4,59.94,59.94,0,0,1,9.1-18.3c4.5-6.4,7.1-10.2,7.6-11.5q5.25-10.05,15.9-9c7.1.7,13.4,4,18.8,9.9,5.8,6.6,10.1,15.2,13,25.7q6,22.05-10.5,44.3a98.423,98.423,0,0,1-7.5,8.9c-4.2,6-13,6.3-19.3,4.2A15.911,15.911,0,0,1,1148.1,1199Zm6.9-25.4c6,1.4,10.3.1,13.1-4,2.8-4,3.5-9.2,2.2-15.5a35.458,35.458,0,0,0-8.9-17c-1.9-2.1-5.3-.4-10,5-6.5,7.2-9.2,14.1-8.3,20.8C1143.8,1168.5,1147.8,1172.1,1155,1173.6Z"/>
        </g>
        <g id="Group_10" data-name="Group 10">
          <path id="Path_13" data-name="Path 13" d="M1225.1,1196.3a41.342,41.342,0,0,1-10.8-8.7,39.81,39.81,0,0,1-4.1-5.1,63.721,63.721,0,0,1-3.5-5.5,47.833,47.833,0,0,1-2.6-6.2,45.536,45.536,0,0,1-1.7-6.6,38.228,38.228,0,0,1-.6-8.3c2.4-16.8,13.8-36.8,31.4-42.3,16.6-5.4,31.6,5.4,39.3,18.5a69.922,69.922,0,0,1,4,7c9.7,20.3-2.4,43.3-19.5,55.8a32.65,32.65,0,0,1-26.1,3.8A18.7,18.7,0,0,1,1225.1,1196.3Zm9.9-23.4c9.5,4,22.1-1,23.4-10.1,2.3-8.2-.4-17-7.6-21.3a18.512,18.512,0,0,0-7.3-2.4,20.381,20.381,0,0,0-8.1.6,19.08,19.08,0,0,0-9.3,6.9,37.285,37.285,0,0,0-5.3,10.3,11.984,11.984,0,0,0,3.9,11C1226.9,1169.9,1230.3,1171.6,1235,1172.9Z"/>
        </g>
        <g id="Group_11" data-name="Group 11">
          <path id="Path_14" data-name="Path 14" d="M1286.3,1121.3c-2.1-10-1.5-18.6,1.7-25.6s9.6-9.5,19.3-7.5c3.6.8,6,2.5,7.2,5.3a16.316,16.316,0,0,1,.9,9.4,47.743,47.743,0,0,0-.6,10.7,15.607,15.607,0,0,0,3,9,50.3,50.3,0,0,0,7.2-11.3c2.4-4.9,4.4-9.2,5.9-13a58.468,58.468,0,0,1,6.4-11.6c2.7-3.9,5.8-6.3,9-7.2,3.3-.9,7.8-.8,13.7.3a55.141,55.141,0,0,0,5.7,4.5,126.814,126.814,0,0,1,3.3,14.4c1.3,6.8,2.7,11.9,4.4,15.3a77.916,77.916,0,0,0,5.1-6.9c2.1-3.1,3.9-5.6,5.4-7.7s3.4-4.4,5.6-7.1a34.112,34.112,0,0,1,6.6-6.2c2.2-1.5,4.5-2.9,7-4.3a16.307,16.307,0,0,1,8.1-2.1,30.489,30.489,0,0,1,9.2,1.3,8.961,8.961,0,0,1,4.3,4.7,25.887,25.887,0,0,1,1.7,8,47.464,47.464,0,0,0,.8,6.5c.8,3.7,1.6,7.3,2.2,10.9,2.2,21.8,10.3,64.2-13.4,74.5a8.528,8.528,0,0,1-11.8-8.1c.4-21.7,1.8-42.9-3.7-64.5-.2-2.4-1.5-2.4-4,.1a8.414,8.414,0,0,0-2.4,3.1c-11,18.9-13.9,42.5-24.6,61.4a24.76,24.76,0,0,1-7.5,4.4c-6,2.3-11,1.3-14.9-3.1-3.1-5.2-4.1-14-3.2-26.4s0-21.7-2.6-28c-2.6,5.3-6.1,14.4-10.5,27.4-4.5,12.9-8.5,22.7-12.2,29.4-2.5,4.1-6.6,6.3-12.2,6.8-5.7.5-9.5-1.1-11.3-4.9-3.4-6.7-5.4-16.7-6.2-29.9A284.314,284.314,0,0,0,1286.3,1121.3Z"/>
        </g>
        <g id="Group_12" data-name="Group 12">
          <path id="Path_15" data-name="Path 15" d="M1021,1156.5a86.248,86.248,0,0,1,.6-11.1c.3-2.5.6-5.3,1.1-8.4.4-3.1,1-6.6,1.6-10.3,2.5-15,2.1-26-1.2-32.8-.2-.6-.8-2-1.5-4.2a23.112,23.112,0,0,1-1.4-5c-.2-1.2-.4-2.6-.7-4.4a8.279,8.279,0,0,1,.5-4.5,8.441,8.441,0,0,1,2.8-3.2q25.65-17.1,55.5-9.8,29.85,7.35,48.4,32.4,15.6,20.55-24,51.5c.6,2.3,1.2,4.5,1.9,6.7s1.3,4.4,2,6.5c4.1,26.2,23.9,42.1,38.2,62.3,7.9,13-8.2,18.2-18.4,13.2-26.3-12.4-34.4-39-46.2-62.7a66.031,66.031,0,0,0-4.1-5.8,42.941,42.941,0,0,0-4.6-4.9q-3.15-3.3-11.4-2.1c-13.5,4.9-5.2,45.6-7.3,67.2-.6,4.9-1.1,9.8-2.7,13.8-1.7,3.1-5.7,5.1-9.9,5.4a15.017,15.017,0,0,1-6.3-.8,11.36,11.36,0,0,1-5.2-3.8c-12.7-24.2-6.6-50-7.4-79.6C1021,1159,1021,1157.1,1021,1156.5Zm30.9-40.9c-.2.4-.6,1.9-1.4,4.5a44.519,44.519,0,0,0-1.4,5.7,41.981,41.981,0,0,0-.5,4.8,7.8,7.8,0,0,0,.7,4.4,4.553,4.553,0,0,0,3,1.8,54.291,54.291,0,0,0,26-2.7,55.263,55.263,0,0,0,22.1-13.9,14.669,14.669,0,0,0,5.1-4.8c1.3-2.1,1.2-3.9-.3-5.6q-12.3-21.15-44.3-22c-3.4-.1-5.6,1.4-6.7,4.5a39.547,39.547,0,0,0-1.7,12.8A82.175,82.175,0,0,1,1051.9,1115.6Z"/>
        </g>
      </g>
      <g id="Group_15" data-name="Group 15">
        <g id="Group_14" data-name="Group 14">
          <path id="Path_16" data-name="Path 16" d="M1308.5,1269.8v13.3h12.8v-13.3a51.228,51.228,0,0,0,44.4-44.4H1379v-12.8h-13.3a51.228,51.228,0,0,0-44.4-44.4V1155h-12.8v13.3a51.228,51.228,0,0,0-44.4,44.4h-13.3v12.8h13.3a50.992,50.992,0,0,0,44.4,44.3Zm0-88.6v12.2h12.8v-12.2a38.394,38.394,0,0,1,31.4,31.4h-12.2v12.8h12.2a38.394,38.394,0,0,1-31.4,31.4v-12.2h-12.8v12.2a38.394,38.394,0,0,1-31.4-31.4h12.2v-12.8h-12.2a38.394,38.394,0,0,1,31.4-31.4Z" fill="#00c7a0"/>
          <circle id="Ellipse_1" data-name="Ellipse 1" cx="10.4" cy="10.4" r="10.4" transform="translate(1304.5 1208.7)" fill="#00c7a0"/>
        </g>
        <rect id="Rectangle_1" data-name="Rectangle 1" width="655" height="746" transform="translate(1265 1174)" fill="none"/>
      </g>
    </g>
  </g>
</svg>
