<svg width="962" height="153" viewBox="0 0 962 153" fill="none" xmlns="http://www.w3.org/2000/svg">
<path d="M493.19 152.19L499 125.08H507.38C513.38 125.08 518.15 126.55 516.69 133.42C515.69 138.34 511.61 141.57 505.53 141.75H501.29L499 152.19H493.19ZM502.19 137.25C505.46 137.1 509.42 138.25 510.44 133.42C511.46 128.59 507.01 129.73 503.82 129.58L502.19 137.25Z" fill="#293C70"/>
<path d="M528.83 152.76C522.66 152.76 519.83 148.7 521.1 142.76C522.37 136.82 526.91 132.76 533.1 132.76C539.29 132.76 542.1 136.81 540.81 142.76C539.52 148.71 535 152.76 528.83 152.76ZM529.62 149.01C533.08 149.01 534.33 145.77 534.97 142.77C535.61 139.77 535.73 136.53 532.27 136.53C528.81 136.53 527.57 139.77 526.93 142.77C526.29 145.77 526.17 149 529.62 149V149.01Z" fill="#293C70"/>
<path d="M559.37 149.87C558.577 150.798 557.588 151.538 556.474 152.038C555.361 152.537 554.15 152.784 552.93 152.76C551.06 152.76 547.71 151.33 547.62 148.59C547.593 147.583 547.68 146.577 547.88 145.59L550.48 133.35H556.12L553.72 144.66C553.32 146.66 553.39 149.02 556.17 149.02C557.94 149.02 559.82 147.4 560.48 144.66L562.88 133.35H568.51L565.22 148.83C565.02 149.95 564.86 151.08 564.73 152.2H559.1L559.37 149.87Z" fill="#293C70"/>
<path d="M582 133.34L581.38 136.76H581.46C583.29 133.76 585.86 133.04 588.66 133.12L587.59 138.12H585.15C584.023 138.237 582.968 138.726 582.15 139.51C581.417 140.498 580.917 141.64 580.69 142.85L578.69 152.2H573.1L576.27 137.11C576.43 136.31 576.66 134.74 576.87 133.35L582 133.34Z" fill="#293C70"/>
<path d="M624.6 125.08H630.24L625.24 148.44C624.97 149.68 624.81 150.96 624.62 152.19H619C619.12 151.29 619.22 150.43 619.42 149.53H619.34C618.591 150.539 617.615 151.357 616.491 151.918C615.367 152.479 614.126 152.767 612.87 152.76C607.36 152.76 605.87 147.61 606.87 142.76C607.95 137.69 611.96 132.76 617.87 132.76C618.794 132.755 619.7 133.009 620.487 133.493C621.274 133.978 621.909 134.673 622.32 135.5H622.4L624.6 125.08ZM615.46 149C618.46 149 620.3 145.34 620.85 142.76C621.4 140.18 621.16 136.52 618.11 136.52C614.51 136.52 613.34 139.86 612.74 142.76C612.14 145.66 611.86 149 615.46 149Z" fill="#293C70"/>
<path d="M639.19 144.27C638.67 146.71 638.52 149.01 641.42 149.01C642.26 149.075 643.099 148.873 643.817 148.433C644.535 147.993 645.096 147.338 645.42 146.56H650.49C649.01 151.22 645.04 152.76 640.64 152.76C634.19 152.76 632.37 149.11 633.71 142.76C634.92 137.09 639.15 132.76 644.89 132.76C648.42 132.76 651.09 133.96 651.97 137.27C652.252 138.373 652.327 139.519 652.19 140.65C652.058 141.861 651.854 143.063 651.58 144.25L639.19 144.27ZM646.53 140.52C646.96 138.45 646.81 136.52 644.06 136.52C641.47 136.52 640.5 138.44 639.99 140.52H646.53Z" fill="#293C70"/>
<path d="M659.05 133.34H665.05L666.54 146.11H666.62L673.62 133.34H679L668.16 152.19H662L659.05 133.34Z" fill="#293C70"/>
<path d="M684.46 138.67C684.654 137.673 685.074 136.734 685.688 135.924C686.302 135.115 687.092 134.456 688 134C689.817 133.143 691.812 132.732 693.82 132.8C697.61 132.8 701.56 134.19 700.35 139.86L698.17 150.15C698.071 150.833 698.011 151.52 697.99 152.21H692.93C692.984 151.366 693.098 150.528 693.27 149.7H693.2C692.45 150.69 691.474 151.486 690.354 152.022C689.234 152.558 688.001 152.818 686.76 152.78C683.22 152.78 681.02 150.78 681.81 147.07C682.141 145.717 682.796 144.464 683.717 143.419C684.638 142.374 685.799 141.568 687.1 141.07C689.531 140.233 692.105 139.893 694.67 140.07L695.05 138.3C695.115 138.006 695.109 137.701 695.033 137.41C694.957 137.119 694.813 136.85 694.613 136.626C694.413 136.401 694.162 136.227 693.882 136.119C693.602 136.01 693.299 135.969 693 136C692.257 136.039 691.548 136.326 690.988 136.815C690.428 137.305 690.048 137.969 689.91 138.7L684.46 138.67ZM687.38 146.3C687.277 146.627 687.256 146.975 687.319 147.312C687.382 147.649 687.528 147.966 687.742 148.234C687.957 148.502 688.234 148.713 688.549 148.848C688.864 148.983 689.208 149.039 689.55 149.01C692.67 149.01 693.55 145.55 693.99 143.33C692 143.3 688 143.26 687.38 146.3Z" fill="#293C70"/>
<path d="M715.25 135.52V135.64C716.032 134.713 717.012 133.975 718.118 133.48C719.225 132.985 720.428 132.746 721.64 132.78C723.52 132.78 726.86 134.17 726.96 136.91C726.99 137.917 726.899 138.924 726.69 139.91L724.09 152.19H718.5L720.92 140.85C721.3 138.85 721.23 136.53 718.45 136.53C716.69 136.53 714.81 138.11 714.15 140.85L711.74 152.19H706.11L710.11 133.34H715.71L715.25 135.52Z" fill="#293C70"/>
<path d="M745.37 140C745.66 138.45 745.37 136.57 743.24 136.57C740.82 136.57 739.83 141.08 739.45 142.57C739.23 144.29 738.26 149.07 740.66 149.07C742.84 149.07 743.93 146.92 744.3 145.38H749.78C748.57 150.19 745.05 152.82 739.87 152.82C734.27 152.82 732.51 147.82 733.57 142.82C734.63 137.82 738.51 132.82 744.11 132.82C748.91 132.82 751.9 135.56 750.93 140H745.37Z" fill="#293C70"/>
<path d="M761.94 144.27C761.42 146.71 761.27 149.01 764.16 149.01C765 149.075 765.839 148.873 766.557 148.433C767.275 147.993 767.836 147.338 768.16 146.56H773.23C771.75 151.22 767.78 152.76 763.39 152.76C756.93 152.76 755.11 149.11 756.45 142.76C757.66 137.09 761.88 132.76 767.64 132.76C771.17 132.76 773.83 133.96 774.71 137.27C774.996 138.373 775.074 139.519 774.94 140.65C774.806 141.862 774.595 143.064 774.31 144.25L761.94 144.27ZM769.27 140.52C769.71 138.45 769.56 136.52 766.82 136.52C764.08 136.52 763.25 138.44 762.74 140.52H769.27Z" fill="#293C70"/>
<path d="M788.64 133.34L788.02 136.76H788.1C789.93 133.76 792.49 133.04 795.29 133.12L794.23 138.12H791.79C790.663 138.237 789.608 138.726 788.79 139.51C788.049 140.495 787.546 141.638 787.32 142.85L785.32 152.2H779.72L782.89 137.11C783.06 136.31 783.28 134.74 783.49 133.35L788.64 133.34Z" fill="#293C70"/>
<path d="M831.24 125.08H836.88L831.88 148.44C831.61 149.68 831.45 150.96 831.26 152.19H825.63C825.74 151.29 825.85 150.43 826.04 149.53H826C825.25 150.54 824.272 151.359 823.146 151.92C822.02 152.481 820.778 152.769 819.52 152.76C814 152.76 812.52 147.61 813.52 142.76C814.59 137.69 818.61 132.76 824.52 132.76C825.442 132.756 826.347 133.01 827.132 133.495C827.917 133.979 828.55 134.674 828.96 135.5H829L831.24 125.08ZM822.11 149C825.11 149 826.94 145.34 827.49 142.76C828.04 140.18 827.8 136.52 824.76 136.52C821.15 136.52 819.99 139.86 819.38 142.76C818.77 145.66 818.51 149 822.11 149Z" fill="#293C70"/>
<path d="M845.64 144.27C845.13 146.71 844.98 149.01 847.87 149.01C848.71 149.075 849.549 148.873 850.267 148.433C850.985 147.993 851.546 147.338 851.87 146.56H856.94C855.45 151.22 851.48 152.76 847.09 152.76C840.64 152.76 838.81 149.11 840.15 142.76C841.36 137.09 845.58 132.76 851.34 132.76C854.86 132.76 857.54 133.96 858.42 137.27C858.699 138.374 858.77 139.52 858.63 140.65C858.503 141.862 858.299 143.064 858.02 144.25L845.64 144.27ZM852.98 140.52C853.41 138.45 853.26 136.52 850.52 136.52C847.78 136.52 846.95 138.44 846.44 140.52H852.98Z" fill="#293C70"/>
<path d="M872.65 135.56H872.73C873.523 134.658 874.505 133.941 875.605 133.461C876.706 132.98 877.899 132.748 879.1 132.78C881.2 132.78 884.01 134.28 884.36 136.34C886.64 133.9 888.64 132.78 891.5 132.78C893.6 132.78 896.4 134.28 896.75 136.34C896.923 137.855 896.786 139.389 896.35 140.85L894 152.19H888.36L890.77 140.85C891.17 138.85 891.08 136.53 888.31 136.53C886.55 136.53 884.67 138.11 884.01 140.85L881.6 152.19H875.97L878.38 140.85C878.77 138.85 878.69 136.53 875.92 136.53C874.15 136.53 872.27 138.11 871.61 140.85L869.2 152.19H863.58L867.58 133.34H873.18L872.65 135.56Z" fill="#293C70"/>
<path d="M905.3 138.67C905.492 137.668 905.913 136.724 906.528 135.911C907.144 135.098 907.938 134.437 908.85 133.98C910.664 133.125 912.656 132.714 914.66 132.78C918.46 132.78 922.41 134.17 921.2 139.84L919 150.13C918.901 150.813 918.841 151.5 918.82 152.19H913.76C913.815 151.346 913.928 150.508 914.1 149.68H914C913.252 150.672 912.277 151.47 911.156 152.006C910.035 152.542 908.802 152.8 907.56 152.76C904.03 152.76 901.83 150.76 902.62 147.05C902.949 145.697 903.601 144.444 904.521 143.399C905.44 142.354 906.6 141.548 907.9 141.05C910.331 140.214 912.905 139.874 915.47 140.05L915.85 138.28C915.923 137.98 915.921 137.666 915.845 137.367C915.769 137.067 915.622 136.791 915.415 136.561C915.208 136.331 914.948 136.156 914.658 136.049C914.368 135.943 914.056 135.909 913.75 135.95C913.007 135.986 912.298 136.272 911.739 136.762C911.179 137.253 910.803 137.918 910.67 138.65L905.3 138.67ZM908.22 146.3C908.117 146.627 908.096 146.975 908.159 147.312C908.222 147.649 908.368 147.966 908.582 148.234C908.797 148.502 909.074 148.713 909.389 148.848C909.704 148.983 910.048 149.039 910.39 149.01C913.51 149.01 914.39 145.55 914.83 143.33C912.88 143.3 908.87 143.26 908.22 146.3Z" fill="#293C70"/>
<path d="M936.51 133.34L932.51 152.19H926.87L930.87 133.34H936.51ZM938.45 125.08L937.45 129.92H931.45L932.45 125.08H938.45Z" fill="#293C70"/>
<path d="M950.1 135.52V135.64C950.881 134.713 951.862 133.975 952.968 133.48C954.075 132.985 955.278 132.746 956.49 132.78C958.37 132.78 961.72 134.17 961.81 136.91C961.842 137.917 961.755 138.924 961.55 139.91L959 152.19H953.37L955.78 140.85C956.17 138.85 956.09 136.53 953.32 136.53C951.55 136.53 949.67 138.11 949.02 140.85L946.61 152.19H941L945 133.34H950.59L950.1 135.52Z" fill="#293C70"/>
<path d="M360 36.58C362.132 37.8189 364.076 39.358 365.77 41.15C367.92 43.32 395.13 75.47 395.13 75.47V34.68H407.19V98.74C407.19 106.98 404.81 111.13 400.05 111.13C395.643 111.13 391.627 109.147 388 105.18C385 101.67 350.48 60.34 350.48 60.34V110.27H339V46.75C339.044 43.3126 340.333 40.008 342.63 37.45C343.652 36.3634 344.875 35.484 346.23 34.86C347.864 34.1662 349.641 33.878 351.41 34.02C354.434 34.1915 357.376 35.0682 360 36.58Z" fill="#293C70"/>
<path d="M557.9 36.58C560.036 37.8184 561.982 39.3575 563.68 41.15C565.82 43.32 593 75.47 593 75.47V34.68H605.1V98.74C605.1 106.98 602.71 111.13 597.95 111.13C593.537 111.13 589.537 109.147 585.95 105.18C582.89 101.67 548.42 60.34 548.42 60.34V110.27H536.84V46.75C536.88 43.3138 538.166 40.0089 540.46 37.45C541.482 36.3634 542.705 35.484 544.06 34.86C545.694 34.1662 547.471 33.878 549.24 34.02C552.288 34.1806 555.255 35.0577 557.9 36.58Z" fill="#293C70"/>
<path d="M418.77 36.4H483.66V47.6H463.29V111.13H438.29V47.6H418.77V36.4Z" fill="#293C70"/>
<path d="M499.3 41.66H521.37V111.13H499.3V41.66Z" fill="#293C70"/>
<path d="M733.54 111.13C725.04 111.13 719.18 110.227 715.96 108.42C712.72 106.6 711.11 103.22 711.11 98.23V0H732V94C731.986 95.2782 732.1 96.5545 732.34 97.81C733.09 102 740.83 102 740.83 102H749.66V111.11L741.53 111.18L733.54 111.13Z" fill="#293C70"/>
<path d="M784.13 111.13C775.63 111.13 769.773 110.227 766.56 108.42C763.33 106.6 761.71 103.22 761.71 98.23V0H782.59V94C782.578 95.2785 782.695 96.555 782.94 97.81C783.69 102 791.43 102 791.43 102H800.26V111.11L792.14 111.18L784.13 111.13Z" fill="#293C70"/>
<path d="M22.42 111.13C13.92 111.13 8.06 110.227 4.84 108.42C1.61 106.6 0 103.22 0 98.23V0H20.88V94C20.8682 95.2785 20.9854 96.555 21.23 97.81C22 102 29.72 102 29.72 102H38.55V111.11L30.42 111.18L22.42 111.13Z" fill="#293C70"/>
<path d="M316.89 36.4C312.572 35.955 308.23 35.778 303.89 35.87H173.55C168.36 35.87 165.01 37.12 163.55 39.57C162.09 42.02 161.31 47.46 161.31 55.85V66.56L245.16 66.62V110.62C244.54 121.62 235.81 122.47 233.16 122.47H118.78C122.069 129.703 127.367 135.839 134.043 140.147C140.72 144.455 148.494 146.754 156.44 146.77H219.88C229.841 146.75 239.461 143.137 246.974 136.596C254.487 130.055 259.389 121.024 260.78 111.16H325.94L325.25 101.98L277.47 102.65C271.13 102.65 266.96 102.11 264.99 101.01C263.02 99.91 261.99 97.76 261.99 94.52V78.52H302.99H326V47.18C326 47.18 326.34 37.29 316.89 36.4ZM286.13 68.49H262V60.28C262 53.91 262.56 49.77 263.7 47.89C264.84 46.01 267.37 45.06 271.33 45.06H293.68C297.68 45.06 300.21 45.98 301.32 47.89C302.43 49.8 303.03 53.89 303.03 60.28V68.49H286.13Z" fill="#293C70"/>
<path d="M59.05 110.62C63.3675 111.075 67.7096 111.256 72.05 111.16H202.38C207.57 111.16 210.92 109.92 212.38 107.46C213.84 105 214.61 99.57 214.61 91.18V80.47L130.77 80.41V36.41C131.39 25.41 140.12 24.57 142.77 24.57H257.15C253.861 17.3381 248.563 11.2043 241.886 6.89942C235.209 2.59458 227.435 0.300307 219.49 0.290009H156.06C146.097 0.310014 136.476 3.92189 128.962 10.4629C121.447 17.0039 116.543 26.0353 115.15 35.9H50L50.68 45.08L98.47 44.41C104.8 44.41 108.97 44.96 110.94 46.05C112.91 47.14 113.94 49.3 113.94 52.55V68.55H72.94H50V99.86C50 99.86 49.59 109.74 59.05 110.62ZM89.81 78.55H113.91V86.76C113.91 93.12 113.35 97.26 112.21 99.14C111.07 101.02 108.54 101.98 104.57 101.98H82.22C78.22 101.98 75.7 101.05 74.58 99.14C73.46 97.23 72.88 93.14 72.88 86.76V78.55H89.81Z" fill="#293C70"/>
<path d="M630.86 111.68H697.46L696.77 102.44L660.27 103.13C653.89 103.13 649.69 102.56 647.69 101.45C645.69 100.34 644.69 98.16 644.69 94.91V78.83H697.48V47.25C697.64 39.33 690.69 36.97 688.31 36.41C683.964 35.9795 679.596 35.8092 675.23 35.9H643.88C639.51 35.8096 635.139 35.9799 630.79 36.41C628.323 37.039 626.114 38.4209 624.468 40.3636C622.823 42.3063 621.824 44.7133 621.61 47.25V102.55C621.61 111.86 630.86 111.68 630.86 111.68ZM644.71 68.74V60.46C644.71 54.03 645.27 49.88 646.43 47.98C647.59 46.08 650.13 45.14 654.12 45.14H665C669 45.14 671.55 46.08 672.69 47.98C673.83 49.88 674.4 54.03 674.4 60.46V68.74H644.71Z" fill="#293C70"/>
<path d="M820.49 111.68H887.1L886.4 102.44L849.9 103.13C843.53 103.13 839.33 102.56 837.33 101.45C835.33 100.34 834.33 98.16 834.33 94.91V78.83H887.12V47.25C887.28 39.33 880.33 36.97 877.95 36.41C873.604 35.9795 869.236 35.8092 864.87 35.9H833.52C829.147 35.8099 824.773 35.9802 820.42 36.41C817.955 37.0408 815.748 38.4234 814.104 40.366C812.461 42.3085 811.463 44.7146 811.25 47.25V102.55C811.25 111.86 820.49 111.68 820.49 111.68ZM834.35 68.74V60.46C834.35 54.03 834.91 49.88 836.06 47.98C837.21 46.08 839.77 45.14 843.76 45.14H854.65C858.65 45.14 861.2 46.08 862.34 47.98C863.48 49.88 864.05 54.03 864.05 60.46V68.74H834.35Z" fill="#293C70"/>
<path d="M521.28 12.91C521.28 15.0856 520.635 17.2123 519.426 19.0213C518.217 20.8302 516.499 22.2401 514.49 23.0727C512.48 23.9052 510.268 24.1231 508.134 23.6986C506 23.2742 504.04 22.2266 502.502 20.6882C500.963 19.1498 499.916 17.1898 499.491 15.056C499.067 12.9222 499.285 10.7105 500.117 8.70049C500.95 6.6905 502.36 4.97253 504.169 3.76384C505.978 2.55514 508.104 1.91 510.28 1.91C513.197 1.91 515.995 3.06893 518.058 5.13183C520.121 7.19473 521.28 9.99262 521.28 12.91Z" fill="#293C70"/>
</svg>
