<svg id="Layer_1" data-name="Layer 1" xmlns="http://www.w3.org/2000/svg" viewBox="0 0 211.48 341.21"><defs><style>.cls-1{fill:#e49523;}.cls-2{fill:#d62f70;}.cls-3{fill:#943171;}.cls-4{fill:#842f72;}.cls-5{fill:#292c2a;}.cls-6{fill:#008d49;}.cls-7{fill:#fff;}.cls-8{fill:#1d1d1b;}</style></defs><rect class="cls-1" x="84.66" y="11.7" width="43.32" height="36.46"/><polygon class="cls-2" points="197.37 259.59 197.37 249.4 197.37 239.19 190.33 239.19 183.27 239.19 176.23 239.19 176.23 249.4 169.16 249.4 162.12 249.4 155.08 249.4 148.02 249.4 140.98 249.4 133.91 249.4 126.87 249.4 119.83 249.4 112.77 249.4 105.73 249.4 98.69 249.4 91.62 249.4 84.58 249.4 77.54 249.4 70.48 249.4 63.44 249.4 56.37 249.4 49.33 249.4 49.33 259.59 49.33 269.8 56.37 269.8 56.37 279.99 63.44 279.99 63.44 290.2 70.48 290.2 77.54 290.2 77.54 300.41 84.58 300.41 91.62 300.41 91.62 310.6 98.69 310.6 105.73 310.6 112.77 310.6 119.83 310.6 126.87 310.6 133.91 310.6 140.98 310.6 148.02 310.6 155.08 310.6 162.12 310.6 169.16 310.6 176.23 310.6 176.23 300.41 183.27 300.41 190.33 300.41 197.37 300.41 204.44 300.41 204.44 290.2 204.44 279.99 204.44 269.8 204.44 259.59 197.37 259.59"/><polygon class="cls-3" points="190.33 300.41 183.27 300.41 176.23 300.41 176.23 310.6 169.16 310.6 162.12 310.6 155.08 310.6 148.02 310.6 140.98 310.6 133.91 310.6 126.87 310.6 119.83 310.6 112.77 310.6 105.73 310.6 98.69 310.6 91.62 310.6 91.62 300.41 84.58 300.41 77.54 300.41 77.54 290.2 70.48 290.2 63.44 290.2 63.44 279.99 56.37 279.99 56.37 269.8 49.33 269.8 49.33 259.59 49.33 249.4 42.29 249.4 35.25 249.4 28.18 249.4 28.18 239.19 28.18 229 21.12 229 21.12 239.19 14.08 239.19 14.08 249.4 14.08 259.59 7.04 259.59 7.04 269.8 7.04 279.99 7.04 290.2 14.08 290.2 14.08 300.41 14.08 310.6 21.12 310.6 21.12 320.81 28.18 320.81 35.25 320.81 35.25 330.99 42.29 330.99 49.33 330.99 56.37 330.99 63.44 330.99 70.48 330.99 77.54 330.99 84.58 330.99 91.62 330.99 98.69 330.99 105.73 330.99 112.77 330.99 119.83 330.99 126.87 330.99 133.91 330.99 140.98 330.99 148.02 330.99 155.08 330.99 162.12 330.99 169.16 330.99 176.23 330.99 176.23 320.81 183.27 320.81 190.33 320.81 190.33 310.6 197.37 310.6 197.37 300.41 190.33 300.41"/><polygon class="cls-4" points="183.27 229 176.23 229 169.16 229 162.12 229 155.08 229 155.08 218.79 148.02 218.79 140.98 218.79 133.91 218.79 126.87 218.79 119.83 218.79 112.77 218.79 105.73 218.79 98.69 218.79 91.62 218.79 84.58 218.79 77.54 218.79 70.48 218.79 63.44 218.79 56.37 218.79 56.37 229 49.33 229 42.29 229 35.25 229 28.18 229 28.18 239.19 28.18 249.4 35.25 249.4 42.29 249.4 49.33 249.4 56.37 249.4 63.44 249.4 70.48 249.4 77.54 249.4 84.58 249.4 91.62 249.4 98.69 249.4 105.73 249.4 112.77 249.4 119.83 249.4 126.87 249.4 133.91 249.4 140.98 249.4 148.02 249.4 155.08 249.4 162.12 249.4 169.16 249.4 176.23 249.4 176.23 239.19 183.27 239.19 190.33 239.19 190.33 229 183.27 229"/><rect class="cls-5" x="133.91" y="178" width="7.07" height="10.19"/><polygon class="cls-6" points="162.12 208.58 162.12 198.4 155.08 198.4 155.08 188.18 148.02 188.18 140.98 188.18 133.91 188.18 133.91 178 126.87 178 126.87 167.79 126.87 157.6 126.87 147.39 126.87 137.2 126.87 126.99 126.87 116.81 126.87 106.59 126.87 96.38 126.87 86.2 126.87 75.98 119.83 75.98 112.77 75.98 105.73 75.98 98.69 75.98 91.62 75.98 84.58 75.98 84.58 86.2 84.58 96.38 84.58 106.59 84.58 116.81 84.58 126.99 84.58 137.2 84.58 147.39 84.58 157.6 84.58 167.79 84.58 178 77.54 178 77.54 188.18 70.48 188.18 63.44 188.18 56.37 188.18 56.37 198.4 49.33 198.4 49.33 208.58 42.29 208.58 35.25 208.58 35.25 218.79 28.18 218.79 28.18 229 35.25 229 42.29 229 49.33 229 56.37 229 56.37 218.79 63.44 218.79 70.48 218.79 77.54 218.79 84.58 218.79 91.62 218.79 98.69 218.79 105.73 218.79 112.77 218.79 119.83 218.79 126.87 218.79 133.91 218.79 140.98 218.79 148.02 218.79 155.08 218.79 155.08 229 162.12 229 169.16 229 176.23 229 183.27 229 183.27 218.79 176.23 218.79 176.23 208.58 169.16 208.58 162.12 208.58"/><polygon class="cls-6" points="70.48 55.59 70.48 65.8 77.54 65.8 84.58 65.8 91.62 65.8 98.69 65.8 105.73 65.8 112.77 65.8 119.83 65.8 126.87 65.8 133.91 65.8 140.98 65.8 140.98 55.59 140.98 45.38 133.91 45.38 126.87 45.38 119.83 45.38 112.77 45.38 105.73 45.38 98.69 45.38 91.62 45.38 84.58 45.38 77.54 45.38 70.48 45.38 63.44 45.38 63.44 55.59 70.48 55.59"/><polygon class="cls-7" points="148.02 226.76 156.35 226.76 156.35 236.2 164.7 236.2 164.7 245.66 173.03 245.66 173.03 236.2 173.03 226.76 173.03 217.3 164.7 217.3 164.7 207.86 156.35 207.86 148.02 207.86 148.02 198.4 139.69 198.4 131.36 198.4 123.03 198.4 123.03 207.86 123.03 217.3 131.36 217.3 139.69 217.3 139.69 226.76 148.02 226.76"/><rect class="cls-7" x="116.3" y="45.38" width="31.72" height="10.21"/><polygon class="cls-8" points="148.02 178 148.02 178 140.98 178 140.98 188.18 148.02 188.18 148.02 188.18 155.08 188.18 155.08 178 148.02 178"/><rect class="cls-8" x="70.48" y="178" width="7.06" height="10.19"/><polygon class="cls-8" points="63.44 65.8 70.48 65.8 70.48 75.98 77.54 75.98 77.54 86.2 77.54 96.38 77.54 106.59 77.54 116.81 77.54 126.99 77.54 137.2 77.54 147.39 77.54 157.6 77.54 167.79 77.54 178 84.58 178 84.58 167.79 84.58 157.6 84.58 147.39 84.58 137.2 84.58 126.99 84.58 116.81 84.58 106.59 84.58 96.38 84.58 86.2 84.58 75.98 91.62 75.98 98.69 75.98 105.73 75.98 112.77 75.98 119.83 75.98 126.87 75.98 126.87 86.2 126.87 96.38 126.87 106.59 126.87 116.81 126.87 126.99 126.87 137.2 126.87 147.39 126.87 157.6 126.87 167.79 126.87 178 133.91 178 133.91 167.79 133.91 157.6 133.91 147.39 133.91 137.2 133.91 126.99 133.91 116.81 133.91 106.59 133.91 96.38 133.91 86.2 133.91 75.98 140.98 75.98 140.98 65.8 133.91 65.8 126.87 65.8 119.83 65.8 112.77 65.8 105.73 65.8 98.69 65.8 91.62 65.8 84.58 65.8 77.54 65.8 70.48 65.8 70.48 55.59 63.44 55.59 63.44 45.38 56.37 45.38 56.37 55.59 56.37 65.8 63.44 65.8 63.44 65.8"/><polygon class="cls-8" points="162.12 330.99 155.08 330.99 148.02 330.99 140.98 330.99 133.91 330.99 126.87 330.99 119.83 330.99 112.77 330.99 105.73 330.99 98.69 330.99 91.62 330.99 84.58 330.99 77.54 330.99 70.48 330.99 63.44 330.99 56.37 330.99 49.33 330.99 42.29 330.99 35.25 330.99 35.25 341.2 42.29 341.2 49.33 341.2 56.37 341.2 63.44 341.2 70.48 341.2 77.54 341.2 84.58 341.2 91.62 341.2 98.69 341.2 105.73 341.2 112.77 341.2 119.83 341.2 126.87 341.2 133.91 341.2 140.98 341.2 148.02 341.2 155.08 341.2 162.12 341.2 169.16 341.2 176.23 341.2 176.23 330.99 169.16 330.99 162.12 330.99"/><polygon class="cls-8" points="176.23 320.81 176.23 330.99 183.27 330.99 190.33 330.99 190.33 320.81 183.27 320.81 176.23 320.81"/><polygon class="cls-8" points="28.18 320.81 21.12 320.81 21.12 330.99 28.18 330.99 35.25 330.99 35.25 320.81 28.18 320.81"/><rect class="cls-8" x="190.33" y="310.6" width="7.04" height="10.21"/><rect class="cls-8" x="14.08" y="310.6" width="7.04" height="10.21"/><rect class="cls-8" x="197.37" y="300.41" width="7.06" height="10.19"/><polygon class="cls-8" points="14.08 290.2 7.04 290.2 7.04 279.99 7.04 269.8 7.04 259.59 14.08 259.59 14.08 249.4 14.08 239.19 7.04 239.19 7.04 249.4 0 249.4 0 259.59 0 269.8 0 279.99 0 290.2 0 300.41 7.04 300.41 7.04 310.6 14.08 310.6 14.08 300.41 14.08 290.2"/><polygon class="cls-8" points="204.44 249.4 204.44 239.19 197.37 239.19 197.37 249.4 197.37 259.59 204.44 259.59 204.44 269.8 204.44 279.99 204.44 290.2 204.44 300.41 211.48 300.41 211.48 290.2 211.48 279.99 211.48 269.8 211.48 259.59 211.48 249.4 204.44 249.4"/><rect class="cls-8" x="190.33" y="229.01" width="7.04" height="10.19"/><rect class="cls-8" x="14.08" y="229.01" width="7.04" height="10.19"/><polygon class="cls-8" points="28.18 218.79 35.25 218.79 35.25 208.58 28.18 208.58 21.12 208.58 21.12 218.79 21.12 229 28.18 229 28.18 218.79"/><polygon class="cls-8" points="190.33 208.58 183.27 208.58 176.23 208.58 176.23 218.79 183.27 218.79 183.27 229 190.33 229 190.33 218.79 190.33 208.58"/><polygon class="cls-8" points="169.16 198.4 169.16 188.18 162.12 188.18 155.08 188.18 155.08 198.4 162.12 198.4 162.12 208.58 169.16 208.58 176.23 208.58 176.23 198.4 169.16 198.4"/><polygon class="cls-8" points="49.33 208.58 49.33 198.4 42.29 198.4 35.25 198.4 35.25 208.58 42.29 208.58 49.33 208.58"/><rect class="cls-8" x="49.33" y="188.18" width="7.04" height="10.21"/><polygon class="cls-8" points="70.48 188.18 70.48 178 63.44 178 56.37 178 56.37 188.18 63.44 188.18 70.48 188.18"/><polygon class="cls-8" points="140.98 55.59 140.98 65.8 148.02 65.8 155.08 65.8 155.08 55.59 155.08 45.38 148.02 45.38 148.02 55.59 140.98 55.59"/><polygon class="cls-8" points="77.54 45.38 84.58 45.38 91.62 45.38 98.69 45.38 105.73 45.38 112.77 45.38 119.83 45.38 126.87 45.38 133.91 45.38 140.98 45.38 148.02 45.38 148.02 35.19 140.98 35.19 136.67 35.19 136.67 11.7 127.95 11.7 127.95 35.19 126.87 35.19 119.83 35.19 112.77 35.19 105.73 35.19 98.69 35.19 91.62 35.19 84.66 35.19 84.66 11.7 75.94 11.7 75.94 35.19 70.48 35.19 63.44 35.19 63.44 45.38 70.48 45.38 77.54 45.38"/><rect class="cls-8" x="84.66" y="2.08" width="43.3" height="9.62"/><rect class="cls-7" x="116.3" y="84.6" width="10.57" height="88.91"/></svg>