<svg id="Layer_1" data-name="Layer 1" xmlns="http://www.w3.org/2000/svg" viewBox="0 0 333.61 266.53"><defs><style>.cls-1{fill:#313533;}.cls-2{fill:#222523;}.cls-3{fill:#272726;}.cls-4{fill:#282827;}.cls-5{fill:#6099ae;}.cls-6{fill:#55686c;}.cls-7{fill:#cfe6f2;}.cls-8{fill:#5f7a83;}.cls-9{fill:#6196aa;}.cls-10{fill:#272b28;}.cls-11{fill:#616d72;}.cls-12{fill:#d1e7f2;}.cls-13{fill:#2a2a28;}.cls-14{fill:#00b2e3;}.cls-15{fill:#8bcff2;}.cls-16{fill:#1d1d1b;}.cls-17{fill:#fff;}</style></defs><rect class="cls-1" x="173.47" y="253.82" width="6.68" height="13.38"/><rect class="cls-2" x="140.1" y="240.46" width="6.68" height="13.36"/><rect class="cls-3" x="206.84" y="160.32" width="6.68" height="13.36"/><rect class="cls-4" x="133.42" y="160.32" width="6.68" height="13.36"/><rect class="cls-5" x="33.34" y="133.6" width="6.68" height="13.36"/><rect class="cls-6" x="220.17" y="93.53" width="6.68" height="13.33"/><rect class="cls-7" x="193.48" y="80.15" width="6.68" height="13.38"/><rect class="cls-8" x="120.09" y="80.15" width="6.68" height="13.38"/><rect class="cls-9" x="126.77" y="66.79" width="6.65" height="13.36"/><rect class="cls-10" x="46.7" y="53.43" width="6.68" height="13.36"/><rect class="cls-11" x="240.21" y="40.07" width="6.65" height="13.36"/><rect class="cls-12" x="173.47" y="40.07" width="6.68" height="13.36"/><rect class="cls-13" x="140.1" y="40.07" width="6.68" height="13.36"/><rect class="cls-13" x="153.46" y="26.72" width="6.65" height="13.36"/><polygon class="cls-14" points="146.78 213.75 140.1 213.75 140.1 200.39 133.42 200.39 133.42 187.03 133.42 173.68 126.77 173.68 126.77 160.29 120.09 160.29 120.09 146.96 120.09 133.6 113.41 133.6 113.41 120.25 106.73 120.25 100.08 120.25 93.4 120.25 86.72 120.25 80.07 120.25 73.39 120.25 66.71 120.25 60.03 120.25 53.38 120.25 46.7 120.25 40.02 120.25 33.34 120.25 26.69 120.25 20.01 120.25 20.01 133.6 26.69 133.6 33.34 133.6 40.02 133.6 40.02 146.96 46.7 146.96 53.38 146.96 53.38 160.29 60.03 160.29 66.71 160.29 66.71 173.68 73.39 173.68 80.07 173.68 80.07 187.03 86.72 187.03 93.4 187.03 93.4 200.39 100.08 200.39 106.73 200.39 113.41 200.39 113.41 213.75 120.09 213.75 126.77 213.75 126.77 227.11 133.42 227.11 140.1 227.11 140.1 240.47 146.78 240.47 153.46 240.47 153.46 227.11 146.78 227.11 146.78 213.75"/><polygon class="cls-14" points="186.8 213.75 186.8 200.39 186.8 187.03 193.48 187.03 193.48 173.68 200.16 173.68 200.16 160.29 206.84 160.29 206.84 146.96 213.52 146.96 213.52 133.6 213.52 120.25 206.84 120.25 200.16 120.25 193.48 120.25 186.8 120.25 180.15 120.25 173.47 120.25 166.79 120.25 160.11 120.25 153.46 120.25 146.78 120.25 140.1 120.25 133.42 120.25 126.77 120.25 126.77 133.6 126.77 146.96 133.42 146.96 133.42 160.29 140.1 160.29 140.1 173.68 140.1 187.03 146.78 187.03 146.78 200.39 153.46 200.39 153.46 213.75 153.46 227.11 160.11 227.11 160.11 240.47 166.79 240.47 173.47 240.47 173.47 227.11 180.15 227.11 180.15 213.75 186.8 213.75"/><rect class="cls-14" x="246.86" y="173.68" width="6.68" height="13.36"/><rect class="cls-14" x="260.22" y="160.29" width="6.65" height="13.38"/><rect class="cls-14" x="273.55" y="146.96" width="6.68" height="13.33"/><rect class="cls-14" x="286.88" y="133.6" width="6.68" height="13.36"/><rect class="cls-14" x="306.92" y="120.25" width="6.65" height="13.36"/><polygon class="cls-14" points="266.87 120.25 260.22 120.25 253.54 120.25 246.86 120.25 240.21 120.25 233.53 120.25 226.85 120.25 226.85 133.6 220.17 133.6 220.17 146.96 213.52 146.96 213.52 160.29 213.52 173.68 206.84 173.68 206.84 187.03 200.16 187.03 200.16 200.39 193.48 200.39 193.48 213.75 186.8 213.75 186.8 227.11 180.15 227.11 180.15 240.47 186.8 240.47 193.48 240.47 193.48 227.11 200.16 227.11 206.84 227.11 206.84 213.75 213.52 213.75 220.17 213.75 220.17 200.39 226.85 200.39 233.53 200.39 233.53 187.03 233.53 173.68 240.21 173.68 246.86 173.68 246.86 160.29 253.54 160.29 253.54 146.96 260.22 146.96 266.87 146.96 266.87 133.6 273.55 133.6 280.23 133.6 280.23 120.25 273.55 120.25 266.87 120.25"/><polygon class="cls-14" points="186.8 40.07 193.48 40.07 193.48 53.43 200.16 53.43 200.16 66.79 206.84 66.79 206.84 80.15 213.52 80.15 213.52 93.53 220.17 93.53 226.85 93.53 226.85 80.15 226.85 66.79 233.53 66.79 233.53 53.43 233.53 40.07 233.53 26.72 240.21 26.72 240.21 13.36 233.53 13.36 226.85 13.36 220.17 13.36 213.52 13.36 206.84 13.36 200.16 13.36 193.48 13.36 186.8 13.36 180.15 13.36 180.15 26.72 186.8 26.72 186.8 40.07"/><polygon class="cls-14" points="100.08 40.07 100.08 53.43 106.73 53.43 106.73 66.79 113.41 66.79 113.41 80.15 113.41 93.53 120.09 93.53 120.09 80.15 126.77 80.15 126.77 66.79 133.42 66.79 133.42 53.43 140.1 53.43 140.1 40.07 146.78 40.07 146.78 26.72 153.46 26.72 153.46 13.36 146.78 13.36 140.1 13.36 133.42 13.36 126.77 13.36 120.09 13.36 113.41 13.36 106.73 13.36 100.08 13.36 93.4 13.36 93.4 26.72 100.08 26.72 100.08 40.07"/><rect class="cls-15" x="240.21" y="173.68" width="6.65" height="13.36"/><polygon class="cls-15" points="293.56 120.25 286.88 120.25 280.23 120.25 280.23 133.6 286.88 133.6 293.56 133.6 300.24 133.6 306.92 133.6 306.92 120.25 300.24 120.25 293.56 120.25"/><rect class="cls-15" x="113.41" y="93.53" width="6.68" height="13.33"/><polygon class="cls-15" points="266.87 80.15 266.87 66.79 260.22 66.79 260.22 53.43 260.22 40.07 253.54 40.07 253.54 26.72 253.54 13.36 246.86 13.36 246.86 26.72 246.86 40.07 246.86 53.43 240.21 53.43 240.21 66.79 240.21 80.15 233.53 80.15 233.53 93.53 233.53 106.86 240.21 106.86 246.86 106.86 253.54 106.86 260.22 106.86 266.87 106.86 273.55 106.86 273.55 93.53 266.87 93.53 266.87 80.15"/><polygon class="cls-15" points="206.84 80.15 200.16 80.15 200.16 93.53 200.16 106.86 206.84 106.86 213.52 106.86 213.52 93.53 206.84 93.53 206.84 80.15"/><polygon class="cls-15" points="100.08 80.15 100.08 66.79 93.4 66.79 93.4 53.43 93.4 40.07 86.72 40.07 86.72 26.72 86.72 13.36 80.07 13.36 80.07 26.72 73.39 26.72 73.39 40.07 66.71 40.07 60.03 40.07 60.03 53.43 53.38 53.43 53.38 66.79 46.7 66.79 40.02 66.79 40.02 80.15 33.34 80.15 33.34 93.53 26.69 93.53 20.01 93.53 20.01 106.86 26.69 106.86 33.34 106.86 40.02 106.86 46.7 106.86 53.38 106.86 60.03 106.86 66.71 106.86 73.39 106.86 80.07 106.86 86.72 106.86 93.4 106.86 100.08 106.86 106.73 106.86 106.73 93.53 100.08 93.53 100.08 80.15"/><polygon class="cls-15" points="193.48 66.79 186.8 66.79 186.8 80.15 193.48 80.15 200.16 80.15 200.16 66.79 193.48 66.79"/><rect class="cls-15" x="106.73" y="66.79" width="6.68" height="13.36"/><rect class="cls-15" x="180.15" y="53.43" width="6.65" height="13.36"/><polygon class="cls-15" points="160.11 26.72 160.11 40.07 153.46 40.07 153.46 53.43 146.78 53.43 146.78 66.79 140.1 66.79 140.1 80.15 133.42 80.15 133.42 93.53 126.77 93.53 126.77 106.86 133.42 106.86 140.1 106.86 146.78 106.86 153.46 106.86 160.11 106.86 166.79 106.86 166.79 93.53 166.79 80.15 166.79 66.79 166.79 53.43 166.79 40.07 173.47 40.07 173.47 26.72 166.79 26.72 160.11 26.72"/><polygon class="cls-16" points="86.72 187.03 80.07 187.03 80.07 173.68 73.39 173.68 66.71 173.68 66.71 187.03 73.39 187.03 80.07 187.03 80.07 200.39 86.72 200.39 86.72 200.39 93.4 200.39 93.4 187.03 86.72 187.03 86.72 187.03"/><polygon class="cls-16" points="173.47 26.72 173.47 40.07 180.15 40.07 180.15 53.43 186.8 53.43 186.8 66.79 193.48 66.79 200.16 66.79 200.16 53.43 193.48 53.43 193.48 40.07 186.8 40.07 186.8 26.72 180.15 26.72 180.15 26.72 173.47 26.72"/><polygon class="cls-16" points="206.84 240.47 206.84 227.11 200.16 227.11 193.48 227.11 193.48 240.47 200.16 240.47 206.84 240.47"/><polygon class="cls-16" points="173.47 240.47 166.79 240.47 160.11 240.47 160.11 227.11 153.46 227.11 153.46 240.47 146.78 240.47 146.78 253.82 153.46 253.82 153.46 267.21 160.11 267.21 166.79 267.21 173.47 267.21 173.47 253.82 180.15 253.82 186.8 253.82 193.48 253.82 193.48 240.47 186.8 240.47 180.15 240.47 180.15 227.11 173.47 227.11 173.47 240.47"/><polygon class="cls-16" points="126.77 227.11 126.77 240.47 133.42 240.47 140.1 240.47 140.1 227.11 133.42 227.11 126.77 227.11"/><polygon class="cls-16" points="220.17 227.11 220.17 213.75 213.52 213.75 206.84 213.75 206.84 227.11 213.52 227.11 220.17 227.11"/><rect class="cls-16" x="180.15" y="213.75" width="6.65" height="13.36"/><polygon class="cls-16" points="120.09 213.75 113.41 213.75 113.41 227.11 120.09 227.11 126.77 227.11 126.77 213.75 120.09 213.75"/><polygon class="cls-16" points="233.53 213.75 233.53 200.39 240.21 200.39 240.21 200.39 246.86 200.39 246.86 187.03 240.21 187.03 240.21 187.03 233.53 187.03 233.53 200.39 226.85 200.39 220.17 200.39 220.17 213.75 226.85 213.75 233.53 213.75"/><polygon class="cls-16" points="153.46 200.39 146.78 200.39 146.78 187.03 140.1 187.03 140.1 187.03 140.1 173.68 133.42 173.68 133.42 187.03 133.42 200.39 140.1 200.39 140.1 213.75 146.78 213.75 146.78 227.11 153.46 227.11 153.46 213.75 153.46 200.39"/><polygon class="cls-16" points="106.73 200.39 100.08 200.39 100.08 213.75 106.73 213.75 113.41 213.75 113.41 200.39 106.73 200.39"/><polygon class="cls-16" points="253.54 173.68 253.54 187.03 260.22 187.03 260.22 187.03 266.87 187.03 266.87 173.68 260.22 173.68 253.54 173.68"/><polygon class="cls-16" points="266.87 160.29 266.87 173.68 273.55 173.68 280.23 173.68 280.23 160.29 273.55 160.29 266.87 160.29"/><polygon class="cls-16" points="200.16 173.68 193.48 173.68 193.48 187.03 186.8 187.03 186.8 200.39 186.8 213.75 193.48 213.75 193.48 200.39 200.16 200.39 200.16 187.03 206.84 187.03 206.84 173.68 206.84 160.29 200.16 160.29 200.16 173.68"/><polygon class="cls-16" points="60.03 160.29 53.38 160.29 53.38 173.68 60.03 173.68 66.71 173.68 66.71 160.29 60.03 160.29"/><polygon class="cls-16" points="280.23 146.96 280.23 160.29 286.88 160.29 293.56 160.29 293.56 146.96 286.88 146.96 280.23 146.96"/><rect class="cls-16" x="206.84" y="146.96" width="6.68" height="13.33"/><polygon class="cls-16" points="133.42 146.96 126.77 146.96 126.77 146.96 120.09 146.96 120.09 160.29 126.77 160.29 126.77 173.68 133.42 173.68 133.42 160.29 133.42 146.96"/><polygon class="cls-16" points="46.7 146.96 40.02 146.96 40.02 160.29 46.7 160.29 53.38 160.29 53.38 146.96 46.7 146.96"/><polygon class="cls-16" points="293.56 133.6 293.56 146.96 300.24 146.96 306.92 146.96 306.92 133.6 300.24 133.6 293.56 133.6"/><path class="cls-16" d="M326.93,106.86h-6.65V93.53h-6.71V80.15H300.24V93.53h6.68v13.33H233.53V80.15h6.68V40.07h6.65V13.36h6.68V0H80.07V13.36h6.65V40.07H93.4V66.79h6.68V93.53h6.65v13.33H20V93.53H13.33v13.33H0v13.39H6.65V133.6H20V147H33.34V133.6H20V120.25h93.4V133.6h6.68V147h6.68V133.6h0V120.25h86.75V133.6h0V147h6.65V133.6h6.68V120.25h86.72V133.6h6.71V120.25h13.33V106.86ZM226.85,66.79v40.07h-6.68V93.53h-6.65v13.33H126.77V93.53h-6.68v13.33h-6.68V80.15h-6.68V53.43h-6.65V26.72H93.4V13.36h60.06V26.72h26.69V13.36h60.06V26.72h-6.68V66.79Z"/><rect class="cls-16" x="206.84" y="80.15" width="6.68" height="13.38"/><rect class="cls-16" x="126.77" y="80.15" width="6.65" height="13.38"/><polygon class="cls-16" points="33.34 93.53 33.34 80.15 40.02 80.15 40.02 66.79 33.34 66.79 26.69 66.79 26.69 80.15 20.01 80.15 20.01 93.53 26.69 93.53 33.34 93.53"/><rect class="cls-16" x="200.16" y="66.79" width="6.68" height="13.36"/><polygon class="cls-16" points="286.88 66.79 286.88 80.15 293.56 80.15 300.24 80.15 300.24 66.79 293.56 66.79 293.56 53.43 286.88 53.43 280.23 53.43 280.23 66.79 286.88 66.79"/><polygon class="cls-16" points="133.42 53.43 133.42 66.79 133.42 80.15 140.1 80.15 140.1 66.79 146.78 66.79 146.78 53.43 140.1 53.43 133.42 53.43"/><polygon class="cls-16" points="46.7 53.43 53.38 53.43 60.03 53.43 60.03 40.07 53.38 40.07 46.7 40.07 46.7 53.43 40.02 53.43 40.02 66.79 46.7 66.79 46.7 53.43"/><polygon class="cls-16" points="146.78 40.07 146.78 53.43 153.46 53.43 153.46 40.07 153.46 26.72 146.78 26.72 146.78 40.07"/><polygon class="cls-16" points="73.39 40.07 73.39 26.72 66.71 26.72 66.71 26.72 60.03 26.72 60.03 40.07 66.71 40.07 73.39 40.07"/><polygon class="cls-16" points="260.22 26.72 260.22 40.07 266.87 40.07 266.87 53.43 273.55 53.43 280.23 53.43 280.23 40.07 273.55 40.07 273.55 26.72 266.87 26.72 266.87 26.72 266.87 13.36 260.22 13.36 253.54 13.36 253.54 26.72 260.22 26.72"/><polygon class="cls-16" points="80.07 26.72 80.07 13.36 73.39 13.36 66.71 13.36 66.71 26.72 73.39 26.72 80.07 26.72"/><rect class="cls-17" x="233.53" y="173.68" width="6.68" height="13.36"/><polygon class="cls-17" points="273.55 133.6 266.87 133.6 266.87 146.96 260.22 146.96 253.54 146.96 253.54 160.29 246.86 160.29 246.86 173.68 253.54 173.68 260.22 173.68 260.22 160.29 266.87 160.29 273.55 160.29 273.55 146.96 280.23 146.96 286.88 146.96 286.88 133.6 280.23 133.6 273.55 133.6"/><polygon class="cls-17" points="193.48 80.15 186.8 80.15 186.8 66.79 180.15 66.79 180.15 53.43 173.47 53.43 173.47 40.07 166.79 40.07 166.79 53.43 166.79 66.79 166.79 80.15 166.79 93.53 166.79 106.86 173.47 106.86 180.15 106.86 186.8 106.86 193.48 106.86 200.16 106.86 200.16 93.53 193.48 93.53 193.48 80.15"/><polygon class="cls-17" points="300.24 93.53 300.24 80.15 293.56 80.15 286.88 80.15 286.88 66.79 280.23 66.79 280.23 53.43 273.55 53.43 266.87 53.43 266.87 40.07 260.22 40.07 260.22 53.43 260.22 66.79 266.87 66.79 266.87 80.15 266.87 93.53 273.55 93.53 273.55 106.86 280.23 106.86 286.88 106.86 293.56 106.86 300.24 106.86 306.92 106.86 306.92 93.53 300.24 93.53"/><rect class="cls-17" x="253.54" y="26.72" width="6.68" height="13.36"/></svg>