<svg id="Layer_1" data-name="Layer 1" xmlns="http://www.w3.org/2000/svg" viewBox="0 0 290.04 279.09"><defs><style>.cls-1{fill:#1d1d1b;stroke:#000;stroke-miterlimit:10;stroke-width:5px;}.cls-2{fill:#ac581b;}.cls-3{fill:#e3a139;}.cls-4{fill:#f7d252;}.cls-5{fill:#9a3b15;}.cls-6{fill:#c97925;}.cls-7{fill:#be7526;}.cls-8{fill:#ffeb6d;}</style></defs><rect class="cls-1" x="273.76" y="222.33" width="9.31" height="8.11" transform="translate(-75.87 169.37) rotate(-29.97)"/><rect class="cls-1" x="269.7" y="215.3" width="9.31" height="8.12" transform="translate(-72.9 166.41) rotate(-29.97)"/><rect class="cls-1" x="265.65" y="208.27" width="9.31" height="8.12" transform="translate(-69.93 163.44) rotate(-29.97)"/><rect class="cls-1" x="253.49" y="187.19" width="9.31" height="8.11" transform="translate(-61.02 154.55) rotate(-29.97)"/><rect class="cls-1" x="249.44" y="180.16" width="9.31" height="8.11" transform="translate(-58.05 151.58) rotate(-29.97)"/><rect class="cls-1" x="245.38" y="173.13" width="9.31" height="8.12" transform="translate(-55.08 148.62) rotate(-29.97)"/><rect class="cls-1" x="168.38" y="39.61" width="9.31" height="8.12" transform="translate(1.32 92.29) rotate(-29.97)"/><rect class="cls-1" x="164.32" y="32.58" width="9.31" height="8.12" transform="translate(4.29 89.32) rotate(-29.97)"/><rect class="cls-1" x="160.27" y="25.56" width="9.31" height="8.11" transform="translate(7.26 86.36) rotate(-29.97)"/><rect class="cls-1" x="265.69" y="226.98" width="9.31" height="8.11" transform="translate(-79.27 165.97) rotate(-29.97)"/><rect class="cls-1" x="261.64" y="219.95" width="9.31" height="8.12" transform="translate(-76.3 163) rotate(-29.97)"/><rect class="cls-1" x="257.59" y="212.92" width="9.31" height="8.12" transform="translate(-73.33 160.04) rotate(-29.97)"/><rect class="cls-1" x="245.43" y="191.84" width="9.31" height="8.11" transform="translate(-64.42 151.14) rotate(-29.97)"/><rect class="cls-1" x="241.38" y="184.81" width="9.31" height="8.11" transform="translate(-61.45 148.18) rotate(-29.97)"/><rect class="cls-1" x="237.32" y="177.78" width="9.31" height="8.12" transform="translate(-58.48 145.21) rotate(-29.97)"/><rect class="cls-1" x="164.37" y="51.29" width="9.31" height="8.11" transform="translate(-5.05 91.85) rotate(-29.97)"/><rect class="cls-1" x="160.31" y="44.26" width="9.31" height="8.12" transform="translate(-2.08 88.88) rotate(-29.97)"/><rect class="cls-1" x="156.26" y="37.23" width="9.31" height="8.12" transform="translate(0.89 85.92) rotate(-29.97)"/><rect class="cls-1" x="152.21" y="30.21" width="9.31" height="8.11" transform="translate(3.86 82.95) rotate(-29.97)"/><rect class="cls-1" x="148.16" y="23.18" width="9.31" height="8.12" transform="translate(6.83 79.99) rotate(-29.97)"/><rect class="cls-1" x="257.64" y="231.63" width="9.3" height="8.11" transform="translate(-82.67 162.56) rotate(-29.97)"/><rect class="cls-1" x="253.59" y="224.6" width="9.3" height="8.12" transform="translate(-79.7 159.6) rotate(-29.97)"/><rect class="cls-1" x="249.53" y="217.57" width="9.3" height="8.12" transform="translate(-76.73 156.63) rotate(-29.97)"/><rect class="cls-1" x="237.37" y="196.49" width="9.3" height="8.11" transform="translate(-67.82 147.74) rotate(-29.97)"/><rect class="cls-1" x="233.32" y="189.46" width="9.3" height="8.11" transform="translate(-64.85 144.77) rotate(-29.97)"/><rect class="cls-1" x="229.27" y="182.43" width="9.3" height="8.12" transform="translate(-61.89 141.81) rotate(-29.97)"/><rect class="cls-1" x="160.37" y="62.97" width="9.3" height="8.12" transform="translate(-11.42 91.41) rotate(-29.97)"/><rect class="cls-1" x="156.31" y="55.94" width="9.3" height="8.11" transform="translate(-8.45 88.44) rotate(-29.97)"/><rect class="cls-1" x="152.26" y="48.91" width="9.3" height="8.12" transform="translate(-5.48 85.48) rotate(-29.97)"/><rect class="cls-1" x="144.15" y="34.86" width="9.3" height="8.11" transform="translate(0.46 79.55) rotate(-29.97)"/><rect class="cls-1" x="140.1" y="27.83" width="9.3" height="8.12" transform="translate(3.43 76.58) rotate(-29.97)"/><rect class="cls-1" x="136.05" y="20.8" width="9.3" height="8.12" transform="translate(6.4 73.62) rotate(-29.97)"/><rect class="cls-1" x="249.57" y="236.28" width="9.31" height="8.11" transform="translate(-86.07 159.16) rotate(-29.97)"/><rect class="cls-1" x="245.52" y="229.25" width="9.31" height="8.12" transform="translate(-83.1 156.19) rotate(-29.97)"/><rect class="cls-1" x="241.47" y="222.22" width="9.31" height="8.12" transform="translate(-80.13 153.23) rotate(-29.97)"/><rect class="cls-1" x="229.31" y="201.14" width="9.31" height="8.11" transform="translate(-71.22 144.33) rotate(-29.97)"/><rect class="cls-1" x="225.26" y="194.11" width="9.31" height="8.11" transform="translate(-68.26 141.37) rotate(-29.97)"/><rect class="cls-1" x="221.2" y="187.08" width="9.31" height="8.12" transform="translate(-65.29 138.4) rotate(-29.97)"/><rect class="cls-1" x="152.3" y="67.61" width="9.31" height="8.12" transform="translate(-14.82 88) rotate(-29.97)"/><rect class="cls-1" x="148.25" y="60.59" width="9.31" height="8.11" transform="translate(-11.85 85.04) rotate(-29.97)"/><rect class="cls-1" x="132.04" y="32.48" width="9.31" height="8.12" transform="translate(0.03 73.18) rotate(-29.97)"/><rect class="cls-1" x="127.98" y="25.45" width="9.31" height="8.12" transform="translate(3 70.21) rotate(-29.97)"/><rect class="cls-1" x="241.52" y="240.93" width="9.3" height="8.11" transform="translate(-89.47 155.75) rotate(-29.97)"/><rect class="cls-1" x="237.46" y="233.9" width="9.3" height="8.12" transform="translate(-86.5 152.79) rotate(-29.97)"/><rect class="cls-1" x="233.41" y="226.87" width="9.3" height="8.12" transform="translate(-83.53 149.82) rotate(-29.97)"/><rect class="cls-1" x="225.3" y="212.81" width="9.3" height="8.12" transform="translate(-77.59 143.89) rotate(-29.97)"/><rect class="cls-1" x="221.25" y="205.79" width="9.3" height="8.11" transform="translate(-74.62 140.93) rotate(-29.97)"/><rect class="cls-1" x="217.2" y="198.76" width="9.3" height="8.11" transform="translate(-71.66 137.96) rotate(-29.97)"/><rect class="cls-1" x="213.14" y="191.73" width="9.3" height="8.12" transform="translate(-68.69 135) rotate(-29.97)"/><rect class="cls-1" x="144.24" y="72.26" width="9.3" height="8.12" transform="translate(-18.22 84.6) rotate(-29.97)"/><rect class="cls-1" x="140.19" y="65.24" width="9.3" height="8.11" transform="translate(-15.25 81.63) rotate(-29.97)"/><rect class="cls-1" x="123.98" y="37.13" width="9.3" height="8.12" transform="translate(-3.37 69.77) rotate(-29.97)"/><rect class="cls-1" x="119.92" y="30.1" width="9.3" height="8.12" transform="translate(-0.4 66.81) rotate(-29.97)"/><rect class="cls-1" x="233.46" y="245.57" width="9.3" height="8.11" transform="translate(-92.87 152.35) rotate(-29.97)"/><rect class="cls-1" x="229.41" y="238.54" width="9.3" height="8.12" transform="translate(-89.9 149.38) rotate(-29.97)"/><rect class="cls-1" x="225.35" y="231.51" width="9.3" height="8.12" transform="translate(-86.93 146.42) rotate(-29.97)"/><rect class="cls-1" x="221.3" y="224.49" width="9.3" height="8.11" transform="translate(-83.96 143.45) rotate(-29.97)"/><rect class="cls-1" x="217.25" y="217.46" width="9.3" height="8.12" transform="translate(-80.99 140.49) rotate(-29.97)"/><rect class="cls-1" x="213.2" y="210.44" width="9.3" height="8.11" transform="translate(-78.02 137.52) rotate(-29.97)"/><rect class="cls-1" x="209.14" y="203.41" width="9.3" height="8.11" transform="translate(-75.06 134.56) rotate(-29.97)"/><rect class="cls-1" x="205.09" y="196.37" width="9.3" height="8.12" transform="translate(-72.09 131.59) rotate(-29.97)"/><rect class="cls-1" x="136.19" y="76.91" width="9.3" height="8.12" transform="translate(-21.62 81.19) rotate(-29.97)"/><rect class="cls-1" x="132.14" y="69.89" width="9.3" height="8.11" transform="translate(-18.65 78.23) rotate(-29.97)"/><rect class="cls-1" x="128.08" y="62.86" width="9.3" height="8.12" transform="translate(-15.68 75.26) rotate(-29.97)"/><rect class="cls-1" x="119.98" y="48.8" width="9.3" height="8.11" transform="translate(-9.74 69.33) rotate(-29.97)"/><rect class="cls-1" x="115.92" y="41.77" width="9.3" height="8.12" transform="translate(-6.77 66.37) rotate(-29.97)"/><rect class="cls-1" x="111.87" y="34.74" width="9.3" height="8.12" transform="matrix(0.87, -0.5, 0.5, 0.87, -3.8, 63.4)"/><rect class="cls-1" x="225.4" y="250.22" width="9.31" height="8.11" transform="translate(-96.27 148.94) rotate(-29.97)"/><rect class="cls-1" x="221.34" y="243.19" width="9.31" height="8.12" transform="translate(-93.3 145.98) rotate(-29.97)"/><rect class="cls-1" x="217.29" y="236.16" width="9.31" height="8.12" transform="translate(-90.33 143.01) rotate(-29.97)"/><rect class="cls-1" x="213.24" y="229.14" width="9.31" height="8.11" transform="translate(-87.36 140.05) rotate(-29.97)"/><rect class="cls-1" x="209.18" y="222.11" width="9.31" height="8.12" transform="translate(-84.39 137.08) rotate(-29.97)"/><rect class="cls-1" x="205.13" y="215.08" width="9.31" height="8.11" transform="translate(-81.42 134.12) rotate(-29.97)"/><rect class="cls-1" x="201.08" y="208.05" width="9.31" height="8.11" transform="translate(-78.46 131.15) rotate(-29.97)"/><rect class="cls-1" x="197.02" y="201.02" width="9.31" height="8.12" transform="translate(-75.49 128.19) rotate(-29.97)"/><rect class="cls-1" x="140.28" y="102.64" width="9.31" height="8.12" transform="translate(-33.92 86.68) rotate(-29.97)"/><rect class="cls-1" x="124.07" y="74.54" width="9.31" height="8.11" transform="translate(-22.05 74.82) rotate(-29.97)"/><rect class="cls-1" x="120.02" y="67.5" width="9.31" height="8.12" transform="translate(-19.08 71.86) rotate(-29.97)"/><rect class="cls-1" x="115.96" y="60.47" width="9.31" height="8.12" transform="translate(-16.11 68.89) rotate(-29.97)"/><rect class="cls-1" x="111.91" y="53.45" width="9.31" height="8.11" transform="translate(-13.14 65.93) rotate(-29.97)"/><rect class="cls-1" x="107.86" y="46.42" width="9.31" height="8.12" transform="translate(-10.17 62.96) rotate(-29.97)"/><rect class="cls-1" x="95.7" y="25.34" width="9.31" height="8.12" transform="translate(-1.26 54.07) rotate(-29.97)"/><rect class="cls-1" x="91.65" y="18.31" width="9.31" height="8.11" transform="translate(1.7 51.1) rotate(-29.97)"/><rect class="cls-1" x="87.59" y="11.28" width="9.31" height="8.12" transform="translate(4.67 48.14) rotate(-29.97)"/><rect class="cls-1" x="205.18" y="233.79" width="9.3" height="8.11" transform="translate(-90.76 136.64) rotate(-29.97)"/><rect class="cls-1" x="201.13" y="226.75" width="9.3" height="8.12" transform="translate(-87.79 133.68) rotate(-29.97)"/><rect class="cls-1" x="132.23" y="107.29" width="9.3" height="8.12" transform="translate(-37.32 83.28) rotate(-29.97)"/><rect class="cls-1" x="128.17" y="100.26" width="9.3" height="8.12" transform="translate(-34.35 80.31) rotate(-29.97)"/><rect class="cls-1" x="116.02" y="79.18" width="9.3" height="8.11" transform="translate(-25.45 71.42) rotate(-29.97)"/><rect class="cls-1" x="111.96" y="72.15" width="9.3" height="8.12" transform="translate(-22.48 68.45) rotate(-29.97)"/><rect class="cls-1" x="107.91" y="65.12" width="9.3" height="8.12" transform="translate(-19.51 65.49) rotate(-29.97)"/><rect class="cls-1" x="103.86" y="58.1" width="9.3" height="8.11" transform="translate(-16.54 62.52) rotate(-29.97)"/><rect class="cls-1" x="99.8" y="51.07" width="9.3" height="8.12" transform="translate(-13.57 59.56) rotate(-29.97)"/><rect class="cls-1" x="91.7" y="37.02" width="9.3" height="8.11" transform="translate(-7.63 53.63) rotate(-29.97)"/><rect class="cls-1" x="87.64" y="29.98" width="9.3" height="8.12" transform="translate(-4.66 50.66) rotate(-29.97)"/><rect class="cls-1" x="83.59" y="22.96" width="9.3" height="8.11" transform="translate(-1.7 47.7) rotate(-29.97)"/><rect class="cls-1" x="79.54" y="15.93" width="9.3" height="8.12" transform="translate(1.27 44.73) rotate(-29.97)"/><rect class="cls-1" x="75.48" y="8.9" width="9.3" height="8.12" transform="translate(4.24 41.77) rotate(-29.97)"/><rect class="cls-1" x="205.23" y="252.49" width="9.31" height="8.12" transform="translate(-100.1 139.17) rotate(-29.97)"/><rect class="cls-1" x="201.17" y="245.46" width="9.31" height="8.12" transform="translate(-97.13 136.2) rotate(-29.97)"/><rect class="cls-1" x="197.12" y="238.43" width="9.31" height="8.11" transform="translate(-94.16 133.24) rotate(-29.97)"/><rect class="cls-1" x="193.07" y="231.4" width="9.31" height="8.12" transform="translate(-91.19 130.27) rotate(-29.97)"/><rect class="cls-1" x="189.01" y="224.38" width="9.31" height="8.11" transform="translate(-88.22 127.31) rotate(-29.97)"/><rect class="cls-1" x="184.96" y="217.35" width="9.31" height="8.11" transform="translate(-85.26 124.34) rotate(-29.97)"/><rect class="cls-1" x="180.91" y="210.32" width="9.31" height="8.12" transform="translate(-82.29 121.38) rotate(-29.97)"/><rect class="cls-1" x="176.86" y="203.3" width="9.31" height="8.11" transform="translate(-79.32 118.41) rotate(-29.97)"/><rect class="cls-1" x="172.8" y="196.26" width="9.31" height="8.12" transform="translate(-76.35 115.45) rotate(-29.97)"/><rect class="cls-1" x="168.75" y="189.24" width="9.31" height="8.11" transform="translate(-73.38 112.49) rotate(-29.97)"/><rect class="cls-1" x="164.7" y="182.21" width="9.31" height="8.12" transform="translate(-70.41 109.52) rotate(-29.97)"/><rect class="cls-1" x="160.64" y="175.18" width="9.31" height="8.12" transform="translate(-67.44 106.55) rotate(-29.97)"/><rect class="cls-1" x="156.59" y="168.16" width="9.31" height="8.11" transform="translate(-64.47 103.59) rotate(-29.97)"/><rect class="cls-1" x="152.54" y="161.13" width="9.31" height="8.11" transform="translate(-61.5 100.63) rotate(-29.97)"/><rect class="cls-1" x="148.49" y="154.11" width="9.31" height="8.11" transform="translate(-58.54 97.66) rotate(-29.97)"/><rect class="cls-1" x="144.43" y="147.07" width="9.31" height="8.12" transform="translate(-55.57 94.7) rotate(-29.97)"/><rect class="cls-1" x="140.38" y="140.04" width="9.31" height="8.12" transform="translate(-52.6 91.73) rotate(-29.97)"/><rect class="cls-1" x="136.33" y="133.02" width="9.31" height="8.11" transform="translate(-49.63 88.77) rotate(-29.97)"/><rect class="cls-1" x="132.27" y="125.99" width="9.31" height="8.11" transform="translate(-46.66 85.8) rotate(-29.97)"/><rect class="cls-1" x="128.22" y="118.97" width="9.31" height="8.11" transform="translate(-43.69 82.84) rotate(-29.97)"/><rect class="cls-1" x="124.17" y="111.94" width="9.31" height="8.12" transform="translate(-40.72 79.87) rotate(-29.97)"/><rect class="cls-1" x="120.11" y="104.91" width="9.31" height="8.12" transform="translate(-37.75 76.91) rotate(-29.97)"/><rect class="cls-1" x="116.06" y="97.88" width="9.31" height="8.11" transform="translate(-34.78 73.94) rotate(-29.97)"/><rect class="cls-1" x="112.01" y="90.85" width="9.31" height="8.12" transform="translate(-31.82 70.98) rotate(-29.97)"/><rect class="cls-1" x="107.96" y="83.83" width="9.31" height="8.11" transform="translate(-28.85 68.01) rotate(-29.97)"/><rect class="cls-1" x="103.9" y="76.8" width="9.31" height="8.12" transform="translate(-25.88 65.05) rotate(-29.97)"/><rect class="cls-1" x="99.85" y="69.77" width="9.31" height="8.12" transform="translate(-22.91 62.08) rotate(-29.97)"/><rect class="cls-1" x="95.8" y="62.75" width="9.31" height="8.11" transform="translate(-19.94 59.12) rotate(-29.97)"/><rect class="cls-1" x="91.74" y="55.72" width="9.31" height="8.12" transform="translate(-16.97 56.15) rotate(-29.97)"/><rect class="cls-1" x="87.69" y="48.69" width="9.31" height="8.12" transform="translate(-14 53.19) rotate(-29.97)"/><rect class="cls-1" x="83.64" y="41.66" width="9.31" height="8.11" transform="matrix(0.87, -0.5, 0.5, 0.87, -11.03, 50.22)"/><rect class="cls-1" x="79.58" y="34.63" width="9.31" height="8.12" transform="translate(-8.06 47.26) rotate(-29.97)"/><rect class="cls-1" x="71.48" y="20.58" width="9.31" height="8.12" transform="translate(-2.13 41.33) rotate(-29.97)"/><rect class="cls-1" x="67.42" y="13.55" width="9.31" height="8.12" transform="translate(0.84 38.36) rotate(-29.97)"/><rect class="cls-1" x="63.37" y="6.53" width="9.31" height="8.11" transform="translate(3.81 35.4) rotate(-29.97)"/><rect class="cls-1" x="197.16" y="257.14" width="9.31" height="8.12" transform="translate(-103.5 135.76) rotate(-29.97)"/><rect class="cls-1" x="193.11" y="250.11" width="9.31" height="8.12" transform="translate(-100.53 132.8) rotate(-29.97)"/><rect class="cls-1" x="189.06" y="243.08" width="9.31" height="8.11" transform="translate(-97.56 129.83) rotate(-29.97)"/><rect class="cls-1" x="185" y="236.05" width="9.31" height="8.12" transform="translate(-94.59 126.87) rotate(-29.97)"/><rect class="cls-1" x="180.95" y="229.03" width="9.31" height="8.11" transform="translate(-91.63 123.9) rotate(-29.97)"/><rect class="cls-1" x="176.9" y="222" width="9.31" height="8.11" transform="translate(-88.66 120.94) rotate(-29.97)"/><rect class="cls-1" x="172.84" y="214.97" width="9.31" height="8.12" transform="translate(-85.69 117.97) rotate(-29.97)"/><rect class="cls-1" x="168.79" y="207.95" width="9.31" height="8.11" transform="translate(-82.72 115.01) rotate(-29.97)"/><rect class="cls-1" x="164.74" y="200.91" width="9.31" height="8.12" transform="translate(-79.75 112.04) rotate(-29.97)"/><rect class="cls-1" x="160.69" y="193.89" width="9.31" height="8.11" transform="translate(-76.78 109.08) rotate(-29.97)"/><rect class="cls-1" x="156.63" y="186.86" width="9.31" height="8.12" transform="translate(-73.81 106.11) rotate(-29.97)"/><rect class="cls-1" x="152.58" y="179.83" width="9.31" height="8.12" transform="translate(-70.84 103.15) rotate(-29.97)"/><rect class="cls-1" x="148.53" y="172.81" width="9.31" height="8.11" transform="translate(-67.87 100.18) rotate(-29.97)"/><rect class="cls-1" x="144.47" y="165.78" width="9.31" height="8.11" transform="translate(-64.91 97.22) rotate(-29.97)"/><rect class="cls-1" x="140.42" y="158.76" width="9.31" height="8.11" transform="translate(-61.94 94.26) rotate(-29.97)"/><rect class="cls-1" x="136.37" y="151.72" width="9.31" height="8.12" transform="translate(-58.97 91.29) rotate(-29.97)"/><rect class="cls-1" x="132.31" y="144.69" width="9.31" height="8.12" transform="translate(-56 88.32) rotate(-29.97)"/><rect class="cls-1" x="128.26" y="137.67" width="9.31" height="8.11" transform="translate(-53.03 85.36) rotate(-29.97)"/><rect class="cls-1" x="124.21" y="130.64" width="9.31" height="8.11" transform="translate(-50.06 82.4) rotate(-29.97)"/><rect class="cls-1" x="120.16" y="123.62" width="9.31" height="8.11" transform="translate(-47.09 79.43) rotate(-29.97)"/><rect class="cls-1" x="116.1" y="116.59" width="9.31" height="8.12" transform="translate(-44.12 76.47) rotate(-29.97)"/><rect class="cls-1" x="112.05" y="109.56" width="9.31" height="8.12" transform="translate(-41.15 73.5) rotate(-29.97)"/><rect class="cls-1" x="108" y="102.53" width="9.31" height="8.11" transform="translate(-38.19 70.54) rotate(-29.97)"/><rect class="cls-1" x="103.94" y="95.5" width="9.31" height="8.12" transform="translate(-35.22 67.57) rotate(-29.97)"/><rect class="cls-1" x="99.89" y="88.48" width="9.31" height="8.11" transform="translate(-32.25 64.61) rotate(-29.97)"/><rect class="cls-1" x="95.84" y="81.45" width="9.31" height="8.12" transform="translate(-29.28 61.64) rotate(-29.97)"/><rect class="cls-1" x="91.78" y="74.42" width="9.31" height="8.12" transform="translate(-26.31 58.68) rotate(-29.97)"/><rect class="cls-1" x="87.73" y="67.4" width="9.31" height="8.11" transform="translate(-23.34 55.71) rotate(-29.97)"/><rect class="cls-1" x="83.68" y="60.37" width="9.31" height="8.12" transform="translate(-20.37 52.75) rotate(-29.97)"/><rect class="cls-1" x="79.62" y="53.34" width="9.31" height="8.12" transform="translate(-17.4 49.78) rotate(-29.97)"/><rect class="cls-1" x="75.57" y="46.31" width="9.31" height="8.11" transform="translate(-14.43 46.82) rotate(-29.97)"/><rect class="cls-1" x="59.36" y="18.2" width="9.31" height="8.12" transform="translate(-2.56 34.96) rotate(-29.97)"/><rect class="cls-1" x="55.31" y="11.18" width="9.31" height="8.11" transform="translate(0.41 31.99) rotate(-29.97)"/><rect class="cls-1" x="189.11" y="261.78" width="9.3" height="8.12" transform="translate(-106.9 132.36) rotate(-29.97)"/><rect class="cls-1" x="185.05" y="254.75" width="9.3" height="8.12" transform="translate(-103.93 129.39) rotate(-29.97)"/><rect class="cls-1" x="181" y="247.73" width="9.3" height="8.11" transform="translate(-100.96 126.43) rotate(-29.97)"/><rect class="cls-1" x="176.95" y="240.7" width="9.3" height="8.12" transform="translate(-97.99 123.46) rotate(-29.97)"/><rect class="cls-1" x="172.9" y="233.68" width="9.3" height="8.11" transform="translate(-95.03 120.5) rotate(-29.97)"/><rect class="cls-1" x="168.84" y="226.65" width="9.3" height="8.11" transform="translate(-92.06 117.53) rotate(-29.97)"/><rect class="cls-1" x="164.79" y="219.62" width="9.3" height="8.12" transform="translate(-89.09 114.57) rotate(-29.97)"/><rect class="cls-1" x="160.74" y="212.59" width="9.3" height="8.11" transform="translate(-86.12 111.6) rotate(-29.97)"/><rect class="cls-1" x="156.68" y="205.56" width="9.3" height="8.12" transform="translate(-83.15 108.64) rotate(-29.97)"/><rect class="cls-1" x="152.63" y="198.54" width="9.3" height="8.11" transform="translate(-80.18 105.67) rotate(-29.97)"/><rect class="cls-1" x="148.58" y="191.51" width="9.3" height="8.12" transform="translate(-77.21 102.71) rotate(-29.97)"/><rect class="cls-1" x="144.52" y="184.48" width="9.3" height="8.12" transform="translate(-74.24 99.74) rotate(-29.97)"/><rect class="cls-1" x="140.47" y="177.46" width="9.3" height="8.11" transform="translate(-71.27 96.78) rotate(-29.97)"/><rect class="cls-1" x="136.42" y="170.43" width="9.3" height="8.11" transform="translate(-68.31 93.81) rotate(-29.97)"/><rect class="cls-1" x="132.37" y="163.4" width="9.3" height="8.11" transform="translate(-65.34 90.85) rotate(-29.97)"/><rect class="cls-1" x="128.31" y="156.37" width="9.3" height="8.12" transform="translate(-62.37 87.89) rotate(-29.97)"/><rect class="cls-1" x="124.26" y="149.34" width="9.3" height="8.12" transform="translate(-59.4 84.92) rotate(-29.97)"/><rect class="cls-1" x="120.21" y="142.32" width="9.3" height="8.11" transform="translate(-56.43 81.96) rotate(-29.97)"/><rect class="cls-1" x="116.15" y="135.29" width="9.3" height="8.11" transform="translate(-53.46 78.99) rotate(-29.97)"/><rect class="cls-1" x="112.1" y="128.27" width="9.3" height="8.11" transform="translate(-50.49 76.03) rotate(-29.97)"/><rect class="cls-1" x="108.05" y="121.24" width="9.3" height="8.12" transform="translate(-47.52 73.06) rotate(-29.97)"/><rect class="cls-1" x="103.99" y="114.2" width="9.3" height="8.12" transform="translate(-44.55 70.1) rotate(-29.97)"/><rect class="cls-1" x="99.94" y="107.18" width="9.3" height="8.11" transform="translate(-41.59 67.13) rotate(-29.97)"/><rect class="cls-1" x="95.89" y="100.15" width="9.3" height="8.12" transform="translate(-38.62 64.17) rotate(-29.97)"/><rect class="cls-1" x="91.84" y="93.13" width="9.3" height="8.11" transform="translate(-35.65 61.2) rotate(-29.97)"/><rect class="cls-1" x="87.78" y="86.1" width="9.3" height="8.12" transform="translate(-32.68 58.24) rotate(-29.97)"/><rect class="cls-1" x="83.73" y="79.07" width="9.3" height="8.12" transform="translate(-29.71 55.27) rotate(-29.97)"/><rect class="cls-1" x="79.68" y="72.05" width="9.3" height="8.11" transform="translate(-26.74 52.31) rotate(-29.97)"/><rect class="cls-1" x="75.62" y="65.01" width="9.3" height="8.12" transform="translate(-23.77 49.34) rotate(-29.97)"/><rect class="cls-1" x="71.57" y="57.98" width="9.3" height="8.12" transform="matrix(0.87, -0.5, 0.5, 0.87, -20.8, 46.38)"/><rect class="cls-1" x="67.52" y="50.96" width="9.3" height="8.11" transform="translate(-17.83 43.41) rotate(-29.97)"/><rect class="cls-1" x="51.3" y="22.85" width="9.3" height="8.12" transform="translate(-5.96 31.55) rotate(-29.97)"/><rect class="cls-1" x="47.25" y="15.82" width="9.3" height="8.11" transform="translate(-2.99 28.59) rotate(-29.97)"/><rect class="cls-1" x="181.05" y="266.43" width="9.31" height="8.12" transform="translate(-110.3 128.95) rotate(-29.97)"/><rect class="cls-1" x="176.99" y="259.4" width="9.31" height="8.12" transform="translate(-107.33 125.99) rotate(-29.97)"/><rect class="cls-1" x="172.94" y="252.38" width="9.31" height="8.11" transform="translate(-104.36 123.02) rotate(-29.97)"/><rect class="cls-1" x="168.89" y="245.35" width="9.31" height="8.12" transform="translate(-101.39 120.06) rotate(-29.97)"/><rect class="cls-1" x="164.83" y="238.32" width="9.31" height="8.11" transform="translate(-98.43 117.09) rotate(-29.97)"/><rect class="cls-1" x="160.78" y="231.29" width="9.31" height="8.11" transform="translate(-95.46 114.13) rotate(-29.97)"/><rect class="cls-1" x="156.73" y="224.26" width="9.31" height="8.12" transform="translate(-92.49 111.16) rotate(-29.97)"/><rect class="cls-1" x="152.67" y="217.24" width="9.31" height="8.11" transform="translate(-89.52 108.2) rotate(-29.97)"/><rect class="cls-1" x="148.62" y="210.21" width="9.31" height="8.12" transform="translate(-86.55 105.23) rotate(-29.97)"/><rect class="cls-1" x="144.57" y="203.19" width="9.31" height="8.11" transform="translate(-83.58 102.27) rotate(-29.97)"/><rect class="cls-1" x="140.52" y="196.16" width="9.31" height="8.12" transform="translate(-80.61 99.31) rotate(-29.97)"/><rect class="cls-1" x="136.46" y="189.13" width="9.31" height="8.12" transform="translate(-77.64 96.34) rotate(-29.97)"/><rect class="cls-1" x="132.41" y="182.1" width="9.31" height="8.11" transform="translate(-74.67 93.38) rotate(-29.97)"/><rect class="cls-1" x="128.36" y="175.07" width="9.31" height="8.11" transform="translate(-71.71 90.41) rotate(-29.97)"/><rect class="cls-1" x="124.3" y="168.05" width="9.31" height="8.11" transform="translate(-68.74 87.45) rotate(-29.97)"/><rect class="cls-1" x="120.25" y="161.02" width="9.31" height="8.12" transform="translate(-65.77 84.48) rotate(-29.97)"/><rect class="cls-1" x="116.2" y="153.99" width="9.31" height="8.12" transform="translate(-62.8 81.52) rotate(-29.97)"/><rect class="cls-1" x="112.14" y="146.97" width="9.31" height="8.11" transform="translate(-59.83 78.55) rotate(-29.97)"/><rect class="cls-1" x="108.09" y="139.94" width="9.31" height="8.11" transform="translate(-56.86 75.59) rotate(-29.97)"/><rect class="cls-1" x="104.04" y="132.91" width="9.31" height="8.11" transform="translate(-53.89 72.62) rotate(-29.97)"/><rect class="cls-1" x="99.99" y="125.88" width="9.31" height="8.12" transform="translate(-50.92 69.66) rotate(-29.97)"/><rect class="cls-1" x="95.93" y="118.85" width="9.31" height="8.12" transform="translate(-47.95 66.69) rotate(-29.97)"/><rect class="cls-1" x="91.88" y="111.83" width="9.31" height="8.11" transform="translate(-44.99 63.73) rotate(-29.97)"/><rect class="cls-1" x="87.83" y="104.8" width="9.31" height="8.12" transform="translate(-42.02 60.76) rotate(-29.97)"/><rect class="cls-1" x="83.77" y="97.78" width="9.31" height="8.11" transform="translate(-39.05 57.8) rotate(-29.97)"/><rect class="cls-1" x="79.72" y="90.75" width="9.31" height="8.12" transform="translate(-36.08 54.83) rotate(-29.97)"/><rect class="cls-1" x="75.67" y="83.72" width="9.31" height="8.12" transform="translate(-33.11 51.87) rotate(-29.97)"/><rect class="cls-1" x="71.61" y="76.69" width="9.31" height="8.11" transform="translate(-30.14 48.9) rotate(-29.97)"/><rect class="cls-1" x="67.56" y="69.66" width="9.31" height="8.12" transform="translate(-27.17 45.94) rotate(-29.97)"/><rect class="cls-1" x="63.51" y="62.63" width="9.31" height="8.12" transform="translate(-24.2 42.97) rotate(-29.97)"/><rect class="cls-1" x="59.45" y="55.61" width="9.31" height="8.11" transform="translate(-21.23 40.01) rotate(-29.97)"/><rect class="cls-1" x="55.4" y="48.58" width="9.31" height="8.12" transform="translate(-18.26 37.04) rotate(-29.97)"/><rect class="cls-1" x="47.3" y="34.52" width="9.31" height="8.12" transform="matrix(0.87, -0.5, 0.5, 0.87, -12.33, 31.11)"/><rect class="cls-1" x="43.24" y="27.49" width="9.31" height="8.12" transform="translate(-9.36 28.15) rotate(-29.97)"/><rect class="cls-1" x="39.19" y="20.47" width="9.31" height="8.11" transform="translate(-6.39 25.18) rotate(-29.97)"/><rect class="cls-1" x="91.93" y="130.53" width="9.3" height="8.12" transform="translate(-54.32 66.25) rotate(-29.97)"/><rect class="cls-1" x="87.88" y="123.5" width="9.3" height="8.12" transform="translate(-51.35 63.29) rotate(-29.97)"/><rect class="cls-1" x="75.72" y="102.42" width="9.3" height="8.11" transform="translate(-42.45 54.39) rotate(-29.97)"/><rect class="cls-1" x="71.67" y="95.39" width="9.3" height="8.12" transform="matrix(0.87, -0.5, 0.5, 0.87, -39.48, 51.43)"/><rect class="cls-1" x="67.61" y="88.36" width="9.3" height="8.12" transform="translate(-36.51 48.46) rotate(-29.97)"/><rect class="cls-1" x="63.56" y="81.34" width="9.3" height="8.11" transform="translate(-33.54 45.5) rotate(-29.97)"/><rect class="cls-1" x="59.51" y="74.31" width="9.3" height="8.12" transform="translate(-30.57 42.53) rotate(-29.97)"/><rect class="cls-1" x="51.4" y="60.26" width="9.3" height="8.11" transform="translate(-24.63 36.6) rotate(-29.97)"/><rect class="cls-1" x="47.35" y="53.23" width="9.3" height="8.12" transform="matrix(0.87, -0.5, 0.5, 0.87, -21.66, 33.64)"/><rect class="cls-1" x="43.3" y="46.2" width="9.3" height="8.11" transform="translate(-18.7 30.67) rotate(-29.97)"/><rect class="cls-1" x="39.24" y="39.17" width="9.3" height="8.12" transform="translate(-15.73 27.71) rotate(-29.97)"/><rect class="cls-1" x="35.19" y="32.14" width="9.3" height="8.12" transform="translate(-12.76 24.74) rotate(-29.97)"/><rect class="cls-1" x="83.87" y="135.18" width="9.31" height="8.12" transform="matrix(0.87, -0.5, 0.5, 0.87, -57.72, 62.85)"/><rect class="cls-1" x="67.66" y="107.07" width="9.31" height="8.11" transform="translate(-45.85 50.99) rotate(-29.97)"/><rect class="cls-1" x="63.61" y="100.04" width="9.31" height="8.12" transform="translate(-42.88 48.03) rotate(-29.97)"/><rect class="cls-1" x="59.55" y="93.01" width="9.31" height="8.12" transform="translate(-39.91 45.06) rotate(-29.97)"/><rect class="cls-1" x="55.5" y="85.99" width="9.31" height="8.11" transform="translate(-36.94 42.09) rotate(-29.97)"/><rect class="cls-1" x="51.45" y="78.96" width="9.31" height="8.12" transform="translate(-33.97 39.13) rotate(-29.97)"/><rect class="cls-1" x="39.29" y="57.87" width="9.31" height="8.12" transform="translate(-25.06 30.23) rotate(-29.97)"/><rect class="cls-1" x="35.23" y="50.85" width="9.31" height="8.11" transform="translate(-22.1 27.27) rotate(-29.97)"/><rect class="cls-1" x="31.18" y="43.82" width="9.31" height="8.12" transform="translate(-19.13 24.31) rotate(-29.97)"/><rect class="cls-1" x="63.65" y="118.74" width="9.31" height="8.12" transform="translate(-52.22 50.55) rotate(-29.97)"/><rect class="cls-1" x="59.59" y="111.72" width="9.31" height="8.11" transform="translate(-49.25 47.58) rotate(-29.97)"/><rect class="cls-1" x="55.54" y="104.69" width="9.31" height="8.12" transform="translate(-46.28 44.62) rotate(-29.97)"/><rect class="cls-1" x="47.43" y="90.64" width="9.31" height="8.11" transform="matrix(0.87, -0.5, 0.5, 0.87, -40.34, 38.69)"/><rect class="cls-1" x="43.38" y="83.61" width="9.31" height="8.12" transform="translate(-37.37 35.72) rotate(-29.97)"/><rect class="cls-1" x="39.33" y="76.58" width="9.31" height="8.12" transform="translate(-34.4 32.76) rotate(-29.97)"/><rect class="cls-1" x="55.59" y="123.39" width="9.3" height="8.12" transform="translate(-55.62 47.14) rotate(-29.97)"/><rect class="cls-1" x="51.54" y="116.37" width="9.3" height="8.11" transform="translate(-52.65 44.18) rotate(-29.97)"/><rect class="cls-1" x="35.33" y="88.26" width="9.3" height="8.12" transform="translate(-40.77 32.32) rotate(-29.97)"/><rect class="cls-1" x="31.27" y="81.22" width="9.3" height="8.12" transform="translate(-37.8 29.35) rotate(-29.97)"/><rect class="cls-1" x="47.53" y="128.04" width="9.31" height="8.12" transform="translate(-59.02 43.74) rotate(-29.97)"/><rect class="cls-1" x="43.48" y="121.02" width="9.31" height="8.11" transform="translate(-56.05 40.77) rotate(-29.97)"/><rect class="cls-1" x="27.27" y="92.9" width="9.31" height="8.12" transform="translate(-44.17 28.91) rotate(-29.97)"/><rect class="cls-1" x="23.21" y="85.87" width="9.31" height="8.12" transform="translate(-41.2 25.95) rotate(-29.97)"/><rect class="cls-1" x="39.48" y="132.69" width="9.3" height="8.12" transform="translate(-62.42 40.33) rotate(-29.97)"/><rect class="cls-1" x="35.42" y="125.66" width="9.3" height="8.11" transform="translate(-59.45 37.37) rotate(-29.97)"/><rect class="cls-1" x="31.37" y="118.63" width="9.3" height="8.12" transform="translate(-56.48 34.41) rotate(-29.97)"/><rect class="cls-1" x="23.26" y="104.58" width="9.3" height="8.11" transform="translate(-50.54 28.47) rotate(-29.97)"/><rect class="cls-1" x="19.21" y="97.55" width="9.3" height="8.12" transform="translate(-47.57 25.51) rotate(-29.97)"/><rect class="cls-1" x="15.16" y="90.52" width="9.3" height="8.12" transform="translate(-44.6 22.54) rotate(-29.97)"/><rect class="cls-1" x="27.36" y="130.31" width="9.31" height="8.11" transform="translate(-62.85 33.97) rotate(-29.97)"/><rect class="cls-1" x="23.31" y="123.28" width="9.31" height="8.12" transform="translate(-59.88 31) rotate(-29.97)"/><rect class="cls-1" x="19.25" y="116.25" width="9.31" height="8.12" transform="translate(-56.91 28.03) rotate(-29.97)"/><rect class="cls-1" x="15.2" y="109.23" width="9.31" height="8.11" transform="translate(-53.94 25.07) rotate(-29.97)"/><rect class="cls-1" x="11.15" y="102.2" width="9.31" height="8.12" transform="translate(-50.97 22.11) rotate(-29.97)"/><rect class="cls-1" x="15.24" y="127.93" width="9.31" height="8.12" transform="translate(-63.28 27.59) rotate(-29.97)"/><rect class="cls-1" x="11.19" y="120.9" width="9.31" height="8.12" transform="translate(-60.31 24.63) rotate(-29.97)"/><rect class="cls-1" x="7.14" y="113.88" width="9.31" height="8.11" transform="translate(-57.34 21.66) rotate(-29.97)"/><rect class="cls-2" x="273.93" y="221.49" width="9.31" height="8.11" transform="translate(-75.42 169.35) rotate(-29.97)"/><rect class="cls-2" x="269.88" y="214.46" width="9.31" height="8.12" transform="translate(-72.45 166.38) rotate(-29.97)"/><rect class="cls-2" x="265.82" y="207.43" width="9.31" height="8.12" transform="translate(-69.48 163.42) rotate(-29.97)"/><rect class="cls-2" x="253.67" y="186.35" width="9.31" height="8.11" transform="translate(-60.58 154.52) rotate(-29.97)"/><rect class="cls-2" x="249.61" y="179.32" width="9.31" height="8.11" transform="translate(-57.61 151.56) rotate(-29.97)"/><rect class="cls-2" x="245.56" y="172.29" width="9.31" height="8.12" transform="translate(-54.64 148.59) rotate(-29.97)"/><rect class="cls-2" x="168.55" y="38.77" width="9.31" height="8.12" transform="translate(1.77 92.26) rotate(-29.97)"/><rect class="cls-2" x="164.5" y="31.74" width="9.31" height="8.12" transform="translate(4.74 89.3) rotate(-29.97)"/><rect class="cls-2" x="160.45" y="24.72" width="9.31" height="8.11" transform="translate(7.71 86.33) rotate(-29.97)"/><rect class="cls-3" x="265.87" y="226.14" width="9.31" height="8.11" transform="translate(-78.82 165.94) rotate(-29.97)"/><rect class="cls-3" x="261.82" y="219.11" width="9.31" height="8.12" transform="translate(-75.86 162.98) rotate(-29.97)"/><rect class="cls-3" x="257.76" y="212.08" width="9.31" height="8.12" transform="translate(-72.89 160.01) rotate(-29.97)"/><rect class="cls-3" x="245.6" y="191" width="9.31" height="8.11" transform="translate(-63.98 151.12) rotate(-29.97)"/><rect class="cls-3" x="241.55" y="183.97" width="9.31" height="8.11" transform="translate(-61.01 148.15) rotate(-29.97)"/><rect class="cls-3" x="237.5" y="176.94" width="9.31" height="8.12" transform="translate(-58.04 145.19) rotate(-29.97)"/><rect class="cls-2" x="164.54" y="50.45" width="9.31" height="8.11" transform="translate(-4.6 91.82) rotate(-29.97)"/><rect class="cls-3" x="160.49" y="43.42" width="9.31" height="8.12" transform="translate(-1.63 88.86) rotate(-29.97)"/><rect class="cls-3" x="156.44" y="36.39" width="9.31" height="8.12" transform="translate(1.34 85.89) rotate(-29.97)"/><rect class="cls-3" x="152.38" y="29.37" width="9.31" height="8.11" transform="translate(4.3 82.93) rotate(-29.97)"/><rect class="cls-2" x="148.33" y="22.34" width="9.31" height="8.12" transform="translate(7.27 79.96) rotate(-29.97)"/><rect class="cls-3" x="257.81" y="230.79" width="9.3" height="8.11" transform="translate(-82.22 162.54) rotate(-29.97)"/><rect class="cls-3" x="253.76" y="223.76" width="9.3" height="8.12" transform="translate(-79.26 159.57) rotate(-29.97)"/><rect class="cls-3" x="249.71" y="216.73" width="9.3" height="8.12" transform="translate(-76.29 156.61) rotate(-29.97)"/><rect class="cls-3" x="237.55" y="195.65" width="9.3" height="8.11" transform="translate(-67.38 147.71) rotate(-29.97)"/><rect class="cls-3" x="233.5" y="188.62" width="9.3" height="8.11" transform="translate(-64.41 144.75) rotate(-29.97)"/><rect class="cls-3" x="229.44" y="181.59" width="9.3" height="8.12" transform="translate(-61.44 141.78) rotate(-29.97)"/><rect class="cls-2" x="160.54" y="62.12" width="9.3" height="8.12" transform="translate(-10.97 91.38) rotate(-29.97)"/><rect class="cls-3" x="156.49" y="55.1" width="9.3" height="8.11" transform="translate(-8 88.42) rotate(-29.97)"/><rect class="cls-4" x="152.44" y="48.07" width="9.3" height="8.12" transform="translate(-5.03 85.45) rotate(-29.97)"/><rect class="cls-4" x="144.33" y="34.02" width="9.3" height="8.11" transform="translate(0.9 79.52) rotate(-29.97)"/><rect class="cls-3" x="140.28" y="26.99" width="9.3" height="8.12" transform="translate(3.87 76.56) rotate(-29.97)"/><rect class="cls-2" x="136.22" y="19.96" width="9.3" height="8.12" transform="translate(6.84 73.59) rotate(-29.97)"/><rect class="cls-3" x="249.75" y="235.44" width="9.31" height="8.11" transform="translate(-85.62 159.13) rotate(-29.97)"/><rect class="cls-3" x="245.7" y="228.41" width="9.31" height="8.12" transform="translate(-82.66 156.17) rotate(-29.97)"/><rect class="cls-3" x="241.64" y="221.37" width="9.31" height="8.12" transform="translate(-79.69 153.2) rotate(-29.97)"/><rect class="cls-3" x="229.48" y="200.3" width="9.31" height="8.11" transform="translate(-70.78 144.31) rotate(-29.97)"/><rect class="cls-3" x="225.43" y="193.27" width="9.31" height="8.11" transform="translate(-67.81 141.34) rotate(-29.97)"/><rect class="cls-3" x="221.38" y="186.24" width="9.31" height="8.12" transform="translate(-64.84 138.38) rotate(-29.97)"/><rect class="cls-3" x="152.48" y="66.77" width="9.31" height="8.12" transform="matrix(0.87, -0.5, 0.5, 0.87, -14.37, 87.98)"/><rect class="cls-4" x="148.42" y="59.75" width="9.31" height="8.11" transform="translate(-11.4 85.01) rotate(-29.97)"/><rect class="cls-4" x="132.21" y="31.63" width="9.31" height="8.12" transform="translate(0.47 73.15) rotate(-29.97)"/><rect class="cls-3" x="128.16" y="24.6" width="9.31" height="8.12" transform="translate(3.44 70.19) rotate(-29.97)"/><rect class="cls-3" x="241.69" y="240.09" width="9.3" height="8.11" transform="translate(-89.03 155.73) rotate(-29.97)"/><rect class="cls-3" x="237.64" y="233.05" width="9.3" height="8.12" transform="translate(-86.06 152.76) rotate(-29.97)"/><rect class="cls-3" x="233.58" y="226.02" width="9.3" height="8.12" transform="translate(-83.09 149.8) rotate(-29.97)"/><rect class="cls-5" x="225.48" y="211.97" width="9.3" height="8.12" transform="translate(-77.15 143.87) rotate(-29.97)"/><rect class="cls-3" x="221.43" y="204.95" width="9.3" height="8.11" transform="translate(-74.18 140.9) rotate(-29.97)"/><rect class="cls-3" x="217.37" y="197.92" width="9.3" height="8.11" transform="translate(-71.21 137.94) rotate(-29.97)"/><rect class="cls-3" x="213.32" y="190.89" width="9.3" height="8.12" transform="translate(-68.24 134.97) rotate(-29.97)"/><rect class="cls-3" x="144.42" y="71.42" width="9.3" height="8.12" transform="translate(-17.77 84.57) rotate(-29.97)"/><rect class="cls-2" x="140.37" y="64.4" width="9.3" height="8.11" transform="translate(-14.8 81.61) rotate(-29.97)"/><rect class="cls-5" x="124.15" y="36.28" width="9.3" height="8.12" transform="translate(-2.93 69.75) rotate(-29.97)"/><rect class="cls-3" x="120.1" y="29.25" width="9.3" height="8.12" transform="translate(0.04 66.78) rotate(-29.97)"/><rect class="cls-6" x="233.64" y="244.73" width="9.3" height="8.11" transform="translate(-92.42 152.32) rotate(-29.97)"/><rect class="cls-6" x="229.58" y="237.7" width="9.3" height="8.12" transform="translate(-89.46 149.36) rotate(-29.97)"/><rect class="cls-6" x="225.53" y="230.67" width="9.3" height="8.12" transform="translate(-86.49 146.39) rotate(-29.97)"/><rect class="cls-5" x="221.48" y="223.65" width="9.3" height="8.11" transform="translate(-83.52 143.43) rotate(-29.97)"/><rect class="cls-6" x="217.42" y="216.62" width="9.3" height="8.12" transform="translate(-80.55 140.46) rotate(-29.97)"/><rect class="cls-6" x="213.37" y="209.59" width="9.3" height="8.11" transform="translate(-77.58 137.5) rotate(-29.97)"/><rect class="cls-6" x="209.32" y="202.56" width="9.3" height="8.11" transform="translate(-74.61 134.53) rotate(-29.97)"/><rect class="cls-6" x="205.26" y="195.53" width="9.3" height="8.12" transform="translate(-71.64 131.57) rotate(-29.97)"/><rect class="cls-3" x="136.36" y="76.07" width="9.3" height="8.12" transform="translate(-21.17 81.17) rotate(-29.97)"/><rect class="cls-3" x="132.31" y="69.05" width="9.3" height="8.11" transform="translate(-18.2 78.2) rotate(-29.97)"/><rect class="cls-2" x="128.26" y="62.01" width="9.3" height="8.12" transform="translate(-15.23 75.24) rotate(-29.97)"/><rect class="cls-2" x="120.15" y="47.96" width="9.3" height="8.11" transform="translate(-9.3 69.31) rotate(-29.97)"/><rect class="cls-3" x="116.1" y="40.93" width="9.3" height="8.12" transform="translate(-6.33 66.34) rotate(-29.97)"/><rect class="cls-4" x="112.04" y="33.9" width="9.3" height="8.12" transform="translate(-3.36 63.38) rotate(-29.97)"/><rect class="cls-4" x="225.57" y="249.38" width="9.31" height="8.11" transform="translate(-95.82 148.92) rotate(-29.97)"/><rect class="cls-4" x="221.52" y="242.35" width="9.31" height="8.12" transform="translate(-92.86 145.95) rotate(-29.97)"/><rect class="cls-4" x="217.46" y="235.32" width="9.31" height="8.12" transform="translate(-89.89 142.99) rotate(-29.97)"/><rect class="cls-4" x="213.41" y="228.3" width="9.31" height="8.11" transform="translate(-86.92 140.02) rotate(-29.97)"/><rect class="cls-4" x="209.36" y="221.26" width="9.31" height="8.12" transform="translate(-83.95 137.06) rotate(-29.97)"/><rect class="cls-4" x="205.31" y="214.24" width="9.31" height="8.11" transform="translate(-80.98 134.09) rotate(-29.97)"/><rect class="cls-4" x="201.25" y="207.21" width="9.31" height="8.11" transform="translate(-78.01 131.13) rotate(-29.97)"/><rect class="cls-4" x="197.2" y="200.18" width="9.31" height="8.12" transform="translate(-75.04 128.16) rotate(-29.97)"/><rect class="cls-2" x="140.46" y="101.8" width="9.31" height="8.12" transform="translate(-33.48 86.66) rotate(-29.97)"/><rect class="cls-3" x="124.25" y="73.69" width="9.31" height="8.11" transform="translate(-21.6 74.8) rotate(-29.97)"/><rect class="cls-3" x="120.19" y="66.66" width="9.31" height="8.12" transform="translate(-18.63 71.83) rotate(-29.97)"/><rect class="cls-5" x="116.14" y="59.63" width="9.31" height="8.12" transform="translate(-15.66 68.87) rotate(-29.97)"/><rect class="cls-3" x="112.09" y="52.61" width="9.31" height="8.11" transform="matrix(0.87, -0.5, 0.5, 0.87, -12.7, 65.9)"/><rect class="cls-3" x="108.03" y="45.58" width="9.31" height="8.12" transform="translate(-9.73 62.94) rotate(-29.97)"/><rect class="cls-2" x="95.87" y="24.49" width="9.31" height="8.12" transform="translate(-0.82 54.04) rotate(-29.97)"/><rect class="cls-2" x="91.82" y="17.47" width="9.31" height="8.11" transform="translate(2.15 51.08) rotate(-29.97)"/><rect class="cls-2" x="87.77" y="10.44" width="9.31" height="8.12" transform="translate(5.12 48.11) rotate(-29.97)"/><rect class="cls-3" x="205.36" y="232.94" width="9.3" height="8.11" transform="translate(-90.32 136.62) rotate(-29.97)"/><rect class="cls-3" x="201.3" y="225.91" width="9.3" height="8.12" transform="translate(-87.35 133.65) rotate(-29.97)"/><rect class="cls-3" x="132.4" y="106.45" width="9.3" height="8.12" transform="translate(-36.88 83.25) rotate(-29.97)"/><rect class="cls-2" x="128.35" y="99.42" width="9.3" height="8.12" transform="translate(-33.91 80.29) rotate(-29.97)"/><rect class="cls-5" x="116.19" y="78.34" width="9.3" height="8.11" transform="translate(-25 71.39) rotate(-29.97)"/><rect class="cls-3" x="112.14" y="71.31" width="9.3" height="8.12" transform="translate(-22.03 68.43) rotate(-29.97)"/><rect class="cls-3" x="108.08" y="64.28" width="9.3" height="8.12" transform="translate(-19.06 65.46) rotate(-29.97)"/><rect class="cls-3" x="104.03" y="57.26" width="9.3" height="8.11" transform="translate(-16.1 62.5) rotate(-29.97)"/><rect class="cls-5" x="99.98" y="50.23" width="9.3" height="8.12" transform="translate(-13.13 59.53) rotate(-29.97)"/><rect class="cls-2" x="91.87" y="36.17" width="9.3" height="8.11" transform="matrix(0.87, -0.5, 0.5, 0.87, -7.19, 53.6)"/><rect class="cls-3" x="87.82" y="29.14" width="9.3" height="8.12" transform="translate(-4.22 50.64) rotate(-29.97)"/><rect class="cls-3" x="83.77" y="22.12" width="9.3" height="8.11" transform="translate(-1.25 47.67) rotate(-29.97)"/><rect class="cls-3" x="79.71" y="15.09" width="9.3" height="8.12" transform="translate(1.72 44.71) rotate(-29.97)"/><rect class="cls-2" x="75.66" y="8.06" width="9.3" height="8.12" transform="translate(4.69 41.74) rotate(-29.97)"/><rect class="cls-2" x="205.4" y="251.64" width="9.31" height="8.12" transform="translate(-99.66 139.14) rotate(-29.97)"/><rect class="cls-5" x="201.35" y="244.61" width="9.31" height="8.12" transform="translate(-96.69 136.18) rotate(-29.97)"/><rect class="cls-3" x="197.3" y="237.59" width="9.31" height="8.11" transform="matrix(0.87, -0.5, 0.5, 0.87, -93.72, 133.21)"/><rect class="cls-3" x="193.24" y="230.56" width="9.31" height="8.12" transform="translate(-90.75 130.25) rotate(-29.97)"/><rect class="cls-2" x="189.19" y="223.54" width="9.31" height="8.11" transform="translate(-87.78 127.28) rotate(-29.97)"/><rect class="cls-2" x="185.14" y="216.51" width="9.31" height="8.11" transform="translate(-84.81 124.32) rotate(-29.97)"/><rect class="cls-2" x="181.08" y="209.48" width="9.31" height="8.12" transform="translate(-81.84 121.35) rotate(-29.97)"/><rect class="cls-2" x="177.03" y="202.45" width="9.31" height="8.11" transform="translate(-78.87 118.39) rotate(-29.97)"/><rect class="cls-2" x="172.98" y="195.42" width="9.31" height="8.12" transform="translate(-75.9 115.42) rotate(-29.97)"/><rect class="cls-2" x="168.93" y="188.4" width="9.31" height="8.11" transform="translate(-72.94 112.46) rotate(-29.97)"/><rect class="cls-2" x="164.87" y="181.37" width="9.31" height="8.12" transform="translate(-69.97 109.5) rotate(-29.97)"/><rect class="cls-2" x="160.82" y="174.34" width="9.31" height="8.12" transform="translate(-67 106.53) rotate(-29.97)"/><rect class="cls-2" x="156.77" y="167.32" width="9.31" height="8.11" transform="translate(-64.03 103.57) rotate(-29.97)"/><rect class="cls-2" x="152.71" y="160.29" width="9.31" height="8.11" transform="translate(-61.06 100.6) rotate(-29.97)"/><rect class="cls-2" x="148.66" y="153.26" width="9.31" height="8.11" transform="translate(-58.09 97.64) rotate(-29.97)"/><rect class="cls-2" x="144.61" y="146.23" width="9.31" height="8.12" transform="translate(-55.12 94.67) rotate(-29.97)"/><rect class="cls-2" x="140.55" y="139.2" width="9.31" height="8.12" transform="translate(-52.15 91.71) rotate(-29.97)"/><rect class="cls-2" x="136.5" y="132.18" width="9.31" height="8.11" transform="translate(-49.18 88.74) rotate(-29.97)"/><rect class="cls-5" x="132.45" y="125.15" width="9.31" height="8.11" transform="translate(-46.22 85.78) rotate(-29.97)"/><rect class="cls-5" x="128.4" y="118.13" width="9.31" height="8.11" transform="translate(-43.25 82.81) rotate(-29.97)"/><rect class="cls-3" x="124.34" y="111.1" width="9.31" height="8.12" transform="translate(-40.28 79.85) rotate(-29.97)"/><rect class="cls-3" x="120.29" y="104.07" width="9.31" height="8.12" transform="translate(-37.31 76.88) rotate(-29.97)"/><rect class="cls-6" x="116.24" y="97.04" width="9.31" height="8.11" transform="translate(-34.34 73.92) rotate(-29.97)"/><rect class="cls-5" x="112.18" y="90.01" width="9.31" height="8.12" transform="translate(-31.37 70.95) rotate(-29.97)"/><rect class="cls-3" x="108.13" y="82.99" width="9.31" height="8.11" transform="translate(-28.4 67.99) rotate(-29.97)"/><rect class="cls-3" x="104.08" y="75.96" width="9.31" height="8.12" transform="translate(-25.43 65.02) rotate(-29.97)"/><rect class="cls-3" x="100.02" y="68.93" width="9.31" height="8.12" transform="translate(-22.46 62.06) rotate(-29.97)"/><rect class="cls-4" x="95.97" y="61.91" width="9.31" height="8.11" transform="translate(-19.5 59.09) rotate(-29.97)"/><rect class="cls-4" x="91.92" y="54.87" width="9.31" height="8.12" transform="matrix(0.87, -0.5, 0.5, 0.87, -16.53, 56.13)"/><rect class="cls-5" x="87.86" y="47.84" width="9.31" height="8.12" transform="translate(-13.56 53.16) rotate(-29.97)"/><rect class="cls-3" x="83.81" y="40.82" width="9.31" height="8.11" transform="translate(-10.59 50.2) rotate(-29.97)"/><rect class="cls-3" x="79.76" y="33.79" width="9.31" height="8.12" transform="translate(-7.62 47.23) rotate(-29.97)"/><rect class="cls-3" x="71.65" y="19.74" width="9.31" height="8.12" transform="translate(-1.68 41.31) rotate(-29.97)"/><rect class="cls-3" x="67.6" y="12.71" width="9.31" height="8.12" transform="translate(1.29 38.34) rotate(-29.97)"/><rect class="cls-2" x="63.55" y="5.68" width="9.31" height="8.11" transform="translate(4.26 35.37) rotate(-29.97)"/><rect class="cls-7" x="197.34" y="256.3" width="9.31" height="8.12" transform="translate(-103.06 135.74) rotate(-29.97)"/><rect class="cls-7" x="193.28" y="249.26" width="9.31" height="8.12" transform="translate(-100.09 132.77) rotate(-29.97)"/><rect class="cls-3" x="189.23" y="242.24" width="9.31" height="8.11" transform="translate(-97.12 129.81) rotate(-29.97)"/><rect class="cls-3" x="185.18" y="235.21" width="9.31" height="8.12" transform="translate(-94.15 126.84) rotate(-29.97)"/><rect class="cls-7" x="181.13" y="228.19" width="9.31" height="8.11" transform="matrix(0.87, -0.5, 0.5, 0.87, -91.18, 123.88)"/><rect class="cls-7" x="177.07" y="221.16" width="9.31" height="8.11" transform="translate(-88.21 120.91) rotate(-29.97)"/><rect class="cls-7" x="173.02" y="214.13" width="9.31" height="8.12" transform="translate(-85.24 117.95) rotate(-29.97)"/><rect class="cls-7" x="168.97" y="207.1" width="9.31" height="8.11" transform="translate(-82.27 114.98) rotate(-29.97)"/><rect class="cls-7" x="164.91" y="200.07" width="9.31" height="8.12" transform="translate(-79.31 112.02) rotate(-29.97)"/><rect class="cls-7" x="160.86" y="193.05" width="9.31" height="8.11" transform="translate(-76.34 109.05) rotate(-29.97)"/><rect class="cls-7" x="156.81" y="186.02" width="9.31" height="8.12" transform="translate(-73.37 106.09) rotate(-29.97)"/><rect class="cls-7" x="152.75" y="178.99" width="9.31" height="8.12" transform="translate(-70.4 103.12) rotate(-29.97)"/><rect class="cls-7" x="148.7" y="171.97" width="9.31" height="8.11" transform="translate(-67.43 100.16) rotate(-29.97)"/><rect class="cls-7" x="144.65" y="164.94" width="9.31" height="8.11" transform="translate(-64.46 97.19) rotate(-29.97)"/><rect class="cls-7" x="140.6" y="157.91" width="9.31" height="8.11" transform="translate(-61.49 94.23) rotate(-29.97)"/><rect class="cls-7" x="136.54" y="150.88" width="9.31" height="8.12" transform="translate(-58.52 91.27) rotate(-29.97)"/><rect class="cls-7" x="132.49" y="143.85" width="9.31" height="8.12" transform="translate(-55.55 88.3) rotate(-29.97)"/><rect class="cls-7" x="128.44" y="136.83" width="9.31" height="8.11" transform="translate(-52.59 85.34) rotate(-29.97)"/><rect class="cls-6" x="124.38" y="129.8" width="9.31" height="8.11" transform="translate(-49.62 82.37) rotate(-29.97)"/><rect class="cls-2" x="120.33" y="122.78" width="9.31" height="8.11" transform="translate(-46.65 79.41) rotate(-29.97)"/><rect class="cls-8" x="116.28" y="115.75" width="9.31" height="8.12" transform="translate(-43.68 76.44) rotate(-29.97)"/><rect class="cls-3" x="112.22" y="108.72" width="9.31" height="8.12" transform="translate(-40.71 73.48) rotate(-29.97)"/><rect class="cls-6" x="108.17" y="101.69" width="9.31" height="8.11" transform="translate(-37.74 70.51) rotate(-29.97)"/><rect class="cls-2" x="104.12" y="94.66" width="9.31" height="8.12" transform="translate(-34.77 67.55) rotate(-29.97)"/><rect class="cls-3" x="100.07" y="87.64" width="9.31" height="8.11" transform="translate(-31.8 64.58) rotate(-29.97)"/><rect class="cls-3" x="96.01" y="80.61" width="9.31" height="8.12" transform="translate(-28.84 61.62) rotate(-29.97)"/><rect class="cls-4" x="91.96" y="73.58" width="9.31" height="8.12" transform="translate(-25.87 58.65) rotate(-29.97)"/><rect class="cls-4" x="87.91" y="66.56" width="9.31" height="8.11" transform="translate(-22.9 55.69) rotate(-29.97)"/><rect class="cls-8" x="83.85" y="59.53" width="9.31" height="8.12" transform="translate(-19.93 52.72) rotate(-29.97)"/><rect class="cls-3" x="79.8" y="52.49" width="9.31" height="8.12" transform="translate(-16.96 49.76) rotate(-29.97)"/><rect class="cls-3" x="75.75" y="45.47" width="9.31" height="8.11" transform="translate(-13.99 46.79) rotate(-29.97)"/><rect class="cls-3" x="59.53" y="17.36" width="9.31" height="8.12" transform="translate(-2.11 34.93) rotate(-29.97)"/><rect class="cls-3" x="55.48" y="10.33" width="9.31" height="8.11" transform="translate(0.85 31.97) rotate(-29.97)"/><rect class="cls-3" x="189.28" y="260.94" width="9.3" height="8.12" transform="translate(-106.46 132.33) rotate(-29.97)"/><rect class="cls-3" x="185.23" y="253.91" width="9.3" height="8.12" transform="translate(-103.49 129.37) rotate(-29.97)"/><rect class="cls-3" x="181.18" y="246.89" width="9.3" height="8.11" transform="translate(-100.52 126.4) rotate(-29.97)"/><rect class="cls-3" x="177.12" y="239.86" width="9.3" height="8.12" transform="translate(-97.55 123.44) rotate(-29.97)"/><rect class="cls-3" x="173.07" y="232.84" width="9.3" height="8.11" transform="translate(-94.58 120.47) rotate(-29.97)"/><rect class="cls-3" x="169.02" y="225.81" width="9.3" height="8.11" transform="translate(-91.61 117.51) rotate(-29.97)"/><rect class="cls-3" x="164.96" y="218.78" width="9.3" height="8.12" transform="translate(-88.64 114.54) rotate(-29.97)"/><rect class="cls-3" x="160.91" y="211.75" width="9.3" height="8.11" transform="translate(-85.67 111.58) rotate(-29.97)"/><rect class="cls-3" x="156.86" y="204.72" width="9.3" height="8.12" transform="translate(-82.71 108.61) rotate(-29.97)"/><rect class="cls-3" x="152.81" y="197.7" width="9.3" height="8.11" transform="translate(-79.74 105.65) rotate(-29.97)"/><rect class="cls-3" x="148.75" y="190.67" width="9.3" height="8.12" transform="translate(-76.77 102.68) rotate(-29.97)"/><rect class="cls-3" x="144.7" y="183.64" width="9.3" height="8.12" transform="translate(-73.8 99.72) rotate(-29.97)"/><rect class="cls-3" x="140.65" y="176.62" width="9.3" height="8.11" transform="translate(-70.83 96.75) rotate(-29.97)"/><rect class="cls-3" x="136.59" y="169.59" width="9.3" height="8.11" transform="translate(-67.86 93.79) rotate(-29.97)"/><rect class="cls-3" x="132.54" y="162.56" width="9.3" height="8.11" transform="translate(-64.89 90.83) rotate(-29.97)"/><rect class="cls-3" x="128.49" y="155.53" width="9.3" height="8.12" transform="translate(-61.92 87.86) rotate(-29.97)"/><rect class="cls-3" x="124.43" y="148.5" width="9.3" height="8.12" transform="translate(-58.95 84.89) rotate(-29.97)"/><rect class="cls-3" x="120.38" y="141.48" width="9.3" height="8.11" transform="translate(-55.99 81.93) rotate(-29.97)"/><rect class="cls-6" x="116.33" y="134.45" width="9.3" height="8.11" transform="matrix(0.87, -0.5, 0.5, 0.87, -53.02, 78.97)"/><rect class="cls-2" x="112.28" y="127.42" width="9.3" height="8.11" transform="translate(-50.05 76) rotate(-29.97)"/><rect class="cls-8" x="108.22" y="120.39" width="9.3" height="8.12" transform="translate(-47.08 73.04) rotate(-29.97)"/><rect class="cls-4" x="104.17" y="113.36" width="9.3" height="8.12" transform="translate(-44.11 70.07) rotate(-29.97)"/><rect class="cls-6" x="100.12" y="106.34" width="9.3" height="8.11" transform="translate(-41.14 67.11) rotate(-29.97)"/><rect class="cls-6" x="96.06" y="99.31" width="9.3" height="8.12" transform="translate(-38.17 64.14) rotate(-29.97)"/><rect class="cls-3" x="92.01" y="92.29" width="9.3" height="8.11" transform="translate(-35.2 61.18) rotate(-29.97)"/><rect class="cls-4" x="87.96" y="85.26" width="9.3" height="8.12" transform="translate(-32.24 58.21) rotate(-29.97)"/><rect class="cls-4" x="83.9" y="78.23" width="9.3" height="8.12" transform="translate(-29.27 55.25) rotate(-29.97)"/><rect class="cls-8" x="79.85" y="71.2" width="9.3" height="8.11" transform="translate(-26.3 52.28) rotate(-29.97)"/><rect class="cls-3" x="75.8" y="64.17" width="9.3" height="8.12" transform="translate(-23.33 49.32) rotate(-29.97)"/><rect class="cls-3" x="71.74" y="57.14" width="9.3" height="8.12" transform="translate(-20.36 46.35) rotate(-29.97)"/><rect class="cls-2" x="67.69" y="50.12" width="9.3" height="8.11" transform="translate(-17.39 43.39) rotate(-29.97)"/><rect class="cls-5" x="51.48" y="22.01" width="9.3" height="8.12" transform="translate(-5.51 31.53) rotate(-29.97)"/><rect class="cls-3" x="47.43" y="14.98" width="9.3" height="8.11" transform="translate(-2.55 28.56) rotate(-29.97)"/><rect class="cls-8" x="181.22" y="265.59" width="9.31" height="8.12" transform="translate(-109.86 128.93) rotate(-29.97)"/><rect class="cls-8" x="177.17" y="258.56" width="9.31" height="8.12" transform="translate(-106.89 125.96) rotate(-29.97)"/><rect class="cls-8" x="173.12" y="251.54" width="9.31" height="8.11" transform="translate(-103.92 123) rotate(-29.97)"/><rect class="cls-8" x="169.06" y="244.51" width="9.31" height="8.12" transform="translate(-100.95 120.03) rotate(-29.97)"/><rect class="cls-8" x="165.01" y="237.48" width="9.31" height="8.11" transform="translate(-97.98 117.07) rotate(-29.97)"/><rect class="cls-8" x="160.96" y="230.45" width="9.31" height="8.11" transform="translate(-95.01 114.1) rotate(-29.97)"/><rect class="cls-8" x="156.9" y="223.42" width="9.31" height="8.12" transform="translate(-92.04 111.14) rotate(-29.97)"/><rect class="cls-8" x="152.85" y="216.4" width="9.31" height="8.11" transform="translate(-89.07 108.17) rotate(-29.97)"/><rect class="cls-8" x="148.8" y="209.37" width="9.31" height="8.12" transform="translate(-86.11 105.21) rotate(-29.97)"/><rect class="cls-8" x="144.74" y="202.35" width="9.31" height="8.11" transform="translate(-83.14 102.24) rotate(-29.97)"/><rect class="cls-8" x="140.69" y="195.32" width="9.31" height="8.12" transform="translate(-80.17 99.28) rotate(-29.97)"/><rect class="cls-8" x="136.64" y="188.29" width="9.31" height="8.12" transform="translate(-77.2 96.31) rotate(-29.97)"/><rect class="cls-8" x="132.58" y="181.26" width="9.31" height="8.11" transform="translate(-74.23 93.35) rotate(-29.97)"/><rect class="cls-8" x="128.53" y="174.23" width="9.31" height="8.11" transform="translate(-71.26 90.39) rotate(-29.97)"/><rect class="cls-8" x="124.48" y="167.21" width="9.31" height="8.11" transform="translate(-68.29 87.42) rotate(-29.97)"/><rect class="cls-8" x="120.43" y="160.18" width="9.31" height="8.12" transform="translate(-65.32 84.46) rotate(-29.97)"/><rect class="cls-8" x="116.37" y="153.15" width="9.31" height="8.12" transform="translate(-62.35 81.49) rotate(-29.97)"/><rect class="cls-3" x="112.32" y="146.13" width="9.31" height="8.11" transform="translate(-59.39 78.53) rotate(-29.97)"/><rect class="cls-6" x="108.27" y="139.1" width="9.31" height="8.11" transform="translate(-56.42 75.56) rotate(-29.97)"/><rect class="cls-5" x="104.21" y="132.07" width="9.31" height="8.11" transform="translate(-53.45 72.6) rotate(-29.97)"/><rect class="cls-8" x="100.16" y="125.04" width="9.31" height="8.12" transform="matrix(0.87, -0.5, 0.5, 0.87, -50.48, 69.63)"/><rect class="cls-4" x="96.11" y="118.01" width="9.31" height="8.12" transform="translate(-47.51 66.67) rotate(-29.97)"/><rect class="cls-6" x="92.05" y="110.99" width="9.31" height="8.11" transform="translate(-44.54 63.7) rotate(-29.97)"/><rect class="cls-2" x="88" y="103.96" width="9.31" height="8.12" transform="translate(-41.57 60.74) rotate(-29.97)"/><rect class="cls-4" x="83.95" y="96.93" width="9.31" height="8.11" transform="translate(-38.6 57.77) rotate(-29.97)"/><rect class="cls-4" x="79.9" y="89.9" width="9.31" height="8.12" transform="translate(-35.64 54.81) rotate(-29.97)"/><rect class="cls-8" x="75.84" y="82.87" width="9.31" height="8.12" transform="translate(-32.67 51.84) rotate(-29.97)"/><rect class="cls-3" x="71.79" y="75.85" width="9.31" height="8.11" transform="translate(-29.7 48.88) rotate(-29.97)"/><rect class="cls-3" x="67.74" y="68.82" width="9.31" height="8.12" transform="translate(-26.73 45.91) rotate(-29.97)"/><rect class="cls-3" x="63.68" y="61.79" width="9.31" height="8.12" transform="translate(-23.76 42.95) rotate(-29.97)"/><rect class="cls-3" x="59.63" y="54.77" width="9.31" height="8.11" transform="translate(-20.79 39.98) rotate(-29.97)"/><rect class="cls-2" x="55.58" y="47.74" width="9.31" height="8.12" transform="translate(-17.82 37.02) rotate(-29.97)"/><rect class="cls-2" x="47.47" y="33.68" width="9.31" height="8.12" transform="translate(-11.88 31.09) rotate(-29.97)"/><rect class="cls-3" x="43.42" y="26.65" width="9.31" height="8.12" transform="translate(-8.91 28.12) rotate(-29.97)"/><rect class="cls-4" x="39.36" y="19.63" width="9.31" height="8.11" transform="translate(-5.95 25.16) rotate(-29.97)"/><rect class="cls-8" x="92.11" y="129.69" width="9.3" height="8.12" transform="translate(-53.88 66.23) rotate(-29.97)"/><rect class="cls-3" x="88.05" y="122.66" width="9.3" height="8.12" transform="translate(-50.91 63.26) rotate(-29.97)"/><rect class="cls-4" x="75.9" y="101.58" width="9.3" height="8.11" transform="translate(-42 54.37) rotate(-29.97)"/><rect class="cls-8" x="71.84" y="94.55" width="9.3" height="8.12" transform="translate(-39.04 51.4) rotate(-29.97)"/><rect class="cls-3" x="67.79" y="87.52" width="9.3" height="8.12" transform="matrix(0.87, -0.5, 0.5, 0.87, -36.06, 48.44)"/><rect class="cls-3" x="63.74" y="80.5" width="9.3" height="8.11" transform="translate(-33.1 45.47) rotate(-29.97)"/><rect class="cls-3" x="59.68" y="73.47" width="9.3" height="8.12" transform="translate(-30.13 42.51) rotate(-29.97)"/><rect class="cls-3" x="51.58" y="59.41" width="9.3" height="8.11" transform="translate(-24.19 36.58) rotate(-29.97)"/><rect class="cls-3" x="47.52" y="52.38" width="9.3" height="8.12" transform="translate(-21.22 33.61) rotate(-29.97)"/><rect class="cls-5" x="43.47" y="45.36" width="9.3" height="8.11" transform="translate(-18.25 30.65) rotate(-29.97)"/><rect class="cls-3" x="39.42" y="38.33" width="9.3" height="8.12" transform="translate(-15.28 27.69) rotate(-29.97)"/><rect class="cls-4" x="35.36" y="31.3" width="9.3" height="8.12" transform="translate(-12.31 24.72) rotate(-29.97)"/><rect class="cls-3" x="84.05" y="134.34" width="9.31" height="8.12" transform="translate(-57.28 62.82) rotate(-29.97)"/><rect class="cls-5" x="67.83" y="106.23" width="9.31" height="8.11" transform="translate(-45.4 50.96) rotate(-29.97)"/><rect class="cls-3" x="63.78" y="99.2" width="9.31" height="8.12" transform="translate(-42.43 48) rotate(-29.97)"/><rect class="cls-3" x="59.73" y="92.17" width="9.31" height="8.12" transform="translate(-39.46 45.03) rotate(-29.97)"/><rect class="cls-3" x="55.67" y="85.15" width="9.31" height="8.11" transform="translate(-36.5 42.07) rotate(-29.97)"/><rect class="cls-5" x="51.62" y="78.12" width="9.31" height="8.12" transform="translate(-33.53 39.11) rotate(-29.97)"/><rect class="cls-3" x="39.46" y="57.03" width="9.31" height="8.12" transform="translate(-24.62 30.21) rotate(-29.97)"/><rect class="cls-4" x="35.41" y="50.01" width="9.31" height="8.11" transform="translate(-21.65 27.25) rotate(-29.97)"/><rect class="cls-4" x="31.36" y="42.98" width="9.31" height="8.12" transform="translate(-18.68 24.28) rotate(-29.97)"/><rect class="cls-2" x="63.82" y="117.9" width="9.31" height="8.12" transform="translate(-51.77 50.52) rotate(-29.97)"/><rect class="cls-3" x="59.77" y="110.88" width="9.31" height="8.11" transform="translate(-48.81 47.56) rotate(-29.97)"/><rect class="cls-4" x="55.72" y="103.85" width="9.31" height="8.12" transform="translate(-45.84 44.59) rotate(-29.97)"/><rect class="cls-4" x="47.61" y="89.8" width="9.31" height="8.11" transform="translate(-39.9 38.66) rotate(-29.97)"/><rect class="cls-3" x="43.56" y="82.77" width="9.31" height="8.12" transform="translate(-36.93 35.7) rotate(-29.97)"/><rect class="cls-2" x="39.5" y="75.74" width="9.31" height="8.12" transform="translate(-33.96 32.73) rotate(-29.97)"/><rect class="cls-3" x="55.77" y="122.55" width="9.3" height="8.12" transform="translate(-55.17 47.12) rotate(-29.97)"/><rect class="cls-4" x="51.72" y="115.53" width="9.3" height="8.11" transform="translate(-52.21 44.15) rotate(-29.97)"/><rect class="cls-4" x="35.5" y="87.41" width="9.3" height="8.12" transform="translate(-40.33 32.29) rotate(-29.97)"/><rect class="cls-3" x="31.45" y="80.38" width="9.3" height="8.12" transform="translate(-37.36 29.33) rotate(-29.97)"/><rect class="cls-3" x="47.71" y="127.2" width="9.31" height="8.12" transform="translate(-58.57 43.71) rotate(-29.97)"/><rect class="cls-2" x="43.65" y="120.18" width="9.31" height="8.11" transform="translate(-55.6 40.75) rotate(-29.97)"/><rect class="cls-5" x="27.44" y="92.06" width="9.31" height="8.12" transform="translate(-43.73 28.89) rotate(-29.97)"/><rect class="cls-3" x="23.39" y="85.03" width="9.31" height="8.12" transform="translate(-40.76 25.92) rotate(-29.97)"/><rect class="cls-3" x="39.65" y="131.85" width="9.3" height="8.12" transform="translate(-61.97 40.31) rotate(-29.97)"/><rect class="cls-3" x="35.6" y="124.82" width="9.3" height="8.11" transform="translate(-59 37.34) rotate(-29.97)"/><rect class="cls-2" x="31.55" y="117.79" width="9.3" height="8.12" transform="translate(-56.04 34.38) rotate(-29.97)"/><rect class="cls-2" x="23.44" y="103.74" width="9.3" height="8.11" transform="translate(-50.1 28.45) rotate(-29.97)"/><rect class="cls-3" x="19.39" y="96.71" width="9.3" height="8.12" transform="translate(-47.13 25.49) rotate(-29.97)"/><rect class="cls-4" x="15.33" y="89.68" width="9.3" height="8.12" transform="translate(-44.16 22.52) rotate(-29.97)"/><rect class="cls-3" x="27.53" y="129.47" width="9.31" height="8.11" transform="translate(-62.4 33.94) rotate(-29.97)"/><rect class="cls-3" x="23.48" y="122.44" width="9.31" height="8.12" transform="translate(-59.44 30.98) rotate(-29.97)"/><rect class="cls-5" x="19.43" y="115.41" width="9.31" height="8.12" transform="translate(-56.47 28.01) rotate(-29.97)"/><rect class="cls-3" x="15.37" y="108.39" width="9.31" height="8.11" transform="translate(-53.5 25.05) rotate(-29.97)"/><rect class="cls-4" x="11.32" y="101.36" width="9.31" height="8.12" transform="translate(-50.53 22.08) rotate(-29.97)"/><rect class="cls-4" x="15.42" y="127.09" width="9.31" height="8.12" transform="translate(-62.84 27.57) rotate(-29.97)"/><rect class="cls-4" x="11.37" y="120.06" width="9.31" height="8.12" transform="translate(-59.87 24.6) rotate(-29.97)"/><rect class="cls-4" x="7.31" y="113.04" width="9.31" height="8.11" transform="translate(-56.9 21.64) rotate(-29.97)"/></svg>