<svg id="Layer_1" data-name="Layer 1" xmlns="http://www.w3.org/2000/svg" viewBox="0 0 282.6 318.57"><defs><style>.cls-1{fill:#95817b;}.cls-2{fill:#5f4e4a;}.cls-3{fill:#4a7a2f;}.cls-4{fill:#177533;}.cls-5{fill:#56af32;}.cls-6{fill:#82bb27;}.cls-7{fill:#62504c;}.cls-8{fill:#426040;}.cls-9{fill:#d0e09c;}.cls-10{fill:#dddc03;}.cls-11{fill:#3caa36;}.cls-12{fill:#6eb52e;}.cls-13{fill:#94c122;}.cls-14{fill:#0f4523;}.cls-15{fill:#72816a;}.cls-16{fill:#dadada;}.cls-17{fill:#8b7973;}.cls-18{fill:#323231;}.cls-19{fill:#fff;}</style></defs><rect class="cls-1" x="183.69" y="290.25" width="7.06" height="7.08"/><rect class="cls-1" x="91.84" y="290.25" width="7.07" height="7.08"/><rect class="cls-1" x="190.76" y="283.18" width="7.06" height="7.07"/><rect class="cls-1" x="84.78" y="283.18" width="7.06" height="7.07"/><rect class="cls-1" x="197.82" y="276.08" width="7.07" height="7.09"/><rect class="cls-2" x="91.84" y="276.08" width="7.07" height="7.09"/><rect class="cls-1" x="77.71" y="276.08" width="7.06" height="7.09"/><rect class="cls-3" x="141.3" y="261.93" width="7.07" height="7.08"/><rect class="cls-3" x="134.24" y="261.93" width="7.06" height="7.08"/><rect class="cls-4" x="169.56" y="233.62" width="7.06" height="7.08"/><rect class="cls-5" x="141.3" y="233.62" width="7.07" height="7.08"/><rect class="cls-6" x="134.24" y="233.62" width="7.06" height="7.08"/><rect class="cls-7" x="233.15" y="226.54" width="7.06" height="7.08"/><rect class="cls-8" x="190.76" y="226.54" width="7.06" height="7.08"/><rect class="cls-3" x="176.63" y="226.54" width="7.07" height="7.08"/><rect class="cls-6" x="141.3" y="226.54" width="7.07" height="7.08"/><rect class="cls-3" x="98.91" y="226.54" width="7.07" height="7.08"/><rect class="cls-8" x="84.78" y="226.54" width="7.06" height="7.08"/><rect class="cls-7" x="42.39" y="226.54" width="7.06" height="7.08"/><rect class="cls-1" x="240.21" y="219.46" width="7.06" height="7.08"/><rect class="cls-3" x="183.69" y="219.46" width="7.06" height="7.08"/><rect class="cls-3" x="91.84" y="219.46" width="7.07" height="7.08"/><rect class="cls-1" x="35.33" y="219.46" width="7.06" height="7.08"/><rect class="cls-3" x="183.69" y="212.38" width="7.06" height="7.08"/><rect class="cls-3" x="84.78" y="212.38" width="7.06" height="7.08"/><rect class="cls-3" x="190.76" y="205.3" width="7.06" height="7.08"/><rect class="cls-3" x="84.78" y="205.3" width="7.06" height="7.08"/><rect class="cls-1" x="254.34" y="184.06" width="7.06" height="7.09"/><rect class="cls-1" x="21.2" y="184.06" width="7.07" height="7.09"/><rect class="cls-3" x="204.89" y="176.98" width="7.06" height="7.08"/><rect class="cls-9" x="155.43" y="176.98" width="7.06" height="7.08"/><rect class="cls-9" x="120.11" y="176.98" width="7.07" height="7.08"/><rect class="cls-3" x="70.65" y="176.98" width="7.07" height="7.08"/><rect class="cls-9" x="183.69" y="169.91" width="7.06" height="7.08"/><rect class="cls-9" x="91.84" y="169.91" width="7.07" height="7.08"/><rect class="cls-9" x="183.69" y="162.83" width="7.06" height="7.08"/><rect class="cls-9" x="91.84" y="162.83" width="7.07" height="7.08"/><rect class="cls-9" x="183.69" y="155.75" width="7.06" height="7.08"/><rect class="cls-9" x="91.84" y="155.75" width="7.07" height="7.08"/><rect class="cls-9" x="183.69" y="148.67" width="7.06" height="7.08"/><rect class="cls-9" x="91.84" y="148.67" width="7.07" height="7.08"/><rect class="cls-9" x="155.43" y="134.51" width="7.06" height="7.08"/><rect class="cls-9" x="120.11" y="134.51" width="7.07" height="7.08"/><polygon class="cls-10" points="84.78 134.51 84.78 127.43 84.78 120.35 77.71 120.35 77.71 113.28 77.71 106.19 77.71 99.11 77.71 92.03 77.71 84.95 70.65 84.95 63.58 84.95 56.52 84.95 56.52 92.03 56.52 99.11 56.52 106.19 56.52 113.28 56.52 120.35 56.52 127.43 63.58 127.43 63.58 134.51 63.58 141.59 70.65 141.59 77.71 141.59 84.78 141.59 91.84 141.59 91.84 134.51 84.78 134.51"/><rect class="cls-3" x="183.69" y="70.79" width="7.06" height="7.08"/><polygon class="cls-11" points="169.56 198.22 169.56 205.3 162.5 205.3 162.5 212.38 162.5 219.46 155.43 219.46 155.43 226.54 148.37 226.54 148.37 233.62 148.37 240.7 141.3 240.7 141.3 247.78 148.37 247.78 155.43 247.78 162.5 247.78 162.5 240.7 169.56 240.7 169.56 233.62 176.63 233.62 176.63 226.54 183.69 226.54 183.69 219.46 183.69 212.38 183.69 205.3 183.69 198.22 176.63 198.22 169.56 198.22"/><polygon class="cls-11" points="219.02 92.03 211.95 92.03 204.89 92.03 197.82 92.03 197.82 84.95 190.76 84.95 183.69 84.95 176.63 84.95 176.63 77.87 169.56 77.87 162.5 77.87 162.5 70.79 155.43 70.79 148.37 70.79 141.3 70.79 141.3 77.87 141.3 84.95 148.37 84.95 148.37 92.03 155.43 92.03 155.43 99.11 162.5 99.11 169.56 99.11 169.56 106.19 176.63 106.19 183.69 106.19 190.76 106.19 190.76 113.28 197.82 113.28 204.89 113.28 211.95 113.28 211.95 106.19 219.02 106.19 226.09 106.19 226.09 99.11 226.09 92.03 219.02 92.03"/><rect class="cls-12" x="134.24" y="240.7" width="7.06" height="7.07"/><rect class="cls-12" x="183.69" y="106.19" width="7.06" height="7.09"/><polygon class="cls-12" points="219.02 84.95 211.95 84.95 204.89 84.95 197.82 84.95 197.82 92.03 204.89 92.03 211.95 92.03 219.02 92.03 226.09 92.03 226.09 84.95 219.02 84.95"/><rect class="cls-12" x="141.3" y="84.95" width="7.07" height="7.08"/><polygon class="cls-12" points="141.3 70.79 134.24 70.79 134.24 77.87 134.24 84.95 141.3 84.95 141.3 77.87 141.3 70.79"/><rect class="cls-3" x="91.84" y="70.79" width="7.07" height="7.08"/><polygon class="cls-13" points="63.58 127.43 56.52 127.43 56.52 134.51 56.52 141.59 63.58 141.59 63.58 134.51 63.58 127.43"/><path class="cls-13" d="M226.09,77.87h-42.4V70.79H162.5v7.08h14.13V85h49.46v21.24H212v7.09H183.69v-7.09H169.56V99.11H155.43V92H141.3V85h-7.06V70.79H162.5V63.71H120.11v7.08H98.91v7.08H49.46v42.48h7.06V85H77.71v35.4h7.07v14.16h7.06v7.08H63.58v21.24h7.07V177h7.06v14.17h7.07V205.3h7.06v14.16h7.07v7.08H106V240.7h7.07v7.07h14.13v7.09h7.06v7.07h14.13v-7.07h7.06v-7.09H134.24V233.62h7.06v-7.08h14.13v-7.08h7.07V205.3h7.06v-7.08h14.13v14.16h7.07V205.3h7.06V191.15h7.07V177H212V162.83H219V141.59h7.07V113.28h7.06V77.87ZM148.37,205.3H127.18V184.06h-7.07V177H91.84V148.67h7.07v-7.08h21.2v-7.08h7.07V120.35h7.06v-7.07h14.13v7.07h7.06v14.16h7.07v7.08h21.19v7.08h7.07V177H162.5v7.08h-7.07V205.3Z"/><rect class="cls-3" x="141.3" y="56.64" width="7.07" height="7.08"/><rect class="cls-3" x="134.24" y="56.64" width="7.06" height="7.08"/><polygon class="cls-14" points="183.69 233.62 176.63 233.62 176.63 240.7 169.56 240.7 162.5 240.7 162.5 247.78 155.43 247.78 155.43 254.86 148.37 254.86 148.37 261.93 148.37 269.01 141.3 269.01 134.24 269.01 134.24 261.93 134.24 254.86 127.18 254.86 127.18 247.78 120.11 247.78 113.05 247.78 113.05 240.7 105.98 240.7 105.98 233.62 98.91 233.62 98.91 226.54 91.84 226.54 91.84 233.62 91.84 240.7 98.91 240.7 98.91 247.78 98.91 254.86 105.98 254.86 105.98 261.93 113.05 261.93 113.05 269.01 120.11 269.01 120.11 276.08 127.18 276.08 134.24 276.08 141.3 276.08 148.37 276.08 155.43 276.08 162.5 276.08 162.5 269.01 169.56 269.01 169.56 261.93 176.63 261.93 176.63 254.86 183.69 254.86 183.69 247.78 183.69 240.7 190.76 240.7 190.76 233.62 190.76 226.54 183.69 226.54 183.69 233.62"/><polygon class="cls-14" points="233.15 63.71 226.09 63.71 219.02 63.71 211.95 63.71 204.89 63.71 197.82 63.71 190.76 63.71 190.76 56.63 183.69 56.63 176.63 56.63 169.56 56.63 169.56 49.56 162.5 49.56 155.43 49.56 148.37 49.56 141.3 49.56 134.24 49.56 127.18 49.56 120.11 49.56 113.05 49.56 113.05 56.63 105.98 56.63 98.91 56.63 91.84 56.63 91.84 63.71 84.78 63.71 77.71 63.71 70.65 63.71 63.58 63.71 56.52 63.71 49.46 63.71 42.39 63.71 42.39 70.79 42.39 77.87 42.39 84.95 42.39 92.03 42.39 99.11 42.39 106.19 42.39 113.28 42.39 120.35 42.39 127.43 49.46 127.43 49.46 134.51 49.46 141.59 49.46 148.66 49.46 155.75 49.46 162.83 49.46 169.91 49.46 176.98 56.52 176.98 56.52 184.06 63.58 184.06 63.58 191.15 63.58 198.22 70.65 198.22 70.65 205.3 70.65 212.38 77.71 212.38 77.71 219.46 77.71 226.54 84.78 226.54 91.84 226.54 91.84 219.46 84.78 219.46 84.78 212.38 84.78 205.3 84.78 198.22 84.78 191.15 77.71 191.15 77.71 184.06 70.65 184.06 70.65 176.98 70.65 169.91 70.65 162.83 63.58 162.83 63.58 155.75 63.58 148.66 63.58 141.59 56.52 141.59 56.52 134.51 56.52 127.43 56.52 120.35 49.46 120.35 49.46 113.28 49.46 106.19 49.46 99.11 49.46 92.03 49.46 84.95 49.46 77.87 56.52 77.87 63.58 77.87 70.65 77.87 77.71 77.87 84.78 77.87 91.84 77.87 91.84 70.79 98.91 70.79 105.98 70.79 113.05 70.79 120.11 70.79 120.11 63.71 127.18 63.71 134.24 63.71 134.24 56.63 141.3 56.63 148.37 56.63 148.37 63.71 155.43 63.71 162.5 63.71 162.5 70.79 169.56 70.79 176.63 70.79 183.69 70.79 190.76 70.79 190.76 77.87 197.82 77.87 204.89 77.87 211.95 77.87 219.02 77.87 226.09 77.87 233.15 77.87 233.15 84.95 233.15 92.03 233.15 99.11 233.15 106.19 233.15 113.28 226.09 113.28 226.09 120.35 226.09 127.43 226.09 134.51 226.09 141.59 219.02 141.59 219.02 148.66 219.02 155.75 219.02 162.83 211.95 162.83 211.95 169.91 211.95 176.98 211.95 184.06 204.89 184.06 204.89 191.15 197.82 191.15 197.82 198.22 197.82 205.3 197.82 212.38 190.76 212.38 190.76 219.46 190.76 226.54 197.82 226.54 204.89 226.54 204.89 219.46 204.89 212.38 211.95 212.38 211.95 205.3 211.95 198.22 219.02 198.22 219.02 191.15 219.02 184.06 226.09 184.06 226.09 176.98 226.09 169.91 233.15 169.91 233.15 162.83 233.15 155.75 233.15 148.66 233.15 141.59 233.15 134.51 233.15 127.43 233.15 120.35 240.22 120.35 240.22 113.28 240.22 106.19 240.22 99.11 240.22 92.03 240.22 84.95 240.22 77.87 240.22 70.79 240.22 63.71 233.15 63.71"/><polygon class="cls-15" points="134.24 276.08 134.24 283.18 141.3 283.18 148.37 283.18 148.37 276.08 141.3 276.08 134.24 276.08"/><rect class="cls-15" x="183.69" y="240.7" width="7.06" height="7.07"/><rect class="cls-15" x="91.84" y="240.7" width="7.07" height="7.07"/><rect class="cls-15" x="190.76" y="233.62" width="7.06" height="7.08"/><rect class="cls-15" x="84.78" y="233.62" width="7.06" height="7.08"/><rect class="cls-15" x="219.02" y="184.06" width="7.07" height="7.09"/><rect class="cls-15" x="56.52" y="184.06" width="7.06" height="7.09"/><polygon class="cls-15" points="42.39 134.51 42.39 141.59 42.39 148.66 49.46 148.66 49.46 141.59 49.46 134.51 49.46 127.43 42.39 127.43 42.39 134.51"/><polygon class="cls-15" points="233.15 127.43 233.15 134.51 233.15 141.59 233.15 148.66 240.22 148.66 240.22 141.59 240.22 134.51 240.22 127.43 240.22 120.35 233.15 120.35 233.15 127.43"/><polygon class="cls-15" points="42.39 113.28 42.39 106.19 42.39 99.11 42.39 92.03 42.39 84.95 42.39 77.87 42.39 70.79 42.39 63.71 35.33 63.71 35.33 70.79 35.33 77.87 35.33 84.95 35.33 92.03 35.33 99.11 35.33 106.19 35.33 113.28 35.33 120.35 35.33 127.43 42.39 127.43 42.39 120.35 42.39 113.28"/><polygon class="cls-15" points="240.22 63.71 240.22 70.79 240.22 77.87 240.22 84.95 240.22 92.03 240.22 99.11 240.22 106.19 240.22 113.28 240.22 120.35 247.28 120.35 247.28 113.28 247.28 106.19 247.28 99.11 247.28 92.03 247.28 84.95 247.28 77.87 247.28 70.79 247.28 63.71 240.22 63.71"/><rect class="cls-15" x="190.76" y="56.64" width="7.06" height="7.08"/><rect class="cls-15" x="84.78" y="56.64" width="7.06" height="7.08"/><polygon class="cls-15" points="134.24 42.47 134.24 49.56 141.3 49.56 148.37 49.56 148.37 42.47 141.3 42.47 134.24 42.47"/><rect class="cls-1" x="190.76" y="21.23" width="7.06" height="7.09"/><polygon class="cls-16" points="21.2 63.71 21.2 56.63 21.2 49.56 21.2 42.47 14.13 42.47 14.13 49.56 14.13 56.63 14.13 63.71 14.13 70.79 14.13 77.87 14.13 84.95 14.13 92.03 14.13 99.11 14.13 106.19 21.2 106.19 21.2 113.28 21.2 120.35 21.2 127.43 21.2 134.51 28.27 134.51 28.27 141.59 28.27 148.66 28.27 155.75 28.27 162.83 35.33 162.83 35.33 169.91 35.33 176.98 35.33 184.06 42.39 184.06 42.39 191.15 49.46 191.15 49.46 198.22 49.46 205.3 49.46 212.38 49.46 219.46 56.52 219.46 56.52 226.54 63.58 226.54 63.58 233.62 63.58 240.7 70.65 240.7 70.65 247.78 77.71 247.78 77.71 254.86 84.78 254.86 84.78 261.93 84.78 269.01 91.84 269.01 91.84 276.08 98.91 276.08 105.98 276.08 105.98 283.18 113.05 283.18 113.05 290.25 120.11 290.25 120.11 297.33 127.18 297.33 134.24 297.33 134.24 290.25 134.24 283.18 134.24 276.08 127.18 276.08 120.11 276.08 120.11 269.01 113.05 269.01 113.05 261.93 105.98 261.93 105.98 254.86 98.91 254.86 98.91 247.78 91.84 247.78 91.84 240.7 84.78 240.7 84.78 233.62 84.78 226.54 77.71 226.54 77.71 219.46 77.71 212.38 70.65 212.38 70.65 205.3 70.65 198.22 63.58 198.22 63.58 191.15 56.52 191.15 56.52 184.06 56.52 176.98 49.46 176.98 49.46 169.91 49.46 162.83 49.46 155.75 49.46 148.66 42.39 148.66 42.39 141.59 42.39 134.51 42.39 127.43 35.33 127.43 35.33 120.35 35.33 113.28 35.33 106.19 35.33 99.11 35.33 92.03 35.33 84.95 35.33 77.87 35.33 70.79 35.33 63.71 28.27 63.71 21.2 63.71"/><polygon class="cls-16" points="247.28 49.56 247.28 42.47 240.22 42.47 233.15 42.47 226.09 42.47 219.02 42.47 211.95 42.47 204.89 42.47 197.82 42.47 190.76 42.47 190.76 35.4 183.69 35.4 176.63 35.4 169.56 35.4 162.5 35.4 162.5 28.33 155.43 28.33 148.37 28.33 148.37 35.4 148.37 42.47 148.37 49.56 155.43 49.56 162.5 49.56 169.56 49.56 169.56 56.63 176.63 56.63 183.69 56.63 190.76 56.63 197.82 56.63 197.82 63.71 204.89 63.71 211.95 63.71 219.02 63.71 226.09 63.71 233.15 63.71 240.22 63.71 247.28 63.71 247.28 56.63 247.28 49.56"/><polygon class="cls-16" points="261.41 42.47 261.41 49.56 261.41 56.63 261.41 63.71 254.34 63.71 247.28 63.71 247.28 70.79 247.28 77.87 247.28 84.95 247.28 92.03 247.28 99.11 247.28 106.19 247.28 113.28 247.28 120.35 240.22 120.35 240.22 127.43 240.22 134.51 240.22 141.59 240.22 148.66 233.15 148.66 233.15 155.75 233.15 162.83 233.15 169.91 226.09 169.91 226.09 176.98 226.09 184.06 226.09 191.15 219.02 191.15 219.02 198.22 211.95 198.22 211.95 205.3 211.95 212.38 204.89 212.38 204.89 219.46 204.89 226.54 197.82 226.54 197.82 233.62 197.82 240.7 190.76 240.7 190.76 247.78 183.69 247.78 183.69 254.86 176.63 254.86 176.63 261.93 169.56 261.93 169.56 269.01 162.5 269.01 162.5 276.08 155.43 276.08 148.37 276.08 148.37 283.18 148.37 290.25 148.37 297.33 155.43 297.33 162.5 297.33 162.5 290.25 169.56 290.25 169.56 283.18 176.63 283.18 176.63 276.08 183.69 276.08 183.69 269.01 190.76 269.01 190.76 261.93 197.82 261.93 197.82 254.86 204.89 254.86 204.89 247.78 211.95 247.78 211.95 240.7 219.02 240.7 219.02 233.62 219.02 226.54 226.09 226.54 226.09 219.46 233.15 219.46 233.15 212.38 233.15 205.3 233.15 198.22 233.15 191.15 240.22 191.15 240.22 184.06 247.28 184.06 247.28 176.98 247.28 169.91 247.28 162.83 254.34 162.83 254.34 155.75 254.34 148.66 254.34 141.59 254.34 134.51 261.41 134.51 261.41 127.43 261.41 120.35 261.41 113.28 261.41 106.19 261.41 99.11 268.47 99.11 268.47 92.03 268.47 84.95 268.47 77.87 268.47 70.79 268.47 63.71 268.47 56.63 268.47 49.56 268.47 42.47 261.41 42.47"/><polygon class="cls-16" points="120.11 28.33 120.11 35.4 113.05 35.4 105.98 35.4 98.91 35.4 91.84 35.4 91.84 42.47 84.78 42.47 77.71 42.47 70.65 42.47 63.58 42.47 56.52 42.47 49.46 42.47 42.39 42.47 35.33 42.47 35.33 49.56 35.33 56.63 35.33 63.71 42.39 63.71 49.46 63.71 56.52 63.71 63.58 63.71 70.65 63.71 77.71 63.71 84.78 63.71 84.78 56.63 91.84 56.63 98.91 56.63 105.98 56.63 113.05 56.63 113.05 49.56 120.11 49.56 127.18 49.56 134.24 49.56 134.24 42.47 134.24 35.4 134.24 28.33 127.18 28.33 120.11 28.33"/><polygon class="cls-16" points="141.3 21.23 134.24 21.23 134.24 28.33 141.3 28.33 148.37 28.33 148.37 21.23 141.3 21.23"/><rect class="cls-1" x="84.78" y="21.23" width="7.06" height="7.09"/><polygon class="cls-17" points="134.24 297.33 134.24 304.41 141.3 304.41 148.37 304.41 148.37 297.33 141.3 297.33 134.24 297.33"/><polygon class="cls-17" points="134.24 283.18 134.24 290.25 141.3 290.25 148.37 290.25 148.37 283.18 141.3 283.18 134.24 283.18"/><rect class="cls-17" x="176.63" y="276.08" width="7.07" height="7.09"/><rect class="cls-17" x="98.91" y="276.08" width="7.07" height="7.09"/><rect class="cls-17" x="183.69" y="269.01" width="7.06" height="7.07"/><rect class="cls-17" x="84.78" y="269.01" width="7.06" height="7.07"/><rect class="cls-17" x="190.76" y="261.93" width="7.06" height="7.08"/><rect class="cls-17" x="219.02" y="226.54" width="7.07" height="7.08"/><rect class="cls-17" x="56.52" y="226.54" width="7.06" height="7.08"/><polygon class="cls-17" points="233.15 198.22 233.15 205.3 240.22 205.3 240.22 198.22 240.22 191.15 233.15 191.15 233.15 198.22"/><polygon class="cls-17" points="42.39 198.22 42.39 205.3 42.39 212.38 49.46 212.38 49.46 205.3 49.46 198.22 49.46 191.15 42.39 191.15 42.39 198.22"/><rect class="cls-17" x="240.21" y="184.06" width="7.06" height="7.09"/><rect class="cls-17" x="35.33" y="184.06" width="7.06" height="7.09"/><rect class="cls-17" x="254.34" y="134.51" width="7.06" height="7.08"/><rect class="cls-17" x="21.2" y="134.51" width="7.07" height="7.08"/><polygon class="cls-17" points="261.41 35.4 254.34 35.4 247.28 35.4 240.22 35.4 233.15 35.4 226.09 35.4 219.02 35.4 211.95 35.4 204.89 35.4 197.82 35.4 190.76 35.4 190.76 42.47 197.82 42.47 204.89 42.47 211.95 42.47 219.02 42.47 226.09 42.47 233.15 42.47 240.22 42.47 247.28 42.47 247.28 49.56 254.34 49.56 261.41 49.56 261.41 42.47 268.47 42.47 268.47 35.4 261.41 35.4"/><polygon class="cls-17" points="134.24 35.4 134.24 42.47 141.3 42.47 148.37 42.47 148.37 35.4 141.3 35.4 134.24 35.4"/><polygon class="cls-17" points="77.71 35.4 70.65 35.4 63.58 35.4 56.52 35.4 49.46 35.4 42.39 35.4 35.33 35.4 28.27 35.4 21.2 35.4 14.13 35.4 14.13 42.47 21.2 42.47 21.2 49.56 28.27 49.56 35.33 49.56 35.33 42.47 42.39 42.47 49.46 42.47 56.52 42.47 63.58 42.47 70.65 42.47 77.71 42.47 84.78 42.47 91.84 42.47 91.84 35.4 84.78 35.4 77.71 35.4"/><polygon class="cls-17" points="134.24 14.16 134.24 21.23 141.3 21.23 148.37 21.23 148.37 14.16 141.3 14.16 134.24 14.16"/><polygon class="cls-18" points="141.3 290.25 134.24 290.25 134.24 297.33 141.3 297.33 148.37 297.33 148.37 290.25 141.3 290.25"/><rect class="cls-18" x="84.78" y="276.08" width="7.06" height="7.09"/><polygon class="cls-18" points="261.41 63.71 261.41 56.63 261.41 49.56 254.34 49.56 247.28 49.56 247.28 56.63 247.28 63.71 254.34 63.71 261.41 63.71"/><polygon class="cls-18" points="21.2 49.56 21.2 56.63 21.2 63.71 28.27 63.71 35.33 63.71 35.33 56.63 35.33 49.56 28.27 49.56 21.2 49.56"/><polygon class="cls-18" points="275.54 28.33 268.47 28.33 261.41 28.33 254.34 28.33 247.28 28.33 240.22 28.33 233.15 28.33 226.09 28.33 219.02 28.33 211.95 28.33 204.89 28.33 197.82 28.33 190.76 28.33 190.76 21.23 183.69 21.23 176.63 21.23 169.56 21.23 169.56 14.16 162.5 14.16 155.43 14.16 155.43 7.08 148.37 7.08 148.37 0 141.3 0 134.24 0 134.24 7.08 127.18 7.08 127.18 14.16 120.11 14.16 113.05 14.16 113.05 21.23 105.98 21.23 98.91 21.23 91.84 21.23 91.84 28.33 84.78 28.33 77.71 28.33 70.65 28.33 63.58 28.33 56.52 28.33 49.46 28.33 42.39 28.33 35.33 28.33 28.27 28.33 21.2 28.33 14.13 28.33 7.07 28.33 0 28.33 0 35.4 0 42.47 0 49.56 0 56.63 0 63.71 0 70.79 0 77.87 0 84.95 0 92.03 0 99.11 0 106.19 0 113.28 7.07 113.28 7.07 120.35 7.07 127.43 7.07 134.51 7.07 141.59 14.13 141.59 14.13 148.66 14.13 155.75 14.13 162.83 14.13 169.91 21.2 169.91 21.2 176.98 21.2 184.06 28.27 184.06 28.27 191.15 28.27 198.22 28.27 205.3 35.33 205.3 35.33 212.38 35.33 219.46 42.39 219.46 42.39 226.54 49.46 226.54 49.46 233.62 49.46 240.7 49.46 247.78 56.52 247.78 56.52 254.86 63.58 254.86 63.58 261.93 63.58 269.01 70.65 269.01 70.65 276.08 77.71 276.08 84.78 276.08 84.78 269.01 84.78 261.93 84.78 254.86 77.71 254.86 77.71 247.78 70.65 247.78 70.65 240.7 63.58 240.7 63.58 233.62 56.52 233.62 56.52 226.54 56.52 219.46 49.46 219.46 49.46 212.38 42.39 212.38 42.39 205.3 42.39 198.22 42.39 191.15 35.33 191.15 35.33 184.06 35.33 176.98 35.33 169.91 35.33 162.83 28.27 162.83 28.27 155.75 28.27 148.66 28.27 141.59 21.2 141.59 21.2 134.51 21.2 127.43 21.2 120.35 21.2 113.28 21.2 106.19 14.13 106.19 14.13 99.11 14.13 92.03 14.13 84.95 14.13 77.87 14.13 70.79 14.13 63.71 14.13 56.63 14.13 49.56 14.13 42.47 14.13 35.4 21.2 35.4 28.27 35.4 35.33 35.4 42.39 35.4 49.46 35.4 56.52 35.4 63.58 35.4 70.65 35.4 77.71 35.4 84.78 35.4 91.84 35.4 98.91 35.4 105.98 35.4 113.05 35.4 120.11 35.4 120.11 28.33 127.18 28.33 134.24 28.33 134.24 21.23 134.24 14.16 141.3 14.16 148.37 14.16 148.37 21.23 148.37 28.33 155.43 28.33 162.5 28.33 162.5 35.4 169.56 35.4 176.63 35.4 183.69 35.4 190.76 35.4 197.82 35.4 204.89 35.4 211.95 35.4 219.02 35.4 226.09 35.4 233.15 35.4 240.22 35.4 247.28 35.4 254.34 35.4 261.41 35.4 268.47 35.4 268.47 42.47 268.47 49.56 268.47 56.63 268.47 63.71 268.47 70.79 268.47 77.87 268.47 84.95 268.47 92.03 268.47 99.11 261.41 99.11 261.41 106.19 261.41 113.28 261.41 120.35 261.41 127.43 261.41 134.51 261.41 141.59 254.34 141.59 254.34 148.66 254.34 155.75 254.34 162.83 247.28 162.83 247.28 169.91 247.28 176.98 247.28 184.06 247.28 191.15 240.22 191.15 240.22 198.22 240.22 205.3 233.15 205.3 233.15 212.38 233.15 219.46 226.09 219.46 226.09 226.54 226.09 233.62 219.02 233.62 219.02 240.7 211.95 240.7 211.95 247.78 204.89 247.78 204.89 254.86 197.82 254.86 197.82 261.93 197.82 269.01 190.76 269.01 190.76 276.08 183.69 276.08 183.69 283.18 176.63 283.18 169.56 283.18 169.56 290.25 162.5 290.25 162.5 297.33 155.43 297.33 148.37 297.33 148.37 304.41 141.3 304.41 134.24 304.41 134.24 297.33 127.18 297.33 120.11 297.33 120.11 290.25 113.05 290.25 113.05 283.18 105.98 283.18 98.91 283.18 91.84 283.18 91.84 290.25 98.91 290.25 98.91 297.33 105.98 297.33 105.98 304.41 113.05 304.41 113.05 311.49 120.11 311.49 127.18 311.49 127.18 318.57 134.24 318.57 141.3 318.57 148.37 318.57 155.43 318.57 155.43 311.49 162.5 311.49 169.56 311.49 169.56 304.41 176.63 304.41 176.63 297.33 183.69 297.33 183.69 290.25 190.76 290.25 190.76 283.18 197.82 283.18 197.82 276.08 204.89 276.08 211.95 276.08 211.95 269.01 219.02 269.01 219.02 261.93 219.02 254.86 226.09 254.86 226.09 247.78 233.15 247.78 233.15 240.7 233.15 233.62 233.15 226.54 240.22 226.54 240.22 219.46 247.28 219.46 247.28 212.38 247.28 205.3 247.28 198.22 254.34 198.22 254.34 191.15 254.34 184.06 261.41 184.06 261.41 176.98 261.41 169.91 268.47 169.91 268.47 162.83 268.47 155.75 268.47 148.66 268.47 141.59 275.54 141.59 275.54 134.51 275.54 127.43 275.54 120.35 275.54 113.28 275.54 106.19 282.6 106.19 282.6 99.11 282.6 92.03 282.6 84.95 282.6 77.87 282.6 70.79 282.6 63.71 282.6 56.63 282.6 49.56 282.6 42.47 282.6 35.4 282.6 28.33 275.54 28.33"/><polygon class="cls-18" points="141.3 35.4 148.37 35.4 148.37 28.33 141.3 28.33 134.24 28.33 134.24 35.4 141.3 35.4"/><polygon class="cls-19" points="169.56 141.59 162.5 141.59 155.43 141.59 155.43 134.51 155.43 127.43 155.43 120.35 148.37 120.35 148.37 113.28 141.3 113.28 134.24 113.28 134.24 120.35 127.18 120.35 127.18 127.43 127.18 134.51 127.18 141.59 120.11 141.59 113.05 141.59 105.98 141.59 98.91 141.59 98.91 148.66 98.91 155.75 98.91 162.83 98.91 169.91 98.91 176.98 105.98 176.98 113.05 176.98 120.11 176.98 127.18 176.98 127.18 184.06 127.18 191.15 127.18 198.22 127.18 205.3 134.24 205.3 141.3 205.3 148.37 205.3 155.43 205.3 155.43 198.22 155.43 191.15 155.43 184.06 155.43 176.98 162.5 176.98 169.56 176.98 176.63 176.98 183.69 176.98 183.69 169.91 183.69 162.83 183.69 155.75 183.69 148.66 183.69 141.59 176.63 141.59 169.56 141.59"/></svg>