<svg id="Layer_1" data-name="Layer 1" xmlns="http://www.w3.org/2000/svg" viewBox="0 0 328.32 352.44"><defs><style>.cls-1{fill:#5f6364;}.cls-2{fill:#565a5b;}.cls-3{fill:#4c5151;}.cls-4{fill:#434746;}.cls-5{fill:#373c3a;}.cls-6{fill:#303331;}.cls-7{fill:#232624;}.cls-8{fill:#272726;}.cls-9{fill:#606466;}.cls-10{fill:#595d5e;}.cls-11{fill:#4e5353;}.cls-12{fill:#454949;}.cls-13{fill:#3b3f3e;}.cls-14{fill:#242825;}.cls-15{fill:#2a2a28;}.cls-16{fill:#535757;}.cls-17{fill:#313530;}.cls-18{fill:#252521;}.cls-19{fill:#493d2b;}.cls-20{fill:#4d5252;}.cls-21{fill:#5d4125;}.cls-22{fill:#75401d;}.cls-23{fill:#ed8f21;}.cls-24{fill:#272b28;}.cls-25{fill:#d1d3d9;}.cls-26{fill:#626668;}.cls-27{fill:#4a4f4e;}.cls-28{fill:#83888b;}.cls-29{fill:#5e6263;}.cls-30{fill:#363a38;}.cls-31{fill:#fdcd05;}.cls-32{fill:#d7b748;}.cls-33{fill:#2b2f2b;}.cls-34{fill:#1d1d1b;}.cls-35{fill:#fff;}</style></defs><rect class="cls-1" x="306.09" y="53.31" width="7.8" height="4.31" transform="translate(57.42 243.56) rotate(-46.82)"/><rect class="cls-2" x="300.76" y="59" width="7.8" height="4.31" transform="translate(51.7 241.62) rotate(-46.86)"/><rect class="cls-3" x="295.42" y="64.69" width="7.8" height="4.31" transform="translate(45.75 239.37) rotate(-46.82)"/><rect class="cls-4" x="290.09" y="70.38" width="7.8" height="4.31" transform="translate(40 237.39) rotate(-46.85)"/><rect class="cls-5" x="284.75" y="76.06" width="7.8" height="4.32" transform="translate(34.14 235.27) rotate(-46.84)"/><rect class="cls-6" x="279.42" y="81.75" width="7.8" height="4.31" transform="translate(28.26 233.09) rotate(-46.82)"/><rect class="cls-7" x="274.08" y="87.44" width="7.8" height="4.31" transform="translate(22.47 231.07) rotate(-46.84)"/><rect class="cls-8" x="268.75" y="93.13" width="7.8" height="4.31" transform="translate(16.65 229.02) rotate(-46.85)"/><rect class="cls-9" x="308.28" y="44.67" width="7.8" height="4.31" transform="translate(64.47 242.5) rotate(-46.84)"/><rect class="cls-9" x="302.95" y="50.36" width="7.8" height="4.31" transform="translate(58.64 240.41) rotate(-46.84)"/><rect class="cls-9" x="297.61" y="56.05" width="7.8" height="4.32" transform="translate(52.82 238.34) rotate(-46.84)"/><rect class="cls-9" x="292.28" y="61.74" width="7.8" height="4.32" transform="matrix(0.68, -0.73, 0.73, 0.68, 46.97, 236.23)"/><rect class="cls-9" x="286.94" y="67.43" width="7.8" height="4.31" transform="translate(41.08 234.05) rotate(-46.82)"/><rect class="cls-9" x="281.61" y="73.11" width="7.8" height="4.31" transform="translate(35.3 232.03) rotate(-46.84)"/><rect class="cls-9" x="276.27" y="78.8" width="7.8" height="4.31" transform="translate(29.46 229.94) rotate(-46.84)"/><rect class="cls-9" x="270.94" y="84.49" width="7.8" height="4.31" transform="translate(23.6 227.79) rotate(-46.83)"/><rect class="cls-9" x="265.6" y="90.18" width="7.8" height="4.31" transform="translate(17.84 225.84) rotate(-46.86)"/><rect class="cls-9" x="260.27" y="95.87" width="7.8" height="4.31" transform="translate(11.91 223.57) rotate(-46.82)"/><rect class="cls-9" x="254.93" y="101.56" width="7.8" height="4.31" transform="translate(6.16 221.65) rotate(-46.86)"/><rect class="cls-9" x="249.6" y="107.25" width="7.8" height="4.31" transform="translate(0.26 219.41) rotate(-46.83)"/><rect class="cls-9" x="244.26" y="112.94" width="7.8" height="4.31" transform="translate(-5.51 217.46) rotate(-46.86)"/><rect class="cls-9" x="238.93" y="118.62" width="7.8" height="4.32" transform="translate(-11.41 215.2) rotate(-46.82)"/><rect class="cls-9" x="233.59" y="124.31" width="7.8" height="4.32" transform="translate(-17.22 213.19) rotate(-46.84)"/><rect class="cls-9" x="228.25" y="130" width="7.8" height="4.32" transform="translate(-23.06 211.09) rotate(-46.84)"/><rect class="cls-9" x="222.92" y="135.69" width="7.8" height="4.31" transform="translate(-28.91 208.91) rotate(-46.82)"/><rect class="cls-1" x="217.58" y="141.38" width="7.8" height="4.31" transform="translate(-34.7 207.01) rotate(-46.86)"/><rect class="cls-10" x="212.25" y="147.07" width="7.8" height="4.32" transform="translate(-40.57 204.74) rotate(-46.82)"/><rect class="cls-11" x="206.91" y="152.76" width="7.8" height="4.31" transform="translate(-46.38 202.79) rotate(-46.86)"/><rect class="cls-12" x="201.58" y="158.45" width="7.8" height="4.31" transform="translate(-52.24 200.54) rotate(-46.82)"/><rect class="cls-13" x="196.24" y="164.14" width="7.8" height="4.31" transform="translate(-58.05 198.65) rotate(-46.86)"/><rect class="cls-6" x="190.91" y="169.82" width="7.8" height="4.32" transform="translate(-63.91 196.35) rotate(-46.82)"/><rect class="cls-14" x="185.57" y="175.51" width="7.8" height="4.32" transform="translate(-69.73 194.34) rotate(-46.84)"/><rect class="cls-15" x="180.24" y="181.2" width="7.8" height="4.31" transform="translate(-75.57 192.16) rotate(-46.82)"/><rect class="cls-9" x="310.47" y="36.03" width="7.8" height="4.31" transform="translate(71.54 241.46) rotate(-46.86)"/><rect class="cls-9" x="305.14" y="41.72" width="7.8" height="4.31" transform="translate(65.59 239.22) rotate(-46.83)"/><rect class="cls-9" x="299.8" y="47.41" width="7.8" height="4.31" transform="translate(59.8 237.19) rotate(-46.84)"/><rect class="cls-9" x="294.46" y="53.1" width="7.8" height="4.31" transform="translate(53.96 235.09) rotate(-46.84)"/><rect class="cls-9" x="289.13" y="58.79" width="7.8" height="4.31" transform="translate(48.13 233) rotate(-46.84)"/><rect class="cls-9" x="283.79" y="64.47" width="7.8" height="4.32" transform="translate(42.29 230.9) rotate(-46.84)"/><rect class="cls-9" x="278.46" y="70.16" width="7.8" height="4.32" transform="translate(36.43 228.76) rotate(-46.83)"/><rect class="cls-9" x="273.12" y="75.85" width="7.8" height="4.31" transform="translate(30.67 226.79) rotate(-46.86)"/><rect class="cls-9" x="267.79" y="81.54" width="7.8" height="4.31" transform="translate(24.74 224.55) rotate(-46.82)"/><rect class="cls-9" x="262.45" y="87.23" width="7.8" height="4.31" transform="translate(18.99 222.6) rotate(-46.86)"/><rect class="cls-9" x="139.74" y="218.07" width="7.8" height="4.32" transform="translate(-115.26 174.36) rotate(-46.84)"/><rect class="cls-9" x="134.41" y="223.76" width="7.8" height="4.32" transform="translate(-121.09 172.26) rotate(-46.84)"/><rect class="cls-9" x="129.07" y="229.45" width="7.8" height="4.32" transform="translate(-126.93 170.16) rotate(-46.84)"/><rect class="cls-3" x="123.74" y="235.14" width="7.8" height="4.32" transform="translate(-132.77 168.11) rotate(-46.85)"/><rect class="cls-16" x="312.66" y="27.39" width="7.8" height="4.32" transform="translate(78.48 240.26) rotate(-46.84)"/><rect class="cls-9" x="307.32" y="33.08" width="7.8" height="4.32" transform="translate(72.63 238.15) rotate(-46.84)"/><rect class="cls-9" x="301.99" y="38.77" width="7.8" height="4.32" transform="translate(66.79 236.05) rotate(-46.84)"/><rect class="cls-9" x="296.65" y="44.46" width="7.8" height="4.31" transform="translate(60.9 233.89) rotate(-46.82)"/><rect class="cls-9" x="291.32" y="50.14" width="7.8" height="4.31" transform="translate(55.18 231.94) rotate(-46.86)"/><rect class="cls-9" x="285.98" y="55.83" width="7.8" height="4.32" transform="translate(49.25 229.72) rotate(-46.83)"/><rect class="cls-17" x="99.25" y="254.94" width="7.8" height="4.31" transform="translate(-154.91 156.38) rotate(-46.82)"/><rect class="cls-18" x="77.91" y="277.7" width="7.8" height="4.31" transform="translate(-178.3 148.12) rotate(-46.84)"/><rect class="cls-19" x="72.58" y="283.39" width="7.8" height="4.31" transform="translate(-184.12 146) rotate(-46.84)"/><rect class="cls-15" x="19.22" y="340.27" width="7.8" height="4.32" transform="translate(-242.47 125.05) rotate(-46.84)"/><rect class="cls-14" x="314.85" y="18.75" width="7.8" height="4.31" transform="translate(85.38 239.03) rotate(-46.82)"/><rect class="cls-9" x="309.51" y="24.44" width="7.8" height="4.31" transform="translate(79.62 237.01) rotate(-46.84)"/><rect class="cls-9" x="304.18" y="30.13" width="7.8" height="4.31" transform="matrix(0.68, -0.73, 0.73, 0.68, 73.79, 234.92)"/><rect class="cls-9" x="298.84" y="35.82" width="7.8" height="4.31" transform="translate(67.97 232.85) rotate(-46.84)"/><rect class="cls-9" x="311.7" y="15.8" width="7.8" height="4.31" transform="translate(86.61 235.88) rotate(-46.84)"/><rect class="cls-9" x="306.37" y="21.49" width="7.8" height="4.31" transform="translate(80.74 233.74) rotate(-46.83)"/><rect class="cls-20" x="124.97" y="214.91" width="7.8" height="4.31" transform="translate(-117.6 162.5) rotate(-46.82)"/><rect class="cls-21" x="89.81" y="246.09" width="7.8" height="4.31" transform="translate(-151.43 146.7) rotate(-46.82)"/><rect class="cls-14" x="305.41" y="9.9" width="7.8" height="4.31" transform="translate(88.86 229.35) rotate(-46.82)"/><rect class="cls-22" x="117.45" y="229.24" width="7.8" height="4.31" transform="translate(-130.45 161.64) rotate(-46.84)"/><polygon class="cls-22" points="89.47 249.61 86.32 246.66 80.99 252.35 75.65 258.04 70.32 263.73 73.46 266.68 76.61 269.63 79.76 272.58 82.9 275.53 86.05 278.48 91.39 272.8 96.72 267.11 93.57 264.16 98.91 258.47 95.76 255.51 101.1 249.83 97.95 246.88 92.62 252.56 89.47 249.61"/><polygon class="cls-22" points="54.31 280.8 48.98 286.49 43.64 292.17 46.79 295.12 49.93 298.08 53.08 301.02 56.23 303.98 59.38 306.93 64.71 301.24 70.05 295.55 75.38 289.86 72.23 286.91 77.57 281.22 74.42 278.27 71.28 275.32 68.13 272.37 64.98 269.42 59.65 275.11 54.31 280.8"/><polygon class="cls-22" points="27.64 309.24 22.3 314.93 25.45 317.88 28.59 320.83 31.74 323.78 34.89 326.73 38.03 329.68 43.37 324 48.7 318.31 54.04 312.62 50.89 309.67 47.75 306.72 44.6 303.76 41.45 300.81 38.31 297.86 32.97 303.55 27.64 309.24"/><rect class="cls-15" x="1.3" y="334.16" width="7.8" height="4.31" transform="translate(-243.6 109.97) rotate(-46.82)"/><polygon class="cls-23" points="116.14 221.17 113 218.22 107.66 223.91 104.52 220.96 99.18 226.64 93.85 232.34 96.99 235.28 100.14 238.23 103.29 241.19 106.43 244.14 101.1 249.83 104.25 252.78 107.39 255.73 110.54 258.68 113.69 261.63 116.83 264.58 119.98 267.54 123.13 270.48 126.27 273.44 120.94 279.13 124.08 282.07 127.23 285.03 121.9 290.72 125.04 293.67 128.19 296.62 131.34 299.57 134.48 302.52 137.63 305.47 140.78 308.43 143.93 311.38 147.07 314.33 152.41 308.64 157.74 302.95 154.59 300 159.93 294.31 156.78 291.36 153.64 288.41 150.49 285.46 147.34 282.51 144.19 279.56 141.05 276.6 137.9 273.65 134.75 270.7 131.61 267.75 128.46 264.8 125.31 261.85 122.17 258.89 119.02 255.94 115.87 252.99 121.21 247.3 118.06 244.35 123.4 238.66 120.25 235.71 117.1 232.76 122.44 227.07 119.29 224.12 124.63 218.43 121.48 215.48 116.14 221.17"/><rect class="cls-8" x="8.82" y="319.83" width="7.8" height="4.32" transform="translate(-230.87 111.04) rotate(-46.85)"/><rect class="cls-24" x="285.3" y="12.42" width="7.8" height="4.31" transform="translate(80.66 215.48) rotate(-46.82)"/><rect class="cls-25" x="215.94" y="86.38" width="7.8" height="4.31" transform="translate(4.85 188.26) rotate(-46.82)"/><rect class="cls-26" x="151.92" y="154.64" width="7.8" height="4.32" transform="translate(-65.14 163.16) rotate(-46.83)"/><rect class="cls-11" x="146.58" y="160.33" width="7.8" height="4.31" transform="translate(-70.98 161.17) rotate(-46.86)"/><rect class="cls-13" x="141.25" y="166.02" width="7.8" height="4.31" transform="translate(-76.81 158.93) rotate(-46.82)"/><rect class="cls-7" x="135.91" y="171.71" width="7.8" height="4.31" transform="translate(-82.65 156.91) rotate(-46.84)"/><rect class="cls-27" x="276.81" y="15.16" width="7.8" height="4.31" transform="translate(76.12 210.29) rotate(-46.86)"/><polygon class="cls-28" points="308.21 16.37 305.06 13.42 301.92 10.47 296.58 16.16 293.44 13.21 288.1 18.89 291.25 21.85 294.39 24.8 289.06 30.49 283.72 36.18 278.39 41.86 273.06 47.56 267.72 53.24 270.87 56.19 265.53 61.88 260.19 67.57 254.86 73.26 249.52 78.95 244.19 84.64 238.85 90.33 233.52 96.02 228.18 101.71 222.85 107.39 217.51 113.08 212.18 118.77 206.84 124.46 201.51 130.15 196.17 135.84 190.84 141.53 185.5 147.22 180.17 152.91 174.83 158.59 169.5 164.28 164.16 169.97 158.83 175.66 153.49 181.35 148.16 187.03 142.82 192.73 137.49 198.41 132.15 204.1 126.82 209.79 129.96 212.74 133.11 215.69 127.77 221.38 130.92 224.33 125.58 230.02 128.73 232.97 134.07 227.28 139.4 221.59 144.74 215.91 147.88 218.86 153.22 213.17 158.56 207.48 163.89 201.79 169.23 196.1 174.56 190.42 179.9 184.73 185.23 179.04 190.57 173.35 195.9 167.66 201.24 161.97 206.57 156.28 211.91 150.59 217.24 144.9 222.58 139.22 227.91 133.53 233.25 127.84 238.58 122.15 243.92 116.46 249.25 110.77 254.59 105.08 259.93 99.39 265.26 93.71 262.11 90.76 267.45 85.07 272.78 79.38 278.12 73.69 283.45 68 288.79 62.31 285.64 59.36 290.98 53.67 296.31 47.98 301.65 42.29 298.5 39.34 303.84 33.65 309.17 27.96 306.02 25.01 311.36 19.33 316.69 13.63 313.55 10.69 308.21 16.37"/><rect class="cls-28" x="110.19" y="211.74" width="7.8" height="4.31" transform="translate(-120 150.89) rotate(-46.86)"/><rect class="cls-28" x="101.71" y="214.48" width="7.8" height="4.31" transform="translate(-124.68 145.58) rotate(-46.86)"/><rect class="cls-28" x="279.96" y="18.11" width="7.8" height="4.31" transform="translate(74.97 213.53) rotate(-46.86)"/><polygon class="cls-28" points="170.73 144.05 176.06 138.36 181.4 132.67 186.73 126.98 192.07 121.29 197.4 115.61 202.74 109.92 208.07 104.23 213.41 98.54 218.74 92.85 215.6 89.9 210.26 95.59 204.93 101.28 199.59 106.97 194.26 112.66 188.92 118.34 183.59 124.03 178.25 129.72 172.91 135.41 167.58 141.1 162.25 146.79 156.91 152.47 160.06 155.43 165.39 149.74 170.73 144.05"/><polygon class="cls-28" points="271.14 24.37 265.8 30.06 260.47 35.75 255.13 41.44 249.8 47.13 244.46 52.82 239.13 58.5 233.79 64.2 236.94 67.14 242.27 61.46 247.61 55.77 252.94 50.08 258.28 44.39 263.61 38.7 268.95 33.01 274.29 27.32 279.62 21.64 276.47 18.68 271.14 24.37"/><rect class="cls-29" x="228.8" y="66.36" width="7.8" height="4.31" transform="translate(23.51 191.32) rotate(-46.82)"/><rect class="cls-27" x="223.46" y="72.05" width="7.8" height="4.31" transform="translate(17.74 189.35) rotate(-46.86)"/><rect class="cls-30" x="218.13" y="77.74" width="7.8" height="4.31" transform="translate(11.89 187.22) rotate(-46.85)"/><rect class="cls-14" x="212.79" y="83.42" width="7.8" height="4.32" transform="translate(6.03 185.09) rotate(-46.84)"/><polygon class="cls-31" points="105.2 264.37 99.87 270.06 103.02 273.01 106.16 275.96 109.31 278.91 112.46 281.86 115.6 284.81 118.75 287.77 121.9 290.72 127.23 285.03 124.08 282.07 120.94 279.13 126.27 273.44 123.13 270.48 119.98 267.54 116.83 264.58 113.69 261.63 110.54 258.68 107.39 255.73 102.06 261.42 105.2 264.37"/><polygon class="cls-31" points="6.29 332 9.44 334.95 12.59 337.9 15.73 340.85 18.88 343.8 24.22 338.11 27.36 341.06 32.7 335.37 29.55 332.42 26.41 329.47 23.26 326.52 20.11 323.57 16.96 320.62 11.63 326.31 6.29 332"/><polygon class="cls-31" points="90.7 229.38 87.55 226.43 84.41 223.48 81.26 220.53 78.11 217.58 74.96 214.63 71.82 211.67 68.67 208.72 65.52 205.77 62.38 202.82 59.23 199.87 56.08 196.92 52.94 193.97 49.79 191.02 44.45 196.7 41.31 193.75 35.97 199.44 30.64 205.13 33.78 208.08 36.93 211.03 40.08 213.99 43.23 216.94 46.37 219.89 49.52 222.84 52.67 225.79 55.81 228.74 58.96 231.69 62.11 234.64 65.25 237.6 68.4 240.54 71.55 243.5 74.69 246.45 77.84 249.4 83.17 243.71 86.32 246.66 91.66 240.97 94.8 243.93 100.14 238.23 96.99 235.28 93.85 232.34 99.18 226.64 96.03 223.69 90.7 229.38"/><rect class="cls-32" x="33.17" y="192.97" width="7.8" height="4.31" transform="translate(-130.62 88.69) rotate(-46.84)"/><rect class="cls-33" x="27.83" y="198.65" width="7.8" height="4.32" transform="translate(-136.46 86.61) rotate(-46.84)"/><path class="cls-34" d="M140.78,308.43l-3.15-3-3.15-3-3.14-2.95-3.15-2.95L125,293.67l-3.14-2.95-3.15-3-3.15-3-3.14-2.95-3.15-2.95-3.15-3L103,273l-3.14-2.95,5.33-5.69-3.14-2.95-3.15-2.95-5.34,5.69,3.15,2.95-5.33,5.69-5.34,5.68-5.33,5.69-5.34,5.69-5.33,5.69-5.34,5.69-5.34,5.69L56.23,304l-3.15-3-3.15-2.95-3.14-3-3.15-2.95L49,286.48l5.33-5.68,5.34-5.69L65,269.42l3.15,2.95,3.15,2.95,3.14,2.95,3.15,3,5.33-5.69-3.14-2.95-3.15-2.95-3.15-2.95-3.14-2.95L75.65,258,81,252.35l5.33-5.69-3.15-2.95-5.33,5.69-3.15-3-3.14-3-3.15-2.94-3.15-3-3.14-3L59,231.69l-3.15-2.95-3.14-3-3.15-2.95-3.15-3-3.14-2.95-3.15-3L36.93,211l-3.15-2.95-3.14-3-3.15-2.95-5.34,5.69,3.15,2.95,3.15,3,3.15,2.95,3.14,2.95,3.15,3,3.15,3,3.14,2.95,3.15,2.95,3.15,3,3.14,2.95,3.15,3,3.15,2.95,3.15,3,3.14,2.95,3.15,2.95L64,257.83l-5.33,5.69-5.34,5.68L48,274.89l-5.34,5.69-5.33,5.69L32,292l-5.33,5.69-5.34,5.69L16,309l-5.34,5.68L5.33,320.4,0,326.09l3.15,3L6.29,332l5.34-5.68-3.15-3,5.34-5.69,3.14,3,3.15,2.95,3.15,2.95,3.14,3,3.15,2.95,3.15,2.95-5.34,5.69L22,346.75l3.14,2.95L30.51,344l5.34-5.7,5.33-5.68L46.52,327l5.33-5.69,5.34-5.69,5.33-5.69,5.34-5.69,5.33-5.69,5.34-5.68,5.33-5.7,5.34-5.68,5.33-5.69,3.15,2.95,3.15,2.95,3.14,3,3.15,2.95,3.15,2.95,3.14,2.95,3.15,3,3.15,2.95,3.14,2.95,3.15,2.95,3.15,2.95,3.15,3,3.14,2.95,3.15,3,3.15,2.95,5.33-5.69-3.15-2.95ZM48.7,318.31,43.37,324,38,329.68l-3.14-2.95-3.15-3-3.15-2.95-3.14-2.95-3.15-2.95,5.34-5.69L33,303.55l5.34-5.69,3.14,2.95,3.15,2.95,3.15,3,3.14,2.95L54,312.62Z"/><polygon class="cls-34" points="316.42 45.46 311.09 51.15 314.24 54.1 308.9 59.79 303.56 65.48 298.23 71.17 292.89 76.85 287.56 82.54 282.22 88.23 276.89 93.92 271.55 99.61 268.41 96.66 263.07 102.34 257.74 108.04 252.4 113.72 247.07 119.42 241.73 125.1 236.4 130.79 231.06 136.48 225.72 142.17 220.39 147.86 215.05 153.54 209.72 159.24 204.38 164.92 199.05 170.62 193.71 176.3 188.38 181.99 183.04 187.68 179.9 184.73 174.56 190.42 169.23 196.1 163.89 201.79 158.56 207.48 153.22 213.17 147.88 218.86 142.55 224.55 137.21 230.24 131.88 235.93 126.55 241.62 123.4 238.66 118.06 244.35 121.21 247.3 115.87 252.99 119.02 255.94 122.17 258.89 125.31 261.85 128.46 264.8 131.61 267.75 134.75 270.7 137.9 273.65 141.05 276.6 144.19 279.56 147.34 282.51 150.49 285.46 153.64 288.41 156.78 291.36 159.93 294.31 154.59 300 157.74 302.95 152.41 308.64 147.07 314.33 150.22 317.28 155.55 311.59 160.89 305.9 166.22 300.21 163.08 297.26 168.41 291.57 165.26 288.62 162.12 285.67 158.97 282.72 155.82 279.77 152.68 276.81 149.53 273.87 146.38 270.92 143.24 267.96 140.09 265.01 136.94 262.06 133.8 259.11 130.65 256.16 127.5 253.21 132.84 247.52 138.17 241.83 143.51 236.14 143.51 236.14 148.84 230.45 154.18 224.76 159.51 219.07 164.85 213.38 170.18 207.7 175.52 202.01 180.85 196.32 186.19 190.63 191.53 184.94 196.86 179.25 202.19 173.56 207.53 167.87 212.87 162.19 218.2 156.5 223.54 150.81 228.87 145.12 234.21 139.43 239.54 133.74 244.88 128.05 250.21 122.36 255.55 116.68 260.88 110.99 264.03 113.94 269.36 108.25 274.7 102.56 280.04 96.87 285.37 91.18 290.7 85.5 296.04 79.81 301.38 74.11 306.71 68.43 312.05 62.74 317.38 57.05 322.72 51.36 319.57 48.41 324.9 42.72 321.76 39.77 318.61 36.82 313.27 42.51 316.42 45.46"/><rect class="cls-34" x="315.81" y="30.34" width="7.8" height="4.31" transform="translate(77.23 243.39) rotate(-46.82)"/><rect class="cls-34" x="317.99" y="21.7" width="7.8" height="4.31" transform="translate(84.3 242.34) rotate(-46.84)"/><rect class="cls-34" x="120.59" y="232.18" width="7.8" height="4.32" transform="translate(-131.6 164.85) rotate(-46.84)"/><rect class="cls-34" x="96.1" y="251.99" width="7.8" height="4.32" transform="translate(-153.75 153.16) rotate(-46.82)"/><polygon class="cls-34" points="15.73 340.85 12.59 337.9 9.44 334.95 4.11 340.63 7.25 343.58 10.4 346.54 13.55 349.49 16.69 352.44 22.03 346.75 18.88 343.8 15.73 340.85"/><polygon class="cls-34" points="122.44 227.07 125.58 230.02 130.92 224.33 127.77 221.38 124.63 218.43 119.29 224.12 122.44 227.07"/><polygon class="cls-34" points="101.1 249.83 106.43 244.14 103.29 241.19 100.14 238.23 94.8 243.93 97.95 246.88 101.1 249.83"/><rect class="cls-34" x="121.82" y="211.95" width="7.8" height="4.32" transform="translate(-116.45 159.33) rotate(-46.83)"/><polygon class="cls-34" points="310.4 7.74 313.55 10.69 316.69 13.63 319.84 16.59 322.99 19.54 328.32 13.85 325.18 10.9 322.03 7.95 318.88 4.99 315.74 2.04 310.4 7.74"/><rect class="cls-34" x="113.34" y="214.69" width="7.8" height="4.31" transform="translate(-121.11 153.94) rotate(-46.82)"/><rect class="cls-34" x="86.66" y="243.14" width="7.8" height="4.31" transform="translate(-150.22 143.35) rotate(-46.79)"/><rect class="cls-34" x="302.26" y="6.95" width="7.8" height="4.31" transform="translate(90.11 226.22) rotate(-46.84)"/><rect class="cls-34" x="104.86" y="217.43" width="7.8" height="4.31" transform="translate(-125.81 148.69) rotate(-46.83)"/><polygon class="cls-34" points="295.63 4.57 290.29 10.26 293.44 13.21 296.58 16.16 301.92 10.47 298.77 7.52 295.63 4.57"/><rect class="cls-34" x="282.15" y="9.47" width="7.8" height="4.31" transform="translate(81.91 212.34) rotate(-46.84)"/><polygon class="cls-34" points="273.32 15.73 267.99 21.42 262.65 27.11 257.32 32.8 251.99 38.49 246.65 44.18 241.31 49.86 235.98 55.55 230.64 61.24 225.31 66.93 219.97 72.62 223.12 75.57 228.46 69.88 233.79 64.2 239.13 58.5 244.46 52.82 249.8 47.13 255.13 41.44 260.47 35.75 265.8 30.06 271.14 24.37 276.47 18.68 281.81 13 278.66 10.04 273.32 15.73"/><polygon class="cls-34" points="38.16 190.8 41.31 193.75 44.45 196.7 49.79 191.02 52.94 193.97 56.08 196.92 59.23 199.87 62.38 202.82 65.52 205.77 68.67 208.72 71.82 211.67 74.96 214.63 78.11 217.58 81.26 220.53 84.41 223.48 87.55 226.43 90.7 229.38 96.03 223.69 99.18 226.64 104.52 220.96 101.37 218.01 106.7 212.31 112.04 206.63 117.37 200.94 122.71 195.25 128.04 189.56 133.38 183.87 138.72 178.18 135.57 175.23 140.91 169.54 146.24 163.85 151.57 158.17 156.91 152.47 162.25 146.79 167.58 141.1 172.91 135.41 178.25 129.72 183.59 124.03 188.92 118.34 194.26 112.66 199.59 106.97 204.93 101.28 210.26 95.59 215.6 89.9 212.45 86.95 207.11 92.64 201.78 98.33 196.44 104.01 191.11 109.7 185.77 115.39 180.44 121.08 175.1 126.77 169.77 132.46 164.43 138.15 159.1 143.84 153.76 149.52 148.43 155.21 143.09 160.9 137.76 166.59 132.42 172.28 127.09 177.97 121.75 183.66 116.42 189.34 111.08 195.04 105.75 200.72 100.41 206.41 95.08 212.1 89.74 217.79 86.59 214.84 83.45 211.89 80.3 208.93 77.15 205.99 74.01 203.03 70.86 200.08 67.71 197.13 64.56 194.18 61.42 191.23 58.27 188.28 55.12 185.33 51.98 182.38 46.64 188.06 43.5 185.11 40.35 182.16 35.01 187.85 29.68 193.54 24.34 199.23 27.49 202.18 32.83 196.49 38.16 190.8"/><polygon class="cls-35" points="274.29 27.32 268.95 33.01 263.61 38.7 258.28 44.39 252.94 50.08 247.61 55.77 242.27 61.46 236.94 67.14 231.6 72.83 226.27 78.52 220.93 84.21 224.08 87.16 218.74 92.85 213.41 98.54 208.07 104.23 202.74 109.92 197.4 115.61 192.07 121.29 186.73 126.98 181.4 132.67 176.06 138.36 170.73 144.05 165.39 149.74 160.06 155.43 154.72 161.12 149.39 166.81 144.05 172.49 138.72 178.18 133.38 183.87 128.04 189.56 122.71 195.25 117.37 200.94 112.04 206.63 106.7 212.31 109.85 215.26 115.19 209.58 118.33 212.53 121.48 215.48 126.82 209.79 132.15 204.1 137.49 198.41 142.82 192.73 148.16 187.03 153.49 181.35 158.83 175.66 164.16 169.97 169.5 164.28 174.83 158.59 180.17 152.91 185.5 147.22 190.84 141.53 196.17 135.84 201.51 130.15 206.84 124.46 212.18 118.77 217.51 113.08 222.85 107.39 228.18 101.71 233.52 96.02 238.85 90.33 244.19 84.64 249.52 78.95 254.86 73.26 260.19 67.57 265.53 61.88 270.87 56.19 267.72 53.24 273.06 47.56 278.39 41.86 283.72 36.18 289.06 30.49 294.39 24.8 291.25 21.85 288.1 18.89 282.77 24.59 279.62 21.64 274.29 27.32"/></svg>